{
  "asset": {
    "version": "2.0",
    "generator": "Authored fracture layouts: tools/make_ground_rock_models.py"
  },
  "scene": 0,
  "scenes": [
    {
      "nodes": [
        0
      ]
    }
  ],
  "nodes": [
    {
      "mesh": 0,
      "name": "ground_rock_10"
    }
  ],
  "meshes": [
    {
      "name": "ground_rock_10",
      "primitives": [
        {
          "attributes": {
            "POSITION": 0,
            "NORMAL": 1,
            "TEXCOORD_0": 2
          },
          "indices": 3,
          "material": 0,
          "mode": 4
        },
        {
          "attributes": {
            "POSITION": 4,
            "NORMAL": 5,
            "TEXCOORD_0": 6
          },
          "indices": 7,
          "material": 1,
          "mode": 4
        },
        {
          "attributes": {
            "POSITION": 8,
            "NORMAL": 9,
            "TEXCOORD_0": 10
          },
          "indices": 11,
          "material": 2,
          "mode": 4
        },
        {
          "attributes": {
            "POSITION": 12,
            "NORMAL": 13,
            "TEXCOORD_0": 14
          },
          "indices": 15,
          "material": 3,
          "mode": 4
        },
        {
          "attributes": {
            "POSITION": 16,
            "NORMAL": 17,
            "TEXCOORD_0": 18
          },
          "indices": 19,
          "material": 4,
          "mode": 4
        },
        {
          "attributes": {
            "POSITION": 20,
            "NORMAL": 21,
            "TEXCOORD_0": 22
          },
          "indices": 23,
          "material": 5,
          "mode": 4
        },
        {
          "attributes": {
            "POSITION": 24,
            "NORMAL": 25,
            "TEXCOORD_0": 26
          },
          "indices": 27,
          "material": 6,
          "mode": 4
        },
        {
          "attributes": {
            "POSITION": 28,
            "NORMAL": 29,
            "TEXCOORD_0": 30
          },
          "indices": 31,
          "material": 7,
          "mode": 4
        },
        {
          "attributes": {
            "POSITION": 32,
            "NORMAL": 33,
            "TEXCOORD_0": 34
          },
          "indices": 35,
          "material": 8,
          "mode": 4
        },
        {
          "attributes": {
            "POSITION": 36,
            "NORMAL": 37,
            "TEXCOORD_0": 38
          },
          "indices": 39,
          "material": 9,
          "mode": 4
        },
        {
          "attributes": {
            "POSITION": 40,
            "NORMAL": 41,
            "TEXCOORD_0": 42
          },
          "indices": 43,
          "material": 10,
          "mode": 4
        },
        {
          "attributes": {
            "POSITION": 44,
            "NORMAL": 45,
            "TEXCOORD_0": 46
          },
          "indices": 47,
          "material": 11,
          "mode": 4
        },
        {
          "attributes": {
            "POSITION": 48,
            "NORMAL": 49,
            "TEXCOORD_0": 50
          },
          "indices": 51,
          "material": 12,
          "mode": 4
        },
        {
          "attributes": {
            "POSITION": 52,
            "NORMAL": 53,
            "TEXCOORD_0": 54
          },
          "indices": 55,
          "material": 13,
          "mode": 4
        },
        {
          "attributes": {
            "POSITION": 56,
            "NORMAL": 57,
            "TEXCOORD_0": 58
          },
          "indices": 59,
          "material": 14,
          "mode": 4
        },
        {
          "attributes": {
            "POSITION": 60,
            "NORMAL": 61,
            "TEXCOORD_0": 62
          },
          "indices": 63,
          "material": 15,
          "mode": 4
        },
        {
          "attributes": {
            "POSITION": 64,
            "NORMAL": 65,
            "TEXCOORD_0": 66
          },
          "indices": 67,
          "material": 16,
          "mode": 4
        },
        {
          "attributes": {
            "POSITION": 68,
            "NORMAL": 69,
            "TEXCOORD_0": 70
          },
          "indices": 71,
          "material": 17,
          "mode": 4
        },
        {
          "attributes": {
            "POSITION": 72,
            "NORMAL": 73,
            "TEXCOORD_0": 74
          },
          "indices": 75,
          "material": 18,
          "mode": 4
        },
        {
          "attributes": {
            "POSITION": 76,
            "NORMAL": 77,
            "TEXCOORD_0": 78
          },
          "indices": 79,
          "material": 19,
          "mode": 4
        },
        {
          "attributes": {
            "POSITION": 80,
            "NORMAL": 81,
            "TEXCOORD_0": 82
          },
          "indices": 83,
          "material": 20,
          "mode": 4
        },
        {
          "attributes": {
            "POSITION": 84,
            "NORMAL": 85,
            "TEXCOORD_0": 86
          },
          "indices": 87,
          "material": 21,
          "mode": 4
        },
        {
          "attributes": {
            "POSITION": 88,
            "NORMAL": 89,
            "TEXCOORD_0": 90
          },
          "indices": 91,
          "material": 22,
          "mode": 4
        },
        {
          "attributes": {
            "POSITION": 92,
            "NORMAL": 93,
            "TEXCOORD_0": 94
          },
          "indices": 95,
          "material": 23,
          "mode": 4
        },
        {
          "attributes": {
            "POSITION": 96,
            "NORMAL": 97,
            "TEXCOORD_0": 98
          },
          "indices": 99,
          "material": 24,
          "mode": 4
        },
        {
          "attributes": {
            "POSITION": 100,
            "NORMAL": 101,
            "TEXCOORD_0": 102
          },
          "indices": 103,
          "material": 25,
          "mode": 4
        },
        {
          "attributes": {
            "POSITION": 104,
            "NORMAL": 105,
            "TEXCOORD_0": 106
          },
          "indices": 107,
          "material": 26,
          "mode": 4
        },
        {
          "attributes": {
            "POSITION": 108,
            "NORMAL": 109,
            "TEXCOORD_0": 110
          },
          "indices": 111,
          "material": 27,
          "mode": 4
        }
      ]
    }
  ],
  "materials": [
    {
      "name": "Sandstone plate 1",
      "pbrMetallicRoughness": {
        "baseColorFactor": [
          0.97,
          0.9602999999999999,
          0.9409,
          1
        ],
        "baseColorTexture": {
          "index": 0
        },
        "metallicFactor": 0,
        "roughnessFactor": 1
      }
    },
    {
      "name": "Sandstone plate 2",
      "pbrMetallicRoughness": {
        "baseColorFactor": [
          0.89,
          0.8811,
          0.8633,
          1
        ],
        "baseColorTexture": {
          "index": 0
        },
        "metallicFactor": 0,
        "roughnessFactor": 1
      }
    },
    {
      "name": "Sandstone plate 3",
      "pbrMetallicRoughness": {
        "baseColorFactor": [
          0.95,
          0.9405,
          0.9215,
          1
        ],
        "baseColorTexture": {
          "index": 0
        },
        "metallicFactor": 0,
        "roughnessFactor": 1
      }
    },
    {
      "name": "Sandstone plate 4",
      "pbrMetallicRoughness": {
        "baseColorFactor": [
          0.87,
          0.8613,
          0.8439,
          1
        ],
        "baseColorTexture": {
          "index": 0
        },
        "metallicFactor": 0,
        "roughnessFactor": 1
      }
    },
    {
      "name": "Sandstone plate 5",
      "pbrMetallicRoughness": {
        "baseColorFactor": [
          0.91,
          0.9009,
          0.8827,
          1
        ],
        "baseColorTexture": {
          "index": 0
        },
        "metallicFactor": 0,
        "roughnessFactor": 1
      }
    },
    {
      "name": "Sandstone plate 6",
      "pbrMetallicRoughness": {
        "baseColorFactor": [
          0.93,
          0.9207000000000001,
          0.9021,
          1
        ],
        "baseColorTexture": {
          "index": 0
        },
        "metallicFactor": 0,
        "roughnessFactor": 1
      }
    },
    {
      "name": "Sandstone plate 7",
      "pbrMetallicRoughness": {
        "baseColorFactor": [
          0.85,
          0.8415,
          0.8245,
          1
        ],
        "baseColorTexture": {
          "index": 0
        },
        "metallicFactor": 0,
        "roughnessFactor": 1
      }
    },
    {
      "name": "Sandstone plate 8",
      "pbrMetallicRoughness": {
        "baseColorFactor": [
          0.89,
          0.8811,
          0.8633,
          1
        ],
        "baseColorTexture": {
          "index": 0
        },
        "metallicFactor": 0,
        "roughnessFactor": 1
      }
    },
    {
      "name": "Sandstone plate 9",
      "pbrMetallicRoughness": {
        "baseColorFactor": [
          0.95,
          0.9405,
          0.9215,
          1
        ],
        "baseColorTexture": {
          "index": 0
        },
        "metallicFactor": 0,
        "roughnessFactor": 1
      }
    },
    {
      "name": "Sandstone plate 10",
      "pbrMetallicRoughness": {
        "baseColorFactor": [
          0.87,
          0.8613,
          0.8439,
          1
        ],
        "baseColorTexture": {
          "index": 0
        },
        "metallicFactor": 0,
        "roughnessFactor": 1
      }
    },
    {
      "name": "Sandstone plate 11",
      "pbrMetallicRoughness": {
        "baseColorFactor": [
          0.91,
          0.9009,
          0.8827,
          1
        ],
        "baseColorTexture": {
          "index": 0
        },
        "metallicFactor": 0,
        "roughnessFactor": 1
      }
    },
    {
      "name": "Sandstone plate 12",
      "pbrMetallicRoughness": {
        "baseColorFactor": [
          0.93,
          0.9207000000000001,
          0.9021,
          1
        ],
        "baseColorTexture": {
          "index": 0
        },
        "metallicFactor": 0,
        "roughnessFactor": 1
      }
    },
    {
      "name": "Sandstone plate 13",
      "pbrMetallicRoughness": {
        "baseColorFactor": [
          0.85,
          0.8415,
          0.8245,
          1
        ],
        "baseColorTexture": {
          "index": 0
        },
        "metallicFactor": 0,
        "roughnessFactor": 1
      }
    },
    {
      "name": "Sandstone plate 14",
      "pbrMetallicRoughness": {
        "baseColorFactor": [
          0.97,
          0.9602999999999999,
          0.9409,
          1
        ],
        "baseColorTexture": {
          "index": 0
        },
        "metallicFactor": 0,
        "roughnessFactor": 1
      }
    },
    {
      "name": "Sandstone plate 15",
      "pbrMetallicRoughness": {
        "baseColorFactor": [
          0.95,
          0.9405,
          0.9215,
          1
        ],
        "baseColorTexture": {
          "index": 0
        },
        "metallicFactor": 0,
        "roughnessFactor": 1
      }
    },
    {
      "name": "Sandstone plate 16",
      "pbrMetallicRoughness": {
        "baseColorFactor": [
          0.87,
          0.8613,
          0.8439,
          1
        ],
        "baseColorTexture": {
          "index": 0
        },
        "metallicFactor": 0,
        "roughnessFactor": 1
      }
    },
    {
      "name": "Sandstone plate 17",
      "pbrMetallicRoughness": {
        "baseColorFactor": [
          0.91,
          0.9009,
          0.8827,
          1
        ],
        "baseColorTexture": {
          "index": 0
        },
        "metallicFactor": 0,
        "roughnessFactor": 1
      }
    },
    {
      "name": "Sandstone plate 18",
      "pbrMetallicRoughness": {
        "baseColorFactor": [
          0.93,
          0.9207000000000001,
          0.9021,
          1
        ],
        "baseColorTexture": {
          "index": 0
        },
        "metallicFactor": 0,
        "roughnessFactor": 1
      }
    },
    {
      "name": "Sandstone plate 19",
      "pbrMetallicRoughness": {
        "baseColorFactor": [
          0.85,
          0.8415,
          0.8245,
          1
        ],
        "baseColorTexture": {
          "index": 0
        },
        "metallicFactor": 0,
        "roughnessFactor": 1
      }
    },
    {
      "name": "Sandstone plate 20",
      "pbrMetallicRoughness": {
        "baseColorFactor": [
          0.97,
          0.9602999999999999,
          0.9409,
          1
        ],
        "baseColorTexture": {
          "index": 0
        },
        "metallicFactor": 0,
        "roughnessFactor": 1
      }
    },
    {
      "name": "Sandstone plate 21",
      "pbrMetallicRoughness": {
        "baseColorFactor": [
          0.87,
          0.8613,
          0.8439,
          1
        ],
        "baseColorTexture": {
          "index": 0
        },
        "metallicFactor": 0,
        "roughnessFactor": 1
      }
    },
    {
      "name": "Sandstone plate 22",
      "pbrMetallicRoughness": {
        "baseColorFactor": [
          0.91,
          0.9009,
          0.8827,
          1
        ],
        "baseColorTexture": {
          "index": 0
        },
        "metallicFactor": 0,
        "roughnessFactor": 1
      }
    },
    {
      "name": "Sandstone plate 23",
      "pbrMetallicRoughness": {
        "baseColorFactor": [
          0.93,
          0.9207000000000001,
          0.9021,
          1
        ],
        "baseColorTexture": {
          "index": 0
        },
        "metallicFactor": 0,
        "roughnessFactor": 1
      }
    },
    {
      "name": "Sandstone plate 24",
      "pbrMetallicRoughness": {
        "baseColorFactor": [
          0.85,
          0.8415,
          0.8245,
          1
        ],
        "baseColorTexture": {
          "index": 0
        },
        "metallicFactor": 0,
        "roughnessFactor": 1
      }
    },
    {
      "name": "Sandstone plate 25",
      "pbrMetallicRoughness": {
        "baseColorFactor": [
          0.97,
          0.9602999999999999,
          0.9409,
          1
        ],
        "baseColorTexture": {
          "index": 0
        },
        "metallicFactor": 0,
        "roughnessFactor": 1
      }
    },
    {
      "name": "Sandstone plate 26",
      "pbrMetallicRoughness": {
        "baseColorFactor": [
          0.89,
          0.8811,
          0.8633,
          1
        ],
        "baseColorTexture": {
          "index": 0
        },
        "metallicFactor": 0,
        "roughnessFactor": 1
      }
    },
    {
      "name": "Sandstone plate 27",
      "pbrMetallicRoughness": {
        "baseColorFactor": [
          0.95,
          0.9405,
          0.9215,
          1
        ],
        "baseColorTexture": {
          "index": 0
        },
        "metallicFactor": 0,
        "roughnessFactor": 1
      }
    },
    {
      "name": "Sandstone plate 28",
      "pbrMetallicRoughness": {
        "baseColorFactor": [
          0.9,
          0.891,
          0.873,
          1
        ],
        "baseColorTexture": {
          "index": 0
        },
        "metallicFactor": 0,
        "roughnessFactor": 1
      }
    }
  ],
  "images": [
    {
      "uri": "../textures/ground_rock_side.png"
    }
  ],
  "samplers": [
    {
      "magFilter": 9729,
      "minFilter": 9987,
      "wrapS": 10497,
      "wrapT": 10497
    }
  ],
  "textures": [
    {
      "sampler": 0,
      "source": 0
    }
  ],
  "buffers": [
    {
      "uri": "ground_rock_10.bin",
      "byteLength": 36180
    }
  ],
  "bufferViews": [
    {
      "buffer": 0,
      "byteOffset": 0,
      "byteLength": 468,
      "target": 34962
    },
    {
      "buffer": 0,
      "byteOffset": 468,
      "byteLength": 468,
      "target": 34962
    },
    {
      "buffer": 0,
      "byteOffset": 936,
      "byteLength": 312,
      "target": 34962
    },
    {
      "buffer": 0,
      "byteOffset": 1248,
      "byteLength": 156,
      "target": 34963
    },
    {
      "buffer": 0,
      "byteOffset": 1404,
      "byteLength": 468,
      "target": 34962
    },
    {
      "buffer": 0,
      "byteOffset": 1872,
      "byteLength": 468,
      "target": 34962
    },
    {
      "buffer": 0,
      "byteOffset": 2340,
      "byteLength": 312,
      "target": 34962
    },
    {
      "buffer": 0,
      "byteOffset": 2652,
      "byteLength": 156,
      "target": 34963
    },
    {
      "buffer": 0,
      "byteOffset": 2808,
      "byteLength": 468,
      "target": 34962
    },
    {
      "buffer": 0,
      "byteOffset": 3276,
      "byteLength": 468,
      "target": 34962
    },
    {
      "buffer": 0,
      "byteOffset": 3744,
      "byteLength": 312,
      "target": 34962
    },
    {
      "buffer": 0,
      "byteOffset": 4056,
      "byteLength": 156,
      "target": 34963
    },
    {
      "buffer": 0,
      "byteOffset": 4212,
      "byteLength": 468,
      "target": 34962
    },
    {
      "buffer": 0,
      "byteOffset": 4680,
      "byteLength": 468,
      "target": 34962
    },
    {
      "buffer": 0,
      "byteOffset": 5148,
      "byteLength": 312,
      "target": 34962
    },
    {
      "buffer": 0,
      "byteOffset": 5460,
      "byteLength": 156,
      "target": 34963
    },
    {
      "buffer": 0,
      "byteOffset": 5616,
      "byteLength": 360,
      "target": 34962
    },
    {
      "buffer": 0,
      "byteOffset": 5976,
      "byteLength": 360,
      "target": 34962
    },
    {
      "buffer": 0,
      "byteOffset": 6336,
      "byteLength": 240,
      "target": 34962
    },
    {
      "buffer": 0,
      "byteOffset": 6576,
      "byteLength": 120,
      "target": 34963
    },
    {
      "buffer": 0,
      "byteOffset": 6696,
      "byteLength": 468,
      "target": 34962
    },
    {
      "buffer": 0,
      "byteOffset": 7164,
      "byteLength": 468,
      "target": 34962
    },
    {
      "buffer": 0,
      "byteOffset": 7632,
      "byteLength": 312,
      "target": 34962
    },
    {
      "buffer": 0,
      "byteOffset": 7944,
      "byteLength": 156,
      "target": 34963
    },
    {
      "buffer": 0,
      "byteOffset": 8100,
      "byteLength": 468,
      "target": 34962
    },
    {
      "buffer": 0,
      "byteOffset": 8568,
      "byteLength": 468,
      "target": 34962
    },
    {
      "buffer": 0,
      "byteOffset": 9036,
      "byteLength": 312,
      "target": 34962
    },
    {
      "buffer": 0,
      "byteOffset": 9348,
      "byteLength": 156,
      "target": 34963
    },
    {
      "buffer": 0,
      "byteOffset": 9504,
      "byteLength": 468,
      "target": 34962
    },
    {
      "buffer": 0,
      "byteOffset": 9972,
      "byteLength": 468,
      "target": 34962
    },
    {
      "buffer": 0,
      "byteOffset": 10440,
      "byteLength": 312,
      "target": 34962
    },
    {
      "buffer": 0,
      "byteOffset": 10752,
      "byteLength": 156,
      "target": 34963
    },
    {
      "buffer": 0,
      "byteOffset": 10908,
      "byteLength": 468,
      "target": 34962
    },
    {
      "buffer": 0,
      "byteOffset": 11376,
      "byteLength": 468,
      "target": 34962
    },
    {
      "buffer": 0,
      "byteOffset": 11844,
      "byteLength": 312,
      "target": 34962
    },
    {
      "buffer": 0,
      "byteOffset": 12156,
      "byteLength": 156,
      "target": 34963
    },
    {
      "buffer": 0,
      "byteOffset": 12312,
      "byteLength": 360,
      "target": 34962
    },
    {
      "buffer": 0,
      "byteOffset": 12672,
      "byteLength": 360,
      "target": 34962
    },
    {
      "buffer": 0,
      "byteOffset": 13032,
      "byteLength": 240,
      "target": 34962
    },
    {
      "buffer": 0,
      "byteOffset": 13272,
      "byteLength": 120,
      "target": 34963
    },
    {
      "buffer": 0,
      "byteOffset": 13392,
      "byteLength": 468,
      "target": 34962
    },
    {
      "buffer": 0,
      "byteOffset": 13860,
      "byteLength": 468,
      "target": 34962
    },
    {
      "buffer": 0,
      "byteOffset": 14328,
      "byteLength": 312,
      "target": 34962
    },
    {
      "buffer": 0,
      "byteOffset": 14640,
      "byteLength": 156,
      "target": 34963
    },
    {
      "buffer": 0,
      "byteOffset": 14796,
      "byteLength": 468,
      "target": 34962
    },
    {
      "buffer": 0,
      "byteOffset": 15264,
      "byteLength": 468,
      "target": 34962
    },
    {
      "buffer": 0,
      "byteOffset": 15732,
      "byteLength": 312,
      "target": 34962
    },
    {
      "buffer": 0,
      "byteOffset": 16044,
      "byteLength": 156,
      "target": 34963
    },
    {
      "buffer": 0,
      "byteOffset": 16200,
      "byteLength": 576,
      "target": 34962
    },
    {
      "buffer": 0,
      "byteOffset": 16776,
      "byteLength": 576,
      "target": 34962
    },
    {
      "buffer": 0,
      "byteOffset": 17352,
      "byteLength": 384,
      "target": 34962
    },
    {
      "buffer": 0,
      "byteOffset": 17736,
      "byteLength": 192,
      "target": 34963
    },
    {
      "buffer": 0,
      "byteOffset": 17928,
      "byteLength": 360,
      "target": 34962
    },
    {
      "buffer": 0,
      "byteOffset": 18288,
      "byteLength": 360,
      "target": 34962
    },
    {
      "buffer": 0,
      "byteOffset": 18648,
      "byteLength": 240,
      "target": 34962
    },
    {
      "buffer": 0,
      "byteOffset": 18888,
      "byteLength": 120,
      "target": 34963
    },
    {
      "buffer": 0,
      "byteOffset": 19008,
      "byteLength": 468,
      "target": 34962
    },
    {
      "buffer": 0,
      "byteOffset": 19476,
      "byteLength": 468,
      "target": 34962
    },
    {
      "buffer": 0,
      "byteOffset": 19944,
      "byteLength": 312,
      "target": 34962
    },
    {
      "buffer": 0,
      "byteOffset": 20256,
      "byteLength": 156,
      "target": 34963
    },
    {
      "buffer": 0,
      "byteOffset": 20412,
      "byteLength": 360,
      "target": 34962
    },
    {
      "buffer": 0,
      "byteOffset": 20772,
      "byteLength": 360,
      "target": 34962
    },
    {
      "buffer": 0,
      "byteOffset": 21132,
      "byteLength": 240,
      "target": 34962
    },
    {
      "buffer": 0,
      "byteOffset": 21372,
      "byteLength": 120,
      "target": 34963
    },
    {
      "buffer": 0,
      "byteOffset": 21492,
      "byteLength": 468,
      "target": 34962
    },
    {
      "buffer": 0,
      "byteOffset": 21960,
      "byteLength": 468,
      "target": 34962
    },
    {
      "buffer": 0,
      "byteOffset": 22428,
      "byteLength": 312,
      "target": 34962
    },
    {
      "buffer": 0,
      "byteOffset": 22740,
      "byteLength": 156,
      "target": 34963
    },
    {
      "buffer": 0,
      "byteOffset": 22896,
      "byteLength": 360,
      "target": 34962
    },
    {
      "buffer": 0,
      "byteOffset": 23256,
      "byteLength": 360,
      "target": 34962
    },
    {
      "buffer": 0,
      "byteOffset": 23616,
      "byteLength": 240,
      "target": 34962
    },
    {
      "buffer": 0,
      "byteOffset": 23856,
      "byteLength": 120,
      "target": 34963
    },
    {
      "buffer": 0,
      "byteOffset": 23976,
      "byteLength": 576,
      "target": 34962
    },
    {
      "buffer": 0,
      "byteOffset": 24552,
      "byteLength": 576,
      "target": 34962
    },
    {
      "buffer": 0,
      "byteOffset": 25128,
      "byteLength": 384,
      "target": 34962
    },
    {
      "buffer": 0,
      "byteOffset": 25512,
      "byteLength": 192,
      "target": 34963
    },
    {
      "buffer": 0,
      "byteOffset": 25704,
      "byteLength": 360,
      "target": 34962
    },
    {
      "buffer": 0,
      "byteOffset": 26064,
      "byteLength": 360,
      "target": 34962
    },
    {
      "buffer": 0,
      "byteOffset": 26424,
      "byteLength": 240,
      "target": 34962
    },
    {
      "buffer": 0,
      "byteOffset": 26664,
      "byteLength": 120,
      "target": 34963
    },
    {
      "buffer": 0,
      "byteOffset": 26784,
      "byteLength": 468,
      "target": 34962
    },
    {
      "buffer": 0,
      "byteOffset": 27252,
      "byteLength": 468,
      "target": 34962
    },
    {
      "buffer": 0,
      "byteOffset": 27720,
      "byteLength": 312,
      "target": 34962
    },
    {
      "buffer": 0,
      "byteOffset": 28032,
      "byteLength": 156,
      "target": 34963
    },
    {
      "buffer": 0,
      "byteOffset": 28188,
      "byteLength": 360,
      "target": 34962
    },
    {
      "buffer": 0,
      "byteOffset": 28548,
      "byteLength": 360,
      "target": 34962
    },
    {
      "buffer": 0,
      "byteOffset": 28908,
      "byteLength": 240,
      "target": 34962
    },
    {
      "buffer": 0,
      "byteOffset": 29148,
      "byteLength": 120,
      "target": 34963
    },
    {
      "buffer": 0,
      "byteOffset": 29268,
      "byteLength": 468,
      "target": 34962
    },
    {
      "buffer": 0,
      "byteOffset": 29736,
      "byteLength": 468,
      "target": 34962
    },
    {
      "buffer": 0,
      "byteOffset": 30204,
      "byteLength": 312,
      "target": 34962
    },
    {
      "buffer": 0,
      "byteOffset": 30516,
      "byteLength": 156,
      "target": 34963
    },
    {
      "buffer": 0,
      "byteOffset": 30672,
      "byteLength": 360,
      "target": 34962
    },
    {
      "buffer": 0,
      "byteOffset": 31032,
      "byteLength": 360,
      "target": 34962
    },
    {
      "buffer": 0,
      "byteOffset": 31392,
      "byteLength": 240,
      "target": 34962
    },
    {
      "buffer": 0,
      "byteOffset": 31632,
      "byteLength": 120,
      "target": 34963
    },
    {
      "buffer": 0,
      "byteOffset": 31752,
      "byteLength": 360,
      "target": 34962
    },
    {
      "buffer": 0,
      "byteOffset": 32112,
      "byteLength": 360,
      "target": 34962
    },
    {
      "buffer": 0,
      "byteOffset": 32472,
      "byteLength": 240,
      "target": 34962
    },
    {
      "buffer": 0,
      "byteOffset": 32712,
      "byteLength": 120,
      "target": 34963
    },
    {
      "buffer": 0,
      "byteOffset": 32832,
      "byteLength": 576,
      "target": 34962
    },
    {
      "buffer": 0,
      "byteOffset": 33408,
      "byteLength": 576,
      "target": 34962
    },
    {
      "buffer": 0,
      "byteOffset": 33984,
      "byteLength": 384,
      "target": 34962
    },
    {
      "buffer": 0,
      "byteOffset": 34368,
      "byteLength": 192,
      "target": 34963
    },
    {
      "buffer": 0,
      "byteOffset": 34560,
      "byteLength": 468,
      "target": 34962
    },
    {
      "buffer": 0,
      "byteOffset": 35028,
      "byteLength": 468,
      "target": 34962
    },
    {
      "buffer": 0,
      "byteOffset": 35496,
      "byteLength": 312,
      "target": 34962
    },
    {
      "buffer": 0,
      "byteOffset": 35808,
      "byteLength": 156,
      "target": 34963
    },
    {
      "buffer": 0,
      "byteOffset": 35964,
      "byteLength": 72,
      "target": 34962
    },
    {
      "buffer": 0,
      "byteOffset": 36036,
      "byteLength": 72,
      "target": 34962
    },
    {
      "buffer": 0,
      "byteOffset": 36108,
      "byteLength": 48,
      "target": 34962
    },
    {
      "buffer": 0,
      "byteOffset": 36156,
      "byteLength": 24,
      "target": 34963
    }
  ],
  "accessors": [
    {
      "bufferView": 0,
      "componentType": 5126,
      "count": 39,
      "type": "VEC3",
      "min": [
        0.550444094488189,
        0.0,
        -0.06704913686806412
      ],
      "max": [
        1.0,
        0.5049136868064118,
        0.0138096915799646
      ]
    },
    {
      "bufferView": 1,
      "componentType": 5126,
      "count": 39,
      "type": "VEC3",
      "min": [
        -0.9538407583430387,
        -0.5069391579625565,
        0.29957172130037135
      ],
      "max": [
        0.43952707994881485,
        0.8381381123421967,
        0.999883520354423
      ]
    },
    {
      "bufferView": 2,
      "componentType": 5126,
      "count": 39,
      "type": "VEC2"
    },
    {
      "bufferView": 3,
      "componentType": 5125,
      "count": 39,
      "type": "SCALAR"
    },
    {
      "bufferView": 4,
      "componentType": 5126,
      "count": 39,
      "type": "VEC3",
      "min": [
        0.0412222222222222,
        0.0,
        -0.06642821596244132
      ],
      "max": [
        0.5534285714285714,
        0.44282159624413153,
        -0.0
      ]
    },
    {
      "bufferView": 5,
      "componentType": 5126,
      "count": 39,
      "type": "VEC3",
      "min": [
        -0.8350863945360703,
        -0.30200419346841706,
        0.3621232604760292
      ],
      "max": [
        0.9057915198660285,
        0.8817698012523896,
        0.9995642849369534
      ]
    },
    {
      "bufferView": 6,
      "componentType": 5126,
      "count": 39,
      "type": "VEC2"
    },
    {
      "bufferView": 7,
      "componentType": 5125,
      "count": 39,
      "type": "SCALAR"
    },
    {
      "bufferView": 8,
      "componentType": 5126,
      "count": 39,
      "type": "VEC3",
      "min": [
        0.0,
        0.0,
        -0.06614874999999999
      ],
      "max": [
        0.24404999999999993,
        1.0,
        0.013551171659578937
      ]
    },
    {
      "bufferView": 9,
      "componentType": 5126,
      "count": 39,
      "type": "VEC3",
      "min": [
        -0.9267682744079444,
        -0.9272377947782088,
        0.07838039750870632
      ],
      "max": [
        0.9252034430669336,
        0.37128843534840733,
        0.9997790732345259
      ]
    },
    {
      "bufferView": 10,
      "componentType": 5126,
      "count": 39,
      "type": "VEC2"
    },
    {
      "bufferView": 11,
      "componentType": 5125,
      "count": 39,
      "type": "SCALAR"
    },
    {
      "bufferView": 12,
      "componentType": 5126,
      "count": 39,
      "type": "VEC3",
      "min": [
        0.6943816254416961,
        0.3247959183673468,
        -0.06759187279151943
      ],
      "max": [
        1.0,
        1.0,
        -0.0
      ]
    },
    {
      "bufferView": 13,
      "componentType": 5126,
      "count": 39,
      "type": "VEC3",
      "min": [
        -0.9049277190241389,
        -0.7749446684073994,
        0.4082586288359912
      ],
      "max": [
        0.5249302706776944,
        0.41661044056202534,
        0.9998960162211884
      ]
    },
    {
      "bufferView": 14,
      "componentType": 5126,
      "count": 39,
      "type": "VEC2"
    },
    {
      "bufferView": 15,
      "componentType": 5125,
      "count": 39,
      "type": "SCALAR"
    },
    {
      "bufferView": 16,
      "componentType": 5126,
      "count": 30,
      "type": "VEC3",
      "min": [
        0.3878387096774193,
        0.5591872791519433,
        -0.06913402922755742
      ],
      "max": [
        0.7766666666666666,
        1.0,
        0.015298633224201535
      ]
    },
    {
      "bufferView": 17,
      "componentType": 5126,
      "count": 30,
      "type": "VEC3",
      "min": [
        -0.9622778418159167,
        -0.8476925597666102,
        0.18604809851917237
      ],
      "max": [
        0.9648613326800503,
        0.6263842043079599,
        0.999783570283015
      ]
    },
    {
      "bufferView": 18,
      "componentType": 5126,
      "count": 30,
      "type": "VEC2"
    },
    {
      "bufferView": 19,
      "componentType": 5125,
      "count": 30,
      "type": "SCALAR"
    },
    {
      "bufferView": 20,
      "componentType": 5126,
      "count": 39,
      "type": "VEC3",
      "min": [
        0.010000000000000009,
        0.41487500000000005,
        -0.0691340292275574
      ],
      "max": [
        0.4322150313152401,
        1.0,
        2.3043139059408455e-05
      ]
    },
    {
      "bufferView": 21,
      "componentType": 5126,
      "count": 39,
      "type": "VEC3",
      "min": [
        -0.846200069365822,
        -0.8845083789386455,
        0.33547412344152
      ],
      "max": [
        0.931901361858432,
        0.137106113972095,
        0.9999993362678388
      ]
    },
    {
      "bufferView": 22,
      "componentType": 5126,
      "count": 39,
      "type": "VEC2"
    },
    {
      "bufferView": 23,
      "componentType": 5125,
      "count": 39,
      "type": "SCALAR"
    },
    {
      "bufferView": 24,
      "componentType": 5126,
      "count": 39,
      "type": "VEC3",
      "min": [
        0.32868826291079817,
        0.1566850393700788,
        -0.06913402922755742
      ],
      "max": [
        0.7058076448828606,
        0.7134029227557412,
        -0.023216861157841117
      ]
    },
    {
      "bufferView": 25,
      "componentType": 5126,
      "count": 39,
      "type": "VEC3",
      "min": [
        -0.851883353801121,
        -0.5723505817941401,
        0.345864611269679
      ],
      "max": [
        0.9118216029348959,
        0.8083524546928901,
        0.9995737726595663
      ]
    },
    {
      "bufferView": 26,
      "componentType": 5126,
      "count": 39,
      "type": "VEC2"
    },
    {
      "bufferView": 27,
      "componentType": 5125,
      "count": 39,
      "type": "SCALAR"
    },
    {
      "bufferView": 28,
      "componentType": 5126,
      "count": 39,
      "type": "VEC3",
      "min": [
        0.9336032258064516,
        0.0,
        -0.41664999999999996
      ],
      "max": [
        1.0,
        0.4396774193548387,
        -0.0
      ]
    },
    {
      "bufferView": 29,
      "componentType": 5126,
      "count": 39,
      "type": "VEC3",
      "min": [
        0.35857162819180416,
        -0.6460277999437815,
        -0.9130823781845478
      ],
      "max": [
        0.9995642849369534,
        0.864606457948143,
        0.7538500027526914
      ]
    },
    {
      "bufferView": 30,
      "componentType": 5126,
      "count": 39,
      "type": "VEC2"
    },
    {
      "bufferView": 31,
      "componentType": 5125,
      "count": 39,
      "type": "SCALAR"
    },
    {
      "bufferView": 32,
      "componentType": 5126,
      "count": 39,
      "type": "VEC3",
      "min": [
        0.9328681415929203,
        0.0,
        -0.7632972972972973
      ],
      "max": [
        1.0093872014831216,
        0.5131858407079646,
        -0.39307692307692305
      ]
    },
    {
      "bufferView": 33,
      "componentType": 5126,
      "count": 39,
      "type": "VEC3",
      "min": [
        0.18366460314228392,
        -0.5897638633533627,
        -0.9792291497724962
      ],
      "max": [
        0.9997790732345258,
        0.7990875654144165,
        0.9792681959336309
      ]
    },
    {
      "bufferView": 34,
      "componentType": 5126,
      "count": 39,
      "type": "VEC2"
    },
    {
      "bufferView": 35,
      "componentType": 5125,
      "count": 39,
      "type": "SCALAR"
    },
    {
      "bufferView": 36,
      "componentType": 5126,
      "count": 30,
      "type": "VEC3",
      "min": [
        0.9343378378378379,
        0.0,
        -1.0
      ],
      "max": [
        1.0,
        0.5881250000000001,
        -0.734
      ]
    },
    {
      "bufferView": 37,
      "componentType": 5126,
      "count": 30,
      "type": "VEC3",
      "min": [
        0.40524148414540184,
        -0.34912958483967227,
        -0.5631188503401579
      ],
      "max": [
        0.9998960162211883,
        0.6610966858921176,
        0.9115796650589134
      ]
    },
    {
      "bufferView": 38,
      "componentType": 5126,
      "count": 30,
      "type": "VEC2"
    },
    {
      "bufferView": 39,
      "componentType": 5125,
      "count": 30,
      "type": "SCALAR"
    },
    {
      "bufferView": 40,
      "componentType": 5126,
      "count": 39,
      "type": "VEC3",
      "min": [
        0.9302168976545843,
        0.35159090909090907,
        -0.26549040511727084
      ],
      "max": [
        1.0180466046761225,
        1.0,
        -0.0
      ]
    },
    {
      "bufferView": 41,
      "componentType": 5126,
      "count": 39,
      "type": "VEC3",
      "min": [
        0.19488599467830667,
        -0.8833421895128474,
        -0.9706426034975429
      ],
      "max": [
        0.999783570283015,
        0.5574638291166482,
        0.7482616053448128
      ]
    },
    {
      "bufferView": 42,
      "componentType": 5126,
      "count": 39,
      "type": "VEC2"
    },
    {
      "bufferView": 43,
      "componentType": 5125,
      "count": 39,
      "type": "SCALAR"
    },
    {
      "bufferView": 44,
      "componentType": 5126,
      "count": 39,
      "type": "VEC3",
      "min": [
        0.9302168976545843,
        0.2619230769230769,
        -0.5575398230088496
      ],
      "max": [
        0.996207604453569,
        0.778310234541578,
        -0.2153225806451613
      ]
    },
    {
      "bufferView": 45,
      "componentType": 5126,
      "count": 39,
      "type": "VEC3",
      "min": [
        0.28887403655620125,
        -0.6753451979705464,
        -0.945295729962904
      ],
      "max": [
        0.9995962446592683,
        0.9468558537657984,
        0.947638995988578
      ]
    },
    {
      "bufferView": 46,
      "componentType": 5126,
      "count": 39,
      "type": "VEC2"
    },
    {
      "bufferView": 47,
      "componentType": 5125,
      "count": 39,
      "type": "SCALAR"
    },
    {
      "bufferView": 48,
      "componentType": 5126,
      "count": 48,
      "type": "VEC3",
      "min": [
        0.9306230769230769,
        0.36621621621621625,
        -1.0
      ],
      "max": [
        1.0,
        1.0,
        -0.5416923076923077
      ]
    },
    {
      "bufferView": 49,
      "componentType": 5126,
      "count": 48,
      "type": "VEC3",
      "min": [
        0.32805188212223035,
        -0.9316117548227191,
        -0.8816845143720744
      ],
      "max": [
        0.9995737726595665,
        0.5216253926946496,
        0.9284944184224359
      ]
    },
    {
      "bufferView": 50,
      "componentType": 5126,
      "count": 48,
      "type": "VEC2"
    },
    {
      "bufferView": 51,
      "componentType": 5125,
      "count": 48,
      "type": "SCALAR"
    },
    {
      "bufferView": 52,
      "componentType": 5126,
      "count": 30,
      "type": "VEC3",
      "min": [
        0.9302168976545843,
        0.7376923076923078,
        -0.6335
      ],
      "max": [
        1.012257300867304,
        1.0,
        -0.19210344827586212
      ]
    },
    {
      "bufferView": 53,
      "componentType": 5126,
      "count": 30,
      "type": "VEC3",
      "min": [
        0.2802250809677809,
        -0.9501911826171943,
        -0.9042427603554863
      ],
      "max": [
        0.999883520354423,
        0.43536156561495704,
        0.8758205647188719
      ]
    },
    {
      "bufferView": 54,
      "componentType": 5126,
      "count": 30,
      "type": "VEC2"
    },
    {
      "bufferView": 55,
      "componentType": 5125,
      "count": 30,
      "type": "SCALAR"
    },
    {
      "bufferView": 56,
      "componentType": 5126,
      "count": 39,
      "type": "VEC3",
      "min": [
        0.0,
        0.0,
        -1.0107985085148634
      ],
      "max": [
        0.43836994508237637,
        0.656580161476355,
        -0.9314341983852364
      ]
    },
    {
      "bufferView": 57,
      "componentType": 5126,
      "count": 39,
      "type": "VEC3",
      "min": [
        -0.5286807988301759,
        -0.6422400176550964,
        -0.9997790732345258
      ],
      "max": [
        0.961675609755356,
        0.8873318736299477,
        -0.1819745013520743
      ]
    },
    {
      "bufferView": 58,
      "componentType": 5126,
      "count": 39,
      "type": "VEC2"
    },
    {
      "bufferView": 59,
      "componentType": 5125,
      "count": 39,
      "type": "SCALAR"
    },
    {
      "bufferView": 60,
      "componentType": 5126,
      "count": 30,
      "type": "VEC3",
      "min": [
        0.35094594594594597,
        0.0,
        -1.0
      ],
      "max": [
        0.879,
        0.4824285714285715,
        -0.9331757142857143
      ]
    },
    {
      "bufferView": 61,
      "componentType": 5126,
      "count": 30,
      "type": "VEC3",
      "min": [
        -0.882092530184882,
        -0.17204132051657686,
        -0.9998960162211884
      ],
      "max": [
        0.8301831573171307,
        0.8639171011699824,
        -0.38386872086214857
      ]
    },
    {
      "bufferView": 62,
      "componentType": 5126,
      "count": 30,
      "type": "VEC2"
    },
    {
      "bufferView": 63,
      "componentType": 5125,
      "count": 30,
      "type": "SCALAR"
    },
    {
      "bufferView": 64,
      "componentType": 5126,
      "count": 39,
      "type": "VEC3",
      "min": [
        0.6431460317460318,
        0.0,
        -1.018773363175709
      ],
      "max": [
        1.0,
        0.7765760869565217,
        -0.9313962686567164
      ]
    },
    {
      "bufferView": 65,
      "componentType": 5126,
      "count": 39,
      "type": "VEC3",
      "min": [
        -0.9390223812811309,
        -0.7656215717394254,
        -0.999783570283015
      ],
      "max": [
        0.7610855929122319,
        0.9132148196535679,
        -0.2085947764472837
      ]
    },
    {
      "bufferView": 66,
      "componentType": 5126,
      "count": 39,
      "type": "VEC2"
    },
    {
      "bufferView": 67,
      "componentType": 5125,
      "count": 39,
      "type": "SCALAR"
    },
    {
      "bufferView": 68,
      "componentType": 5126,
      "count": 30,
      "type": "VEC3",
      "min": [
        0.0,
        0.5014583333333332,
        -1.0
      ],
      "max": [
        0.33036842105263164,
        1.0,
        -0.9314341983852364
      ]
    },
    {
      "bufferView": 69,
      "componentType": 5126,
      "count": 30,
      "type": "VEC3",
      "min": [
        -0.14098358514457981,
        -0.8445685873352877,
        -0.9995962446592683
      ],
      "max": [
        0.9309783299298768,
        0.4991784291210378,
        -0.3192518588404877
      ]
    },
    {
      "bufferView": 70,
      "componentType": 5126,
      "count": 30,
      "type": "VEC2"
    },
    {
      "bufferView": 71,
      "componentType": 5125,
      "count": 30,
      "type": "SCALAR"
    },
    {
      "bufferView": 72,
      "componentType": 5126,
      "count": 48,
      "type": "VEC3",
      "min": [
        0.297833910034602,
        0.40433599600599107,
        -1.0
      ],
      "max": [
        0.6945522388059702,
        1.0,
        -0.9313962686567164
      ]
    },
    {
      "bufferView": 73,
      "componentType": 5126,
      "count": 48,
      "type": "VEC3",
      "min": [
        -0.9391939256583477,
        -0.9305927224538703,
        -0.9995737726595665
      ],
      "max": [
        0.9055309937985003,
        0.17140309698915324,
        -0.3254472901408518
      ]
    },
    {
      "bufferView": 74,
      "componentType": 5126,
      "count": 48,
      "type": "VEC2"
    },
    {
      "bufferView": 75,
      "componentType": 5125,
      "count": 48,
      "type": "SCALAR"
    },
    {
      "bufferView": 76,
      "componentType": 5126,
      "count": 30,
      "type": "VEC3",
      "min": [
        0.6008620689655173,
        0.6603731343283582,
        -1.012508705495808
      ],
      "max": [
        1.0,
        1.0,
        -0.9313962686567164
      ]
    },
    {
      "bufferView": 77,
      "componentType": 5126,
      "count": 30,
      "type": "VEC3",
      "min": [
        -0.9229962144783598,
        -0.909191514197442,
        -0.9998835203544231
      ],
      "max": [
        0.46218742441980376,
        0.4180835280226427,
        -0.2914706519374613
      ]
    },
    {
      "bufferView": 78,
      "componentType": 5126,
      "count": 30,
      "type": "VEC2"
    },
    {
      "bufferView": 79,
      "componentType": 5125,
      "count": 30,
      "type": "SCALAR"
    },
    {
      "bufferView": 80,
      "componentType": 5126,
      "count": 39,
      "type": "VEC3",
      "min": [
        0.0,
        0.0,
        -1.0
      ],
      "max": [
        0.06698755133470226,
        0.5194827586206897,
        -0.7178627700127065
      ]
    },
    {
      "bufferView": 81,
      "componentType": 5126,
      "count": 39,
      "type": "VEC3",
      "min": [
        -0.9998960162211883,
        -0.39185226469363976,
        -0.6193033117288126
      ],
      "max": [
        -0.37949966826332265,
        0.9221305223901334,
        0.9164517936973022
      ]
    },
    {
      "bufferView": 82,
      "componentType": 5126,
      "count": 39,
      "type": "VEC2"
    },
    {
      "bufferView": 83,
      "componentType": 5125,
      "count": 39,
      "type": "SCALAR"
    },
    {
      "bufferView": 84,
      "componentType": 5126,
      "count": 30,
      "type": "VEC3",
      "min": [
        -0.016974397018435946,
        0.0,
        -0.7800344827586208
      ],
      "max": [
        0.06609768106734434,
        0.4097681067344346,
        -0.38688235294117657
      ]
    },
    {
      "bufferView": 85,
      "componentType": 5126,
      "count": 30,
      "type": "VEC3",
      "min": [
        -0.999783570283015,
        -0.7339229236846149,
        -0.9677548213764097
      ],
      "max": [
        -0.2019914983784811,
        0.9411734109388018,
        0.9373034846794508
      ]
    },
    {
      "bufferView": 86,
      "componentType": 5126,
      "count": 30,
      "type": "VEC2"
    },
    {
      "bufferView": 87,
      "componentType": 5125,
      "count": 30,
      "type": "SCALAR"
    },
    {
      "bufferView": 88,
      "componentType": 5126,
      "count": 39,
      "type": "VEC3",
      "min": [
        0.0,
        0.0,
        -0.47048964677222904
      ],
      "max": [
        0.06799153455928979,
        0.5991534559289788,
        -0.06036453645364526
      ]
    },
    {
      "bufferView": 89,
      "componentType": 5126,
      "count": 39,
      "type": "VEC3",
      "min": [
        -0.9995962446592682,
        -0.2644440328909926,
        -0.9183551488176342
      ],
      "max": [
        -0.29830797370687495,
        0.9449342697399554,
        0.9006827942053605
      ]
    },
    {
      "bufferView": 90,
      "componentType": 5126,
      "count": 39,
      "type": "VEC2"
    },
    {
      "bufferView": 91,
      "componentType": 5125,
      "count": 39,
      "type": "SCALAR"
    },
    {
      "bufferView": 92,
      "componentType": 5126,
      "count": 30,
      "type": "VEC3",
      "min": [
        0.0,
        0.0,
        -0.2498999999999998
      ],
      "max": [
        0.06757457245724573,
        0.5941071428571428,
        -0.0
      ]
    },
    {
      "bufferView": 93,
      "componentType": 5126,
      "count": 30,
      "type": "VEC3",
      "min": [
        -0.9995737726595664,
        -0.7872887819957086,
        -0.9205819213503247
      ],
      "max": [
        -0.39054951809334587,
        0.8731948751886055,
        0.8217949692218377
      ]
    },
    {
      "bufferView": 94,
      "componentType": 5126,
      "count": 30,
      "type": "VEC2"
    },
    {
      "bufferView": 95,
      "componentType": 5125,
      "count": 30,
      "type": "SCALAR"
    },
    {
      "bufferView": 96,
      "componentType": 5126,
      "count": 30,
      "type": "VEC3",
      "min": [
        -0.013288417308579978,
        0.49875513347022593,
        -1.0
      ],
      "max": [
        0.06698755133470226,
        1.0,
        -0.6562727272727272
      ]
    },
    {
      "bufferView": 97,
      "componentType": 5126,
      "count": 30,
      "type": "VEC3",
      "min": [
        -0.9998835203544229,
        -0.9489689796085196,
        -0.48439130058485164
      ],
      "max": [
        -0.2938399257263957,
        0.37844312898841803,
        0.9368010010004927
      ]
    },
    {
      "bufferView": 98,
      "componentType": 5126,
      "count": 30,
      "type": "VEC2"
    },
    {
      "bufferView": 99,
      "componentType": 5125,
      "count": 30,
      "type": "SCALAR"
    },
    {
      "bufferView": 100,
      "componentType": 5126,
      "count": 48,
      "type": "VEC3",
      "min": [
        0.0,
        0.33841047503045074,
        -0.7595595482546201
      ],
      "max": [
        0.06799153455928979,
        1.0,
        -0.3550177552314522
      ]
    },
    {
      "bufferView": 101,
      "componentType": 5126,
      "count": 48,
      "type": "VEC3",
      "min": [
        -0.9995642849369534,
        -0.8788635987993589,
        -0.8900170582409536
      ],
      "max": [
        -0.3418311624395282,
        0.25453661097205765,
        0.904633942575725
      ]
    },
    {
      "bufferView": 102,
      "componentType": 5126,
      "count": 48,
      "type": "VEC2"
    },
    {
      "bufferView": 103,
      "componentType": 5125,
      "count": 48,
      "type": "SCALAR"
    },
    {
      "bufferView": 104,
      "componentType": 5126,
      "count": 39,
      "type": "VEC3",
      "min": [
        -0.008180936072628691,
        0.5574572457245723,
        -0.46880645161290335
      ],
      "max": [
        0.06799153455928979,
        1.0,
        -0.0
      ]
    },
    {
      "bufferView": 105,
      "componentType": 5126,
      "count": 39,
      "type": "VEC3",
      "min": [
        -0.9997790732345259,
        -0.9761891339597865,
        -0.9397830547503346
      ],
      "max": [
        -0.1681194382075412,
        0.15168031877962662,
        0.5137545751032394
      ]
    },
    {
      "bufferView": 106,
      "componentType": 5126,
      "count": 39,
      "type": "VEC2"
    },
    {
      "bufferView": 107,
      "componentType": 5125,
      "count": 39,
      "type": "SCALAR"
    },
    {
      "bufferView": 108,
      "componentType": 5126,
      "count": 6,
      "type": "VEC3",
      "min": [
        0,
        0,
        -1
      ],
      "max": [
        1,
        0,
        0
      ]
    },
    {
      "bufferView": 109,
      "componentType": 5126,
      "count": 6,
      "type": "VEC3",
      "min": [
        0.0,
        -1.0,
        -0.0
      ],
      "max": [
        0.0,
        -1.0,
        -0.0
      ]
    },
    {
      "bufferView": 110,
      "componentType": 5126,
      "count": 6,
      "type": "VEC2"
    },
    {
      "bufferView": 111,
      "componentType": 5125,
      "count": 6,
      "type": "SCALAR"
    }
  ]
}
