{
  "asset": {
    "version": "2.0",
    "generator": "Authored fracture layouts: tools/make_ground_rock_models.py"
  },
  "scene": 0,
  "scenes": [
    {
      "nodes": [
        0
      ]
    }
  ],
  "nodes": [
    {
      "mesh": 0,
      "name": "ground_rock_09"
    }
  ],
  "meshes": [
    {
      "name": "ground_rock_09",
      "primitives": [
        {
          "attributes": {
            "POSITION": 0,
            "NORMAL": 1,
            "TEXCOORD_0": 2
          },
          "indices": 3,
          "material": 0,
          "mode": 4
        },
        {
          "attributes": {
            "POSITION": 4,
            "NORMAL": 5,
            "TEXCOORD_0": 6
          },
          "indices": 7,
          "material": 1,
          "mode": 4
        },
        {
          "attributes": {
            "POSITION": 8,
            "NORMAL": 9,
            "TEXCOORD_0": 10
          },
          "indices": 11,
          "material": 2,
          "mode": 4
        },
        {
          "attributes": {
            "POSITION": 12,
            "NORMAL": 13,
            "TEXCOORD_0": 14
          },
          "indices": 15,
          "material": 3,
          "mode": 4
        },
        {
          "attributes": {
            "POSITION": 16,
            "NORMAL": 17,
            "TEXCOORD_0": 18
          },
          "indices": 19,
          "material": 4,
          "mode": 4
        },
        {
          "attributes": {
            "POSITION": 20,
            "NORMAL": 21,
            "TEXCOORD_0": 22
          },
          "indices": 23,
          "material": 5,
          "mode": 4
        },
        {
          "attributes": {
            "POSITION": 24,
            "NORMAL": 25,
            "TEXCOORD_0": 26
          },
          "indices": 27,
          "material": 6,
          "mode": 4
        },
        {
          "attributes": {
            "POSITION": 28,
            "NORMAL": 29,
            "TEXCOORD_0": 30
          },
          "indices": 31,
          "material": 7,
          "mode": 4
        },
        {
          "attributes": {
            "POSITION": 32,
            "NORMAL": 33,
            "TEXCOORD_0": 34
          },
          "indices": 35,
          "material": 8,
          "mode": 4
        },
        {
          "attributes": {
            "POSITION": 36,
            "NORMAL": 37,
            "TEXCOORD_0": 38
          },
          "indices": 39,
          "material": 9,
          "mode": 4
        },
        {
          "attributes": {
            "POSITION": 40,
            "NORMAL": 41,
            "TEXCOORD_0": 42
          },
          "indices": 43,
          "material": 10,
          "mode": 4
        },
        {
          "attributes": {
            "POSITION": 44,
            "NORMAL": 45,
            "TEXCOORD_0": 46
          },
          "indices": 47,
          "material": 11,
          "mode": 4
        },
        {
          "attributes": {
            "POSITION": 48,
            "NORMAL": 49,
            "TEXCOORD_0": 50
          },
          "indices": 51,
          "material": 12,
          "mode": 4
        }
      ]
    }
  ],
  "materials": [
    {
      "name": "Sandstone plate 1",
      "pbrMetallicRoughness": {
        "baseColorFactor": [
          0.85,
          0.8415,
          0.8245,
          1
        ],
        "baseColorTexture": {
          "index": 0
        },
        "metallicFactor": 0,
        "roughnessFactor": 1
      }
    },
    {
      "name": "Sandstone plate 2",
      "pbrMetallicRoughness": {
        "baseColorFactor": [
          0.97,
          0.9602999999999999,
          0.9409,
          1
        ],
        "baseColorTexture": {
          "index": 0
        },
        "metallicFactor": 0,
        "roughnessFactor": 1
      }
    },
    {
      "name": "Sandstone plate 3",
      "pbrMetallicRoughness": {
        "baseColorFactor": [
          0.89,
          0.8811,
          0.8633,
          1
        ],
        "baseColorTexture": {
          "index": 0
        },
        "metallicFactor": 0,
        "roughnessFactor": 1
      }
    },
    {
      "name": "Sandstone plate 4",
      "pbrMetallicRoughness": {
        "baseColorFactor": [
          0.97,
          0.9602999999999999,
          0.9409,
          1
        ],
        "baseColorTexture": {
          "index": 0
        },
        "metallicFactor": 0,
        "roughnessFactor": 1
      }
    },
    {
      "name": "Sandstone plate 5",
      "pbrMetallicRoughness": {
        "baseColorFactor": [
          0.89,
          0.8811,
          0.8633,
          1
        ],
        "baseColorTexture": {
          "index": 0
        },
        "metallicFactor": 0,
        "roughnessFactor": 1
      }
    },
    {
      "name": "Sandstone plate 6",
      "pbrMetallicRoughness": {
        "baseColorFactor": [
          0.95,
          0.9405,
          0.9215,
          1
        ],
        "baseColorTexture": {
          "index": 0
        },
        "metallicFactor": 0,
        "roughnessFactor": 1
      }
    },
    {
      "name": "Sandstone plate 7",
      "pbrMetallicRoughness": {
        "baseColorFactor": [
          0.89,
          0.8811,
          0.8633,
          1
        ],
        "baseColorTexture": {
          "index": 0
        },
        "metallicFactor": 0,
        "roughnessFactor": 1
      }
    },
    {
      "name": "Sandstone plate 8",
      "pbrMetallicRoughness": {
        "baseColorFactor": [
          0.95,
          0.9405,
          0.9215,
          1
        ],
        "baseColorTexture": {
          "index": 0
        },
        "metallicFactor": 0,
        "roughnessFactor": 1
      }
    },
    {
      "name": "Sandstone plate 9",
      "pbrMetallicRoughness": {
        "baseColorFactor": [
          0.87,
          0.8613,
          0.8439,
          1
        ],
        "baseColorTexture": {
          "index": 0
        },
        "metallicFactor": 0,
        "roughnessFactor": 1
      }
    },
    {
      "name": "Sandstone plate 10",
      "pbrMetallicRoughness": {
        "baseColorFactor": [
          0.95,
          0.9405,
          0.9215,
          1
        ],
        "baseColorTexture": {
          "index": 0
        },
        "metallicFactor": 0,
        "roughnessFactor": 1
      }
    },
    {
      "name": "Sandstone plate 11",
      "pbrMetallicRoughness": {
        "baseColorFactor": [
          0.87,
          0.8613,
          0.8439,
          1
        ],
        "baseColorTexture": {
          "index": 0
        },
        "metallicFactor": 0,
        "roughnessFactor": 1
      }
    },
    {
      "name": "Sandstone plate 12",
      "pbrMetallicRoughness": {
        "baseColorFactor": [
          0.91,
          0.9009,
          0.8827,
          1
        ],
        "baseColorTexture": {
          "index": 0
        },
        "metallicFactor": 0,
        "roughnessFactor": 1
      }
    },
    {
      "name": "Sandstone plate 13",
      "pbrMetallicRoughness": {
        "baseColorFactor": [
          0.9,
          0.891,
          0.873,
          1
        ],
        "baseColorTexture": {
          "index": 0
        },
        "metallicFactor": 0,
        "roughnessFactor": 1
      }
    }
  ],
  "images": [
    {
      "uri": "../textures/ground_rock_side.png"
    }
  ],
  "samplers": [
    {
      "magFilter": 9729,
      "minFilter": 9987,
      "wrapS": 10497,
      "wrapT": 10497
    }
  ],
  "textures": [
    {
      "sampler": 0,
      "source": 0
    }
  ],
  "buffers": [
    {
      "uri": "ground_rock_09.bin",
      "byteLength": 240948
    }
  ],
  "bufferViews": [
    {
      "buffer": 0,
      "byteOffset": 0,
      "byteLength": 7200,
      "target": 34962
    },
    {
      "buffer": 0,
      "byteOffset": 7200,
      "byteLength": 7200,
      "target": 34962
    },
    {
      "buffer": 0,
      "byteOffset": 14400,
      "byteLength": 4800,
      "target": 34962
    },
    {
      "buffer": 0,
      "byteOffset": 19200,
      "byteLength": 2400,
      "target": 34963
    },
    {
      "buffer": 0,
      "byteOffset": 21600,
      "byteLength": 6588,
      "target": 34962
    },
    {
      "buffer": 0,
      "byteOffset": 28188,
      "byteLength": 6588,
      "target": 34962
    },
    {
      "buffer": 0,
      "byteOffset": 34776,
      "byteLength": 4392,
      "target": 34962
    },
    {
      "buffer": 0,
      "byteOffset": 39168,
      "byteLength": 2196,
      "target": 34963
    },
    {
      "buffer": 0,
      "byteOffset": 41364,
      "byteLength": 6048,
      "target": 34962
    },
    {
      "buffer": 0,
      "byteOffset": 47412,
      "byteLength": 6048,
      "target": 34962
    },
    {
      "buffer": 0,
      "byteOffset": 53460,
      "byteLength": 4032,
      "target": 34962
    },
    {
      "buffer": 0,
      "byteOffset": 57492,
      "byteLength": 2016,
      "target": 34963
    },
    {
      "buffer": 0,
      "byteOffset": 59508,
      "byteLength": 6048,
      "target": 34962
    },
    {
      "buffer": 0,
      "byteOffset": 65556,
      "byteLength": 6048,
      "target": 34962
    },
    {
      "buffer": 0,
      "byteOffset": 71604,
      "byteLength": 4032,
      "target": 34962
    },
    {
      "buffer": 0,
      "byteOffset": 75636,
      "byteLength": 2016,
      "target": 34963
    },
    {
      "buffer": 0,
      "byteOffset": 77652,
      "byteLength": 7740,
      "target": 34962
    },
    {
      "buffer": 0,
      "byteOffset": 85392,
      "byteLength": 7740,
      "target": 34962
    },
    {
      "buffer": 0,
      "byteOffset": 93132,
      "byteLength": 5160,
      "target": 34962
    },
    {
      "buffer": 0,
      "byteOffset": 98292,
      "byteLength": 2580,
      "target": 34963
    },
    {
      "buffer": 0,
      "byteOffset": 100872,
      "byteLength": 5688,
      "target": 34962
    },
    {
      "buffer": 0,
      "byteOffset": 106560,
      "byteLength": 5688,
      "target": 34962
    },
    {
      "buffer": 0,
      "byteOffset": 112248,
      "byteLength": 3792,
      "target": 34962
    },
    {
      "buffer": 0,
      "byteOffset": 116040,
      "byteLength": 1896,
      "target": 34963
    },
    {
      "buffer": 0,
      "byteOffset": 117936,
      "byteLength": 7380,
      "target": 34962
    },
    {
      "buffer": 0,
      "byteOffset": 125316,
      "byteLength": 7380,
      "target": 34962
    },
    {
      "buffer": 0,
      "byteOffset": 132696,
      "byteLength": 4920,
      "target": 34962
    },
    {
      "buffer": 0,
      "byteOffset": 137616,
      "byteLength": 2460,
      "target": 34963
    },
    {
      "buffer": 0,
      "byteOffset": 140076,
      "byteLength": 6228,
      "target": 34962
    },
    {
      "buffer": 0,
      "byteOffset": 146304,
      "byteLength": 6228,
      "target": 34962
    },
    {
      "buffer": 0,
      "byteOffset": 152532,
      "byteLength": 4152,
      "target": 34962
    },
    {
      "buffer": 0,
      "byteOffset": 156684,
      "byteLength": 2076,
      "target": 34963
    },
    {
      "buffer": 0,
      "byteOffset": 158760,
      "byteLength": 6768,
      "target": 34962
    },
    {
      "buffer": 0,
      "byteOffset": 165528,
      "byteLength": 6768,
      "target": 34962
    },
    {
      "buffer": 0,
      "byteOffset": 172296,
      "byteLength": 4512,
      "target": 34962
    },
    {
      "buffer": 0,
      "byteOffset": 176808,
      "byteLength": 2256,
      "target": 34963
    },
    {
      "buffer": 0,
      "byteOffset": 179064,
      "byteLength": 6768,
      "target": 34962
    },
    {
      "buffer": 0,
      "byteOffset": 185832,
      "byteLength": 6768,
      "target": 34962
    },
    {
      "buffer": 0,
      "byteOffset": 192600,
      "byteLength": 4512,
      "target": 34962
    },
    {
      "buffer": 0,
      "byteOffset": 197112,
      "byteLength": 2256,
      "target": 34963
    },
    {
      "buffer": 0,
      "byteOffset": 199368,
      "byteLength": 6588,
      "target": 34962
    },
    {
      "buffer": 0,
      "byteOffset": 205956,
      "byteLength": 6588,
      "target": 34962
    },
    {
      "buffer": 0,
      "byteOffset": 212544,
      "byteLength": 4392,
      "target": 34962
    },
    {
      "buffer": 0,
      "byteOffset": 216936,
      "byteLength": 2196,
      "target": 34963
    },
    {
      "buffer": 0,
      "byteOffset": 219132,
      "byteLength": 7200,
      "target": 34962
    },
    {
      "buffer": 0,
      "byteOffset": 226332,
      "byteLength": 7200,
      "target": 34962
    },
    {
      "buffer": 0,
      "byteOffset": 233532,
      "byteLength": 4800,
      "target": 34962
    },
    {
      "buffer": 0,
      "byteOffset": 238332,
      "byteLength": 2400,
      "target": 34963
    },
    {
      "buffer": 0,
      "byteOffset": 240732,
      "byteLength": 72,
      "target": 34962
    },
    {
      "buffer": 0,
      "byteOffset": 240804,
      "byteLength": 72,
      "target": 34962
    },
    {
      "buffer": 0,
      "byteOffset": 240876,
      "byteLength": 48,
      "target": 34962
    },
    {
      "buffer": 0,
      "byteOffset": 240924,
      "byteLength": 24,
      "target": 34963
    }
  ],
  "accessors": [
    {
      "bufferView": 0,
      "componentType": 5126,
      "count": 600,
      "type": "VEC3",
      "min": [
        0.0,
        0.0,
        -0.07109833478983907
      ],
      "max": [
        0.47485074626865675,
        1.0,
        -0.0
      ]
    },
    {
      "bufferView": 1,
      "componentType": 5126,
      "count": 600,
      "type": "VEC3",
      "min": [
        -0.6270801980166009,
        -0.9714089667648703,
        0.20167323672192192
      ],
      "max": [
        0.9725875349060572,
        0.8960113146965284,
        0.9999698815111838
      ]
    },
    {
      "bufferView": 2,
      "componentType": 5126,
      "count": 600,
      "type": "VEC2"
    },
    {
      "bufferView": 3,
      "componentType": 5125,
      "count": 600,
      "type": "SCALAR"
    },
    {
      "bufferView": 4,
      "componentType": 5126,
      "count": 549,
      "type": "VEC3",
      "min": [
        0.16569767441860464,
        0.0,
        -0.0693017386609018
      ],
      "max": [
        1.0,
        0.7301738660901799,
        0.017089043349802064
      ]
    },
    {
      "bufferView": 5,
      "componentType": 5126,
      "count": 549,
      "type": "VEC3",
      "min": [
        -0.9507431223528172,
        -0.704462381566811,
        0.17375347449934306
      ],
      "max": [
        0.6950779082814095,
        0.817520115901776,
        0.9999797884504079
      ]
    },
    {
      "bufferView": 6,
      "componentType": 5126,
      "count": 549,
      "type": "VEC2"
    },
    {
      "bufferView": 7,
      "componentType": 5125,
      "count": 549,
      "type": "SCALAR"
    },
    {
      "bufferView": 8,
      "componentType": 5126,
      "count": 504,
      "type": "VEC3",
      "min": [
        0.4696908966595169,
        0.2573076923076922,
        -0.07109833478983907
      ],
      "max": [
        1.0,
        1.0,
        -0.0
      ]
    },
    {
      "bufferView": 9,
      "componentType": 5126,
      "count": 504,
      "type": "VEC3",
      "min": [
        -0.9691939492561525,
        -0.9116253648798139,
        0.24242532153162719
      ],
      "max": [
        0.5071947128447268,
        0.35934992206868,
        0.9998660674646873
      ]
    },
    {
      "bufferView": 10,
      "componentType": 5126,
      "count": 504,
      "type": "VEC2"
    },
    {
      "bufferView": 11,
      "componentType": 5125,
      "count": 504,
      "type": "SCALAR"
    },
    {
      "bufferView": 12,
      "componentType": 5126,
      "count": 504,
      "type": "VEC3",
      "min": [
        0.9329463383670304,
        0.0,
        -1.0
      ],
      "max": [
        1.0157583532066408,
        0.5191796875000001,
        -0.3531176470588235
      ]
    },
    {
      "bufferView": 13,
      "componentType": 5126,
      "count": 504,
      "type": "VEC3",
      "min": [
        0.19726364950232095,
        -0.6400891056933087,
        -0.4241314971015482
      ],
      "max": [
        0.9999871397391661,
        0.9773273980154336,
        0.9470727058357931
      ]
    },
    {
      "bufferView": 14,
      "componentType": 5126,
      "count": 504,
      "type": "VEC2"
    },
    {
      "bufferView": 15,
      "componentType": 5125,
      "count": 504,
      "type": "SCALAR"
    },
    {
      "bufferView": 16,
      "componentType": 5126,
      "count": 645,
      "type": "VEC3",
      "min": [
        0.9293122638562802,
        0.0,
        -0.5227481524947623
      ],
      "max": [
        1.0,
        1.0,
        -0.0
      ]
    },
    {
      "bufferView": 17,
      "componentType": 5126,
      "count": 645,
      "type": "VEC3",
      "min": [
        0.19675049626853341,
        -0.8665576507291662,
        -0.9779320988340896
      ],
      "max": [
        0.9999938939596661,
        0.9379886823807236,
        0.5190239711802733
      ]
    },
    {
      "bufferView": 18,
      "componentType": 5126,
      "count": 645,
      "type": "VEC2"
    },
    {
      "bufferView": 19,
      "componentType": 5125,
      "count": 645,
      "type": "SCALAR"
    },
    {
      "bufferView": 20,
      "componentType": 5126,
      "count": 474,
      "type": "VEC3",
      "min": [
        0.9293122638562801,
        0.4865029346568849,
        -1.0
      ],
      "max": [
        1.010455457344994,
        1.0,
        -0.4780000000000001
      ]
    },
    {
      "bufferView": 21,
      "componentType": 5126,
      "count": 474,
      "type": "VEC3",
      "min": [
        0.10243448597902098,
        -0.9932658212713231,
        -0.3700778515934938
      ],
      "max": [
        0.9999873952798269,
        0.15491936875078605,
        0.9937354264806442
      ]
    },
    {
      "bufferView": 22,
      "componentType": 5126,
      "count": 474,
      "type": "VEC2"
    },
    {
      "bufferView": 23,
      "componentType": 5125,
      "count": 474,
      "type": "SCALAR"
    },
    {
      "bufferView": 24,
      "componentType": 5126,
      "count": 615,
      "type": "VEC3",
      "min": [
        0.538888888888889,
        0.0,
        -1.0
      ],
      "max": [
        1.0,
        1.0,
        -0.9288061586818298
      ]
    },
    {
      "bufferView": 25,
      "componentType": 5126,
      "count": 615,
      "type": "VEC3",
      "min": [
        -0.9616380706025655,
        -0.8546286431860329,
        -0.9999944355075645
      ],
      "max": [
        0.4985582054229644,
        0.9265232778902611,
        -0.21597157248353321
      ]
    },
    {
      "bufferView": 26,
      "componentType": 5126,
      "count": 615,
      "type": "VEC2"
    },
    {
      "bufferView": 27,
      "componentType": 5125,
      "count": 615,
      "type": "SCALAR"
    },
    {
      "bufferView": 28,
      "componentType": 5126,
      "count": 519,
      "type": "VEC3",
      "min": [
        0.0,
        0.0,
        -1.0115733624161083
      ],
      "max": [
        0.5533220852347441,
        0.7510416666666666,
        -0.931641409253211
      ]
    },
    {
      "bufferView": 29,
      "componentType": 5126,
      "count": 519,
      "type": "VEC3",
      "min": [
        -0.4534943121223645,
        -0.8066861952435954,
        -0.9999567447636879
      ],
      "max": [
        0.9919344538497429,
        0.8399154355318531,
        -0.1174618048464077
      ]
    },
    {
      "bufferView": 30,
      "componentType": 5126,
      "count": 519,
      "type": "VEC2"
    },
    {
      "bufferView": 31,
      "componentType": 5125,
      "count": 519,
      "type": "SCALAR"
    },
    {
      "bufferView": 32,
      "componentType": 5126,
      "count": 564,
      "type": "VEC3",
      "min": [
        0.0,
        0.31820811008536215,
        -1.0
      ],
      "max": [
        0.9335714285714286,
        1.0,
        -0.9288061586818298
      ]
    },
    {
      "bufferView": 33,
      "componentType": 5126,
      "count": 564,
      "type": "VEC3",
      "min": [
        -0.6697252511928561,
        -0.8983213792232978,
        -0.9999953524525742
      ],
      "max": [
        0.8809007216402792,
        0.14586126390155654,
        -0.23662317900159413
      ]
    },
    {
      "bufferView": 34,
      "componentType": 5126,
      "count": 564,
      "type": "VEC2"
    },
    {
      "bufferView": 35,
      "componentType": 5125,
      "count": 564,
      "type": "SCALAR"
    },
    {
      "bufferView": 36,
      "componentType": 5126,
      "count": 564,
      "type": "VEC3",
      "min": [
        -0.012311075317097447,
        0.0,
        -0.63115625
      ],
      "max": [
        0.06883065607898686,
        0.8037499999999997,
        -0.0
      ]
    },
    {
      "bufferView": 37,
      "componentType": 5126,
      "count": 564,
      "type": "VEC3",
      "min": [
        -0.999985656098185,
        -0.8102580087099397,
        -0.9372378149893809
      ],
      "max": [
        -0.1101680159476619,
        0.7506082221727854,
        0.4806614877518823
      ]
    },
    {
      "bufferView": 38,
      "componentType": 5126,
      "count": 564,
      "type": "VEC2"
    },
    {
      "bufferView": 39,
      "componentType": 5125,
      "count": 564,
      "type": "SCALAR"
    },
    {
      "bufferView": 40,
      "componentType": 5126,
      "count": 549,
      "type": "VEC3",
      "min": [
        0.0,
        0.21964685145248852,
        -0.7521428571428571
      ],
      "max": [
        0.07097211300075361,
        1.0,
        -0.0
      ]
    },
    {
      "bufferView": 41,
      "componentType": 5126,
      "count": 549,
      "type": "VEC3",
      "min": [
        -0.9999750957286686,
        -0.8233504615676971,
        -0.953019063892818
      ],
      "max": [
        -0.23466871347159618,
        0.13867558109900596,
        0.7704559434018007
      ]
    },
    {
      "bufferView": 42,
      "componentType": 5126,
      "count": 549,
      "type": "VEC2"
    },
    {
      "bufferView": 43,
      "componentType": 5125,
      "count": 549,
      "type": "SCALAR"
    },
    {
      "bufferView": 44,
      "componentType": 5126,
      "count": 600,
      "type": "VEC3",
      "min": [
        -0.02007161887197632,
        0.0,
        -1.0
      ],
      "max": [
        0.07097211300075361,
        1.0,
        -0.559297133599632
      ]
    },
    {
      "bufferView": 45,
      "componentType": 5126,
      "count": 600,
      "type": "VEC3",
      "min": [
        -0.9999891413769731,
        -0.8644869189855515,
        -0.8705874559610621
      ],
      "max": [
        -0.12476384390867727,
        0.5819580844705644,
        0.9898018313762167
      ]
    },
    {
      "bufferView": 46,
      "componentType": 5126,
      "count": 600,
      "type": "VEC2"
    },
    {
      "bufferView": 47,
      "componentType": 5125,
      "count": 600,
      "type": "SCALAR"
    },
    {
      "bufferView": 48,
      "componentType": 5126,
      "count": 6,
      "type": "VEC3",
      "min": [
        0,
        0,
        -1
      ],
      "max": [
        1,
        0,
        0
      ]
    },
    {
      "bufferView": 49,
      "componentType": 5126,
      "count": 6,
      "type": "VEC3",
      "min": [
        0.0,
        -1.0,
        -0.0
      ],
      "max": [
        0.0,
        -1.0,
        -0.0
      ]
    },
    {
      "bufferView": 50,
      "componentType": 5126,
      "count": 6,
      "type": "VEC2"
    },
    {
      "bufferView": 51,
      "componentType": 5125,
      "count": 6,
      "type": "SCALAR"
    }
  ]
}
