{
  "asset": {
    "version": "2.0",
    "generator": "Authored fracture layouts: tools/make_ground_rock_models.py"
  },
  "scene": 0,
  "scenes": [
    {
      "nodes": [
        0
      ]
    }
  ],
  "nodes": [
    {
      "mesh": 0,
      "name": "ground_rock_08"
    }
  ],
  "meshes": [
    {
      "name": "ground_rock_08",
      "primitives": [
        {
          "attributes": {
            "POSITION": 0,
            "NORMAL": 1,
            "TEXCOORD_0": 2
          },
          "indices": 3,
          "material": 0,
          "mode": 4
        },
        {
          "attributes": {
            "POSITION": 4,
            "NORMAL": 5,
            "TEXCOORD_0": 6
          },
          "indices": 7,
          "material": 1,
          "mode": 4
        },
        {
          "attributes": {
            "POSITION": 8,
            "NORMAL": 9,
            "TEXCOORD_0": 10
          },
          "indices": 11,
          "material": 2,
          "mode": 4
        },
        {
          "attributes": {
            "POSITION": 12,
            "NORMAL": 13,
            "TEXCOORD_0": 14
          },
          "indices": 15,
          "material": 3,
          "mode": 4
        },
        {
          "attributes": {
            "POSITION": 16,
            "NORMAL": 17,
            "TEXCOORD_0": 18
          },
          "indices": 19,
          "material": 4,
          "mode": 4
        },
        {
          "attributes": {
            "POSITION": 20,
            "NORMAL": 21,
            "TEXCOORD_0": 22
          },
          "indices": 23,
          "material": 5,
          "mode": 4
        },
        {
          "attributes": {
            "POSITION": 24,
            "NORMAL": 25,
            "TEXCOORD_0": 26
          },
          "indices": 27,
          "material": 6,
          "mode": 4
        },
        {
          "attributes": {
            "POSITION": 28,
            "NORMAL": 29,
            "TEXCOORD_0": 30
          },
          "indices": 31,
          "material": 7,
          "mode": 4
        },
        {
          "attributes": {
            "POSITION": 32,
            "NORMAL": 33,
            "TEXCOORD_0": 34
          },
          "indices": 35,
          "material": 8,
          "mode": 4
        },
        {
          "attributes": {
            "POSITION": 36,
            "NORMAL": 37,
            "TEXCOORD_0": 38
          },
          "indices": 39,
          "material": 9,
          "mode": 4
        },
        {
          "attributes": {
            "POSITION": 40,
            "NORMAL": 41,
            "TEXCOORD_0": 42
          },
          "indices": 43,
          "material": 10,
          "mode": 4
        },
        {
          "attributes": {
            "POSITION": 44,
            "NORMAL": 45,
            "TEXCOORD_0": 46
          },
          "indices": 47,
          "material": 11,
          "mode": 4
        },
        {
          "attributes": {
            "POSITION": 48,
            "NORMAL": 49,
            "TEXCOORD_0": 50
          },
          "indices": 51,
          "material": 12,
          "mode": 4
        },
        {
          "attributes": {
            "POSITION": 52,
            "NORMAL": 53,
            "TEXCOORD_0": 54
          },
          "indices": 55,
          "material": 13,
          "mode": 4
        },
        {
          "attributes": {
            "POSITION": 56,
            "NORMAL": 57,
            "TEXCOORD_0": 58
          },
          "indices": 59,
          "material": 14,
          "mode": 4
        }
      ]
    }
  ],
  "materials": [
    {
      "name": "Sandstone plate 1",
      "pbrMetallicRoughness": {
        "baseColorFactor": [
          0.93,
          0.9207000000000001,
          0.9021,
          1
        ],
        "baseColorTexture": {
          "index": 0
        },
        "metallicFactor": 0,
        "roughnessFactor": 1
      }
    },
    {
      "name": "Sandstone plate 2",
      "pbrMetallicRoughness": {
        "baseColorFactor": [
          0.85,
          0.8415,
          0.8245,
          1
        ],
        "baseColorTexture": {
          "index": 0
        },
        "metallicFactor": 0,
        "roughnessFactor": 1
      }
    },
    {
      "name": "Sandstone plate 3",
      "pbrMetallicRoughness": {
        "baseColorFactor": [
          0.97,
          0.9602999999999999,
          0.9409,
          1
        ],
        "baseColorTexture": {
          "index": 0
        },
        "metallicFactor": 0,
        "roughnessFactor": 1
      }
    },
    {
      "name": "Sandstone plate 4",
      "pbrMetallicRoughness": {
        "baseColorFactor": [
          0.85,
          0.8415,
          0.8245,
          1
        ],
        "baseColorTexture": {
          "index": 0
        },
        "metallicFactor": 0,
        "roughnessFactor": 1
      }
    },
    {
      "name": "Sandstone plate 5",
      "pbrMetallicRoughness": {
        "baseColorFactor": [
          0.97,
          0.9602999999999999,
          0.9409,
          1
        ],
        "baseColorTexture": {
          "index": 0
        },
        "metallicFactor": 0,
        "roughnessFactor": 1
      }
    },
    {
      "name": "Sandstone plate 6",
      "pbrMetallicRoughness": {
        "baseColorFactor": [
          0.89,
          0.8811,
          0.8633,
          1
        ],
        "baseColorTexture": {
          "index": 0
        },
        "metallicFactor": 0,
        "roughnessFactor": 1
      }
    },
    {
      "name": "Sandstone plate 7",
      "pbrMetallicRoughness": {
        "baseColorFactor": [
          0.97,
          0.9602999999999999,
          0.9409,
          1
        ],
        "baseColorTexture": {
          "index": 0
        },
        "metallicFactor": 0,
        "roughnessFactor": 1
      }
    },
    {
      "name": "Sandstone plate 8",
      "pbrMetallicRoughness": {
        "baseColorFactor": [
          0.89,
          0.8811,
          0.8633,
          1
        ],
        "baseColorTexture": {
          "index": 0
        },
        "metallicFactor": 0,
        "roughnessFactor": 1
      }
    },
    {
      "name": "Sandstone plate 9",
      "pbrMetallicRoughness": {
        "baseColorFactor": [
          0.95,
          0.9405,
          0.9215,
          1
        ],
        "baseColorTexture": {
          "index": 0
        },
        "metallicFactor": 0,
        "roughnessFactor": 1
      }
    },
    {
      "name": "Sandstone plate 10",
      "pbrMetallicRoughness": {
        "baseColorFactor": [
          0.87,
          0.8613,
          0.8439,
          1
        ],
        "baseColorTexture": {
          "index": 0
        },
        "metallicFactor": 0,
        "roughnessFactor": 1
      }
    },
    {
      "name": "Sandstone plate 11",
      "pbrMetallicRoughness": {
        "baseColorFactor": [
          0.89,
          0.8811,
          0.8633,
          1
        ],
        "baseColorTexture": {
          "index": 0
        },
        "metallicFactor": 0,
        "roughnessFactor": 1
      }
    },
    {
      "name": "Sandstone plate 12",
      "pbrMetallicRoughness": {
        "baseColorFactor": [
          0.95,
          0.9405,
          0.9215,
          1
        ],
        "baseColorTexture": {
          "index": 0
        },
        "metallicFactor": 0,
        "roughnessFactor": 1
      }
    },
    {
      "name": "Sandstone plate 13",
      "pbrMetallicRoughness": {
        "baseColorFactor": [
          0.87,
          0.8613,
          0.8439,
          1
        ],
        "baseColorTexture": {
          "index": 0
        },
        "metallicFactor": 0,
        "roughnessFactor": 1
      }
    },
    {
      "name": "Sandstone plate 14",
      "pbrMetallicRoughness": {
        "baseColorFactor": [
          0.91,
          0.9009,
          0.8827,
          1
        ],
        "baseColorTexture": {
          "index": 0
        },
        "metallicFactor": 0,
        "roughnessFactor": 1
      }
    },
    {
      "name": "Sandstone plate 15",
      "pbrMetallicRoughness": {
        "baseColorFactor": [
          0.9,
          0.891,
          0.873,
          1
        ],
        "baseColorTexture": {
          "index": 0
        },
        "metallicFactor": 0,
        "roughnessFactor": 1
      }
    }
  ],
  "images": [
    {
      "uri": "../textures/ground_rock_side.png"
    }
  ],
  "samplers": [
    {
      "magFilter": 9729,
      "minFilter": 9987,
      "wrapS": 10497,
      "wrapT": 10497
    }
  ],
  "textures": [
    {
      "sampler": 0,
      "source": 0
    }
  ],
  "buffers": [
    {
      "uri": "ground_rock_08.bin",
      "byteLength": 271728
    }
  ],
  "bufferViews": [
    {
      "buffer": 0,
      "byteOffset": 0,
      "byteLength": 6768,
      "target": 34962
    },
    {
      "buffer": 0,
      "byteOffset": 6768,
      "byteLength": 6768,
      "target": 34962
    },
    {
      "buffer": 0,
      "byteOffset": 13536,
      "byteLength": 4512,
      "target": 34962
    },
    {
      "buffer": 0,
      "byteOffset": 18048,
      "byteLength": 2256,
      "target": 34963
    },
    {
      "buffer": 0,
      "byteOffset": 20304,
      "byteLength": 6588,
      "target": 34962
    },
    {
      "buffer": 0,
      "byteOffset": 26892,
      "byteLength": 6588,
      "target": 34962
    },
    {
      "buffer": 0,
      "byteOffset": 33480,
      "byteLength": 4392,
      "target": 34962
    },
    {
      "buffer": 0,
      "byteOffset": 37872,
      "byteLength": 2196,
      "target": 34963
    },
    {
      "buffer": 0,
      "byteOffset": 40068,
      "byteLength": 7200,
      "target": 34962
    },
    {
      "buffer": 0,
      "byteOffset": 47268,
      "byteLength": 7200,
      "target": 34962
    },
    {
      "buffer": 0,
      "byteOffset": 54468,
      "byteLength": 4800,
      "target": 34962
    },
    {
      "buffer": 0,
      "byteOffset": 59268,
      "byteLength": 2400,
      "target": 34963
    },
    {
      "buffer": 0,
      "byteOffset": 61668,
      "byteLength": 6408,
      "target": 34962
    },
    {
      "buffer": 0,
      "byteOffset": 68076,
      "byteLength": 6408,
      "target": 34962
    },
    {
      "buffer": 0,
      "byteOffset": 74484,
      "byteLength": 4272,
      "target": 34962
    },
    {
      "buffer": 0,
      "byteOffset": 78756,
      "byteLength": 2136,
      "target": 34963
    },
    {
      "buffer": 0,
      "byteOffset": 80892,
      "byteLength": 7560,
      "target": 34962
    },
    {
      "buffer": 0,
      "byteOffset": 88452,
      "byteLength": 7560,
      "target": 34962
    },
    {
      "buffer": 0,
      "byteOffset": 96012,
      "byteLength": 5040,
      "target": 34962
    },
    {
      "buffer": 0,
      "byteOffset": 101052,
      "byteLength": 2520,
      "target": 34963
    },
    {
      "buffer": 0,
      "byteOffset": 103572,
      "byteLength": 6588,
      "target": 34962
    },
    {
      "buffer": 0,
      "byteOffset": 110160,
      "byteLength": 6588,
      "target": 34962
    },
    {
      "buffer": 0,
      "byteOffset": 116748,
      "byteLength": 4392,
      "target": 34962
    },
    {
      "buffer": 0,
      "byteOffset": 121140,
      "byteLength": 2196,
      "target": 34963
    },
    {
      "buffer": 0,
      "byteOffset": 123336,
      "byteLength": 5868,
      "target": 34962
    },
    {
      "buffer": 0,
      "byteOffset": 129204,
      "byteLength": 5868,
      "target": 34962
    },
    {
      "buffer": 0,
      "byteOffset": 135072,
      "byteLength": 3912,
      "target": 34962
    },
    {
      "buffer": 0,
      "byteOffset": 138984,
      "byteLength": 1956,
      "target": 34963
    },
    {
      "buffer": 0,
      "byteOffset": 140940,
      "byteLength": 6840,
      "target": 34962
    },
    {
      "buffer": 0,
      "byteOffset": 147780,
      "byteLength": 6840,
      "target": 34962
    },
    {
      "buffer": 0,
      "byteOffset": 154620,
      "byteLength": 4560,
      "target": 34962
    },
    {
      "buffer": 0,
      "byteOffset": 159180,
      "byteLength": 2280,
      "target": 34963
    },
    {
      "buffer": 0,
      "byteOffset": 161460,
      "byteLength": 6480,
      "target": 34962
    },
    {
      "buffer": 0,
      "byteOffset": 167940,
      "byteLength": 6480,
      "target": 34962
    },
    {
      "buffer": 0,
      "byteOffset": 174420,
      "byteLength": 4320,
      "target": 34962
    },
    {
      "buffer": 0,
      "byteOffset": 178740,
      "byteLength": 2160,
      "target": 34963
    },
    {
      "buffer": 0,
      "byteOffset": 180900,
      "byteLength": 5508,
      "target": 34962
    },
    {
      "buffer": 0,
      "byteOffset": 186408,
      "byteLength": 5508,
      "target": 34962
    },
    {
      "buffer": 0,
      "byteOffset": 191916,
      "byteLength": 3672,
      "target": 34962
    },
    {
      "buffer": 0,
      "byteOffset": 195588,
      "byteLength": 1836,
      "target": 34963
    },
    {
      "buffer": 0,
      "byteOffset": 197424,
      "byteLength": 5508,
      "target": 34962
    },
    {
      "buffer": 0,
      "byteOffset": 202932,
      "byteLength": 5508,
      "target": 34962
    },
    {
      "buffer": 0,
      "byteOffset": 208440,
      "byteLength": 3672,
      "target": 34962
    },
    {
      "buffer": 0,
      "byteOffset": 212112,
      "byteLength": 1836,
      "target": 34963
    },
    {
      "buffer": 0,
      "byteOffset": 213948,
      "byteLength": 6660,
      "target": 34962
    },
    {
      "buffer": 0,
      "byteOffset": 220608,
      "byteLength": 6660,
      "target": 34962
    },
    {
      "buffer": 0,
      "byteOffset": 227268,
      "byteLength": 4440,
      "target": 34962
    },
    {
      "buffer": 0,
      "byteOffset": 231708,
      "byteLength": 2220,
      "target": 34963
    },
    {
      "buffer": 0,
      "byteOffset": 233928,
      "byteLength": 6120,
      "target": 34962
    },
    {
      "buffer": 0,
      "byteOffset": 240048,
      "byteLength": 6120,
      "target": 34962
    },
    {
      "buffer": 0,
      "byteOffset": 246168,
      "byteLength": 4080,
      "target": 34962
    },
    {
      "buffer": 0,
      "byteOffset": 250248,
      "byteLength": 2040,
      "target": 34963
    },
    {
      "buffer": 0,
      "byteOffset": 252288,
      "byteLength": 6408,
      "target": 34962
    },
    {
      "buffer": 0,
      "byteOffset": 258696,
      "byteLength": 6408,
      "target": 34962
    },
    {
      "buffer": 0,
      "byteOffset": 265104,
      "byteLength": 4272,
      "target": 34962
    },
    {
      "buffer": 0,
      "byteOffset": 269376,
      "byteLength": 2136,
      "target": 34963
    },
    {
      "buffer": 0,
      "byteOffset": 271512,
      "byteLength": 72,
      "target": 34962
    },
    {
      "buffer": 0,
      "byteOffset": 271584,
      "byteLength": 72,
      "target": 34962
    },
    {
      "buffer": 0,
      "byteOffset": 271656,
      "byteLength": 48,
      "target": 34962
    },
    {
      "buffer": 0,
      "byteOffset": 271704,
      "byteLength": 24,
      "target": 34963
    }
  ],
  "accessors": [
    {
      "bufferView": 0,
      "componentType": 5126,
      "count": 564,
      "type": "VEC3",
      "min": [
        0.36884375,
        0.0,
        -0.06880090349321302
      ],
      "max": [
        1.0,
        0.8037499999999997,
        -0.0
      ]
    },
    {
      "bufferView": 1,
      "componentType": 5126,
      "count": 564,
      "type": "VEC3",
      "min": [
        -0.9496352982171953,
        -0.12874267406468165,
        0.19093019196539493
      ],
      "max": [
        0.16330724619038064,
        0.8115005605780795,
        0.9999524702254464
      ]
    },
    {
      "bufferView": 2,
      "componentType": 5126,
      "count": 564,
      "type": "VEC2"
    },
    {
      "bufferView": 3,
      "componentType": 5125,
      "count": 564,
      "type": "SCALAR"
    },
    {
      "bufferView": 4,
      "componentType": 5126,
      "count": 549,
      "type": "VEC3",
      "min": [
        0.2478571428571429,
        0.23070310970216348,
        -0.0709634483771421
      ],
      "max": [
        1.0,
        1.0,
        -0.0
      ]
    },
    {
      "bufferView": 5,
      "componentType": 5126,
      "count": 549,
      "type": "VEC3",
      "min": [
        -0.9681705233974474,
        -0.9675424856609423,
        0.20777026753334965
      ],
      "max": [
        0.7805821988605326,
        0.3525133346480816,
        0.9999597564876559
      ]
    },
    {
      "bufferView": 6,
      "componentType": 5126,
      "count": 549,
      "type": "VEC2"
    },
    {
      "bufferView": 7,
      "componentType": 5125,
      "count": 549,
      "type": "SCALAR"
    },
    {
      "bufferView": 8,
      "componentType": 5126,
      "count": 600,
      "type": "VEC3",
      "min": [
        0.0,
        0.0,
        -0.0709634483771421
      ],
      "max": [
        0.4178578098598605,
        1.0,
        0.015484803197255386
      ]
    },
    {
      "bufferView": 9,
      "componentType": 5126,
      "count": 600,
      "type": "VEC3",
      "min": [
        -0.6839629394415233,
        -0.6797870043787414,
        0.19511245586338552
      ],
      "max": [
        0.9757972377824331,
        0.4045382951900395,
        0.9999974274789992
      ]
    },
    {
      "bufferView": 10,
      "componentType": 5126,
      "count": 600,
      "type": "VEC2"
    },
    {
      "bufferView": 11,
      "componentType": 5125,
      "count": 600,
      "type": "SCALAR"
    },
    {
      "bufferView": 12,
      "componentType": 5126,
      "count": 534,
      "type": "VEC3",
      "min": [
        0.9306494231355499,
        0.0,
        -0.49863840887681904
      ],
      "max": [
        1.0,
        0.8715624999999999,
        -0.0
      ]
    },
    {
      "bufferView": 13,
      "componentType": 5126,
      "count": 534,
      "type": "VEC3",
      "min": [
        0.20653157094783034,
        -0.6177399283216899,
        -0.9780054829670105
      ],
      "max": [
        0.9999521945487199,
        0.9200255186623962,
        0.42596576295092653
      ]
    },
    {
      "bufferView": 14,
      "componentType": 5126,
      "count": 534,
      "type": "VEC2"
    },
    {
      "bufferView": 15,
      "componentType": 5125,
      "count": 534,
      "type": "SCALAR"
    },
    {
      "bufferView": 16,
      "componentType": 5126,
      "count": 630,
      "type": "VEC3",
      "min": [
        0.9288421635459956,
        0.0,
        -1.0
      ],
      "max": [
        1.016850951197454,
        1.0,
        -0.48129010461951727
      ]
    },
    {
      "bufferView": 17,
      "componentType": 5126,
      "count": 630,
      "type": "VEC3",
      "min": [
        0.19324069859287768,
        -0.6756868903803314,
        -0.5335536479354799
      ],
      "max": [
        0.9999907794428805,
        0.6038204175491119,
        0.9797783580115472
      ]
    },
    {
      "bufferView": 18,
      "componentType": 5126,
      "count": 630,
      "type": "VEC2"
    },
    {
      "bufferView": 19,
      "componentType": 5125,
      "count": 630,
      "type": "SCALAR"
    },
    {
      "bufferView": 20,
      "componentType": 5126,
      "count": 549,
      "type": "VEC3",
      "min": [
        0.9288421635459956,
        0.36772782814275307,
        -0.8989999999999999
      ],
      "max": [
        1.0,
        1.0,
        -0.0
      ]
    },
    {
      "bufferView": 21,
      "componentType": 5126,
      "count": 549,
      "type": "VEC3",
      "min": [
        0.1980876945421069,
        -0.9191322293336187,
        -0.9314636144099352
      ],
      "max": [
        0.9999899273068178,
        0.3750714152967736,
        0.7362204447942607
      ]
    },
    {
      "bufferView": 22,
      "componentType": 5126,
      "count": 549,
      "type": "VEC2"
    },
    {
      "bufferView": 23,
      "componentType": 5125,
      "count": 549,
      "type": "SCALAR"
    },
    {
      "bufferView": 24,
      "componentType": 5126,
      "count": 489,
      "type": "VEC3",
      "min": [
        0.0,
        0.0,
        -1.0149337105947236
      ],
      "max": [
        0.5573214285714286,
        0.49689540132606724,
        -0.9330310459867394
      ]
    },
    {
      "bufferView": 25,
      "componentType": 5126,
      "count": 489,
      "type": "VEC3",
      "min": [
        -0.41040388911290243,
        -0.6720262919936627,
        -0.99999669384963
      ],
      "max": [
        0.9778543958269563,
        0.9751943569334521,
        -0.20441951284059526
      ]
    },
    {
      "bufferView": 26,
      "componentType": 5126,
      "count": 489,
      "type": "VEC2"
    },
    {
      "bufferView": 27,
      "componentType": 5125,
      "count": 489,
      "type": "SCALAR"
    },
    {
      "bufferView": 28,
      "componentType": 5126,
      "count": 570,
      "type": "VEC3",
      "min": [
        0.5007794066226525,
        0.0,
        -1.0
      ],
      "max": [
        1.0,
        0.6886363636363637,
        -0.93134579415033
      ]
    },
    {
      "bufferView": 29,
      "componentType": 5126,
      "count": 570,
      "type": "VEC3",
      "min": [
        -0.9987079381257671,
        -0.7770695507545967,
        -0.9999964874505958
      ],
      "max": [
        0.8904604899831775,
        0.9974817099885959,
        -0.04336187092081942
      ]
    },
    {
      "bufferView": 30,
      "componentType": 5126,
      "count": 570,
      "type": "VEC2"
    },
    {
      "bufferView": 31,
      "componentType": 5125,
      "count": 570,
      "type": "SCALAR"
    },
    {
      "bufferView": 32,
      "componentType": 5126,
      "count": 540,
      "type": "VEC3",
      "min": [
        0.0,
        0.4751188161072249,
        -1.0099062966798578
      ],
      "max": [
        0.5012270490613022,
        1.0,
        -0.9290061733016524
      ]
    },
    {
      "bufferView": 33,
      "componentType": 5126,
      "count": 540,
      "type": "VEC3",
      "min": [
        -0.8299377562102436,
        -0.9993634862140143,
        -0.9998595578686043
      ],
      "max": [
        0.998620935681025,
        0.2290334229699973,
        -0.03180935971355677
      ]
    },
    {
      "bufferView": 34,
      "componentType": 5126,
      "count": 540,
      "type": "VEC2"
    },
    {
      "bufferView": 35,
      "componentType": 5125,
      "count": 540,
      "type": "SCALAR"
    },
    {
      "bufferView": 36,
      "componentType": 5126,
      "count": 459,
      "type": "VEC3",
      "min": [
        0.46588042515076666,
        0.5003791434974058,
        -1.0
      ],
      "max": [
        1.0,
        1.0,
        -0.9290061733016524
      ]
    },
    {
      "bufferView": 37,
      "componentType": 5126,
      "count": 459,
      "type": "VEC3",
      "min": [
        -0.9649395192568676,
        -0.9495632061848175,
        -0.9999490340645929
      ],
      "max": [
        0.45460130153717554,
        0.36420504922481534,
        -0.2558072479409763
      ]
    },
    {
      "bufferView": 38,
      "componentType": 5126,
      "count": 459,
      "type": "VEC2"
    },
    {
      "bufferView": 39,
      "componentType": 5125,
      "count": 459,
      "type": "SCALAR"
    },
    {
      "bufferView": 40,
      "componentType": 5126,
      "count": 459,
      "type": "VEC3",
      "min": [
        0.0,
        0.0,
        -1.0
      ],
      "max": [
        0.06815462859443572,
        0.647198275862069,
        -0.5874527966838923
      ]
    },
    {
      "bufferView": 41,
      "componentType": 5126,
      "count": 459,
      "type": "VEC3",
      "min": [
        -0.9999623489479825,
        -0.4273199196314453,
        -0.4900695881050041
      ],
      "max": [
        -0.2067027126510395,
        0.9188960620236146,
        0.9704022353544081
      ]
    },
    {
      "bufferView": 42,
      "componentType": 5126,
      "count": 459,
      "type": "VEC2"
    },
    {
      "bufferView": 43,
      "componentType": 5125,
      "count": 459,
      "type": "SCALAR"
    },
    {
      "bufferView": 44,
      "componentType": 5126,
      "count": 555,
      "type": "VEC3",
      "min": [
        -0.010792085588721287,
        0.0,
        -0.6443181818181818
      ],
      "max": [
        0.06840338212007407,
        0.6403382120074081,
        -0.0
      ]
    },
    {
      "bufferView": 45,
      "componentType": 5126,
      "count": 555,
      "type": "VEC3",
      "min": [
        -0.9999592720922709,
        -0.7823510692249404,
        -0.9838595152330103
      ],
      "max": [
        -0.11399855716348278,
        0.8927194441412113,
        0.7988813254944308
      ]
    },
    {
      "bufferView": 46,
      "componentType": 5126,
      "count": 555,
      "type": "VEC2"
    },
    {
      "bufferView": 47,
      "componentType": 5125,
      "count": 555,
      "type": "SCALAR"
    },
    {
      "bufferView": 48,
      "componentType": 5126,
      "count": 510,
      "type": "VEC3",
      "min": [
        0.0,
        0.4488734086940777,
        -1.0
      ],
      "max": [
        0.07107368628083807,
        1.0,
        -0.43368965517241387
      ]
    },
    {
      "bufferView": 49,
      "componentType": 5126,
      "count": 510,
      "type": "VEC3",
      "min": [
        -0.9999602767491722,
        -0.916714082782548,
        -0.4689974688103902
      ],
      "max": [
        -0.2448089505473944,
        0.35338781713305134,
        0.9673823878714276
      ]
    },
    {
      "bufferView": 50,
      "componentType": 5126,
      "count": 510,
      "type": "VEC2"
    },
    {
      "bufferView": 51,
      "componentType": 5125,
      "count": 510,
      "type": "SCALAR"
    },
    {
      "bufferView": 52,
      "componentType": 5126,
      "count": 534,
      "type": "VEC3",
      "min": [
        -0.016488735707147466,
        0.13013888888888872,
        -0.47599598190202097
      ],
      "max": [
        0.07107368628083807,
        1.0,
        -0.0
      ]
    },
    {
      "bufferView": 53,
      "componentType": 5126,
      "count": 534,
      "type": "VEC3",
      "min": [
        -0.9999487000876072,
        -0.7716461506875956,
        -0.9925914028277827
      ],
      "max": [
        -0.11604967290894722,
        0.6932083544551892,
        0.8065469464081428
      ]
    },
    {
      "bufferView": 54,
      "componentType": 5126,
      "count": 534,
      "type": "VEC2"
    },
    {
      "bufferView": 55,
      "componentType": 5125,
      "count": 534,
      "type": "SCALAR"
    },
    {
      "bufferView": 56,
      "componentType": 5126,
      "count": 6,
      "type": "VEC3",
      "min": [
        0,
        0,
        -1
      ],
      "max": [
        1,
        0,
        0
      ]
    },
    {
      "bufferView": 57,
      "componentType": 5126,
      "count": 6,
      "type": "VEC3",
      "min": [
        0.0,
        -1.0,
        -0.0
      ],
      "max": [
        0.0,
        -1.0,
        -0.0
      ]
    },
    {
      "bufferView": 58,
      "componentType": 5126,
      "count": 6,
      "type": "VEC2"
    },
    {
      "bufferView": 59,
      "componentType": 5125,
      "count": 6,
      "type": "SCALAR"
    }
  ]
}
