{
  "asset": {
    "version": "2.0",
    "generator": "Authored fracture layouts: tools/make_ground_rock_models.py"
  },
  "scene": 0,
  "scenes": [
    {
      "nodes": [
        0
      ]
    }
  ],
  "nodes": [
    {
      "mesh": 0,
      "name": "ground_rock_04"
    }
  ],
  "meshes": [
    {
      "name": "ground_rock_04",
      "primitives": [
        {
          "attributes": {
            "POSITION": 0,
            "NORMAL": 1,
            "TEXCOORD_0": 2
          },
          "indices": 3,
          "material": 0,
          "mode": 4
        },
        {
          "attributes": {
            "POSITION": 4,
            "NORMAL": 5,
            "TEXCOORD_0": 6
          },
          "indices": 7,
          "material": 1,
          "mode": 4
        },
        {
          "attributes": {
            "POSITION": 8,
            "NORMAL": 9,
            "TEXCOORD_0": 10
          },
          "indices": 11,
          "material": 2,
          "mode": 4
        },
        {
          "attributes": {
            "POSITION": 12,
            "NORMAL": 13,
            "TEXCOORD_0": 14
          },
          "indices": 15,
          "material": 3,
          "mode": 4
        },
        {
          "attributes": {
            "POSITION": 16,
            "NORMAL": 17,
            "TEXCOORD_0": 18
          },
          "indices": 19,
          "material": 4,
          "mode": 4
        },
        {
          "attributes": {
            "POSITION": 20,
            "NORMAL": 21,
            "TEXCOORD_0": 22
          },
          "indices": 23,
          "material": 5,
          "mode": 4
        },
        {
          "attributes": {
            "POSITION": 24,
            "NORMAL": 25,
            "TEXCOORD_0": 26
          },
          "indices": 27,
          "material": 6,
          "mode": 4
        },
        {
          "attributes": {
            "POSITION": 28,
            "NORMAL": 29,
            "TEXCOORD_0": 30
          },
          "indices": 31,
          "material": 7,
          "mode": 4
        },
        {
          "attributes": {
            "POSITION": 32,
            "NORMAL": 33,
            "TEXCOORD_0": 34
          },
          "indices": 35,
          "material": 8,
          "mode": 4
        },
        {
          "attributes": {
            "POSITION": 36,
            "NORMAL": 37,
            "TEXCOORD_0": 38
          },
          "indices": 39,
          "material": 9,
          "mode": 4
        },
        {
          "attributes": {
            "POSITION": 40,
            "NORMAL": 41,
            "TEXCOORD_0": 42
          },
          "indices": 43,
          "material": 10,
          "mode": 4
        },
        {
          "attributes": {
            "POSITION": 44,
            "NORMAL": 45,
            "TEXCOORD_0": 46
          },
          "indices": 47,
          "material": 11,
          "mode": 4
        },
        {
          "attributes": {
            "POSITION": 48,
            "NORMAL": 49,
            "TEXCOORD_0": 50
          },
          "indices": 51,
          "material": 12,
          "mode": 4
        },
        {
          "attributes": {
            "POSITION": 52,
            "NORMAL": 53,
            "TEXCOORD_0": 54
          },
          "indices": 55,
          "material": 13,
          "mode": 4
        },
        {
          "attributes": {
            "POSITION": 56,
            "NORMAL": 57,
            "TEXCOORD_0": 58
          },
          "indices": 59,
          "material": 14,
          "mode": 4
        },
        {
          "attributes": {
            "POSITION": 60,
            "NORMAL": 61,
            "TEXCOORD_0": 62
          },
          "indices": 63,
          "material": 15,
          "mode": 4
        },
        {
          "attributes": {
            "POSITION": 64,
            "NORMAL": 65,
            "TEXCOORD_0": 66
          },
          "indices": 67,
          "material": 16,
          "mode": 4
        },
        {
          "attributes": {
            "POSITION": 68,
            "NORMAL": 69,
            "TEXCOORD_0": 70
          },
          "indices": 71,
          "material": 17,
          "mode": 4
        },
        {
          "attributes": {
            "POSITION": 72,
            "NORMAL": 73,
            "TEXCOORD_0": 74
          },
          "indices": 75,
          "material": 18,
          "mode": 4
        },
        {
          "attributes": {
            "POSITION": 76,
            "NORMAL": 77,
            "TEXCOORD_0": 78
          },
          "indices": 79,
          "material": 19,
          "mode": 4
        },
        {
          "attributes": {
            "POSITION": 80,
            "NORMAL": 81,
            "TEXCOORD_0": 82
          },
          "indices": 83,
          "material": 20,
          "mode": 4
        },
        {
          "attributes": {
            "POSITION": 84,
            "NORMAL": 85,
            "TEXCOORD_0": 86
          },
          "indices": 87,
          "material": 21,
          "mode": 4
        },
        {
          "attributes": {
            "POSITION": 88,
            "NORMAL": 89,
            "TEXCOORD_0": 90
          },
          "indices": 91,
          "material": 22,
          "mode": 4
        },
        {
          "attributes": {
            "POSITION": 92,
            "NORMAL": 93,
            "TEXCOORD_0": 94
          },
          "indices": 95,
          "material": 23,
          "mode": 4
        },
        {
          "attributes": {
            "POSITION": 96,
            "NORMAL": 97,
            "TEXCOORD_0": 98
          },
          "indices": 99,
          "material": 24,
          "mode": 4
        },
        {
          "attributes": {
            "POSITION": 100,
            "NORMAL": 101,
            "TEXCOORD_0": 102
          },
          "indices": 103,
          "material": 25,
          "mode": 4
        },
        {
          "attributes": {
            "POSITION": 104,
            "NORMAL": 105,
            "TEXCOORD_0": 106
          },
          "indices": 107,
          "material": 26,
          "mode": 4
        },
        {
          "attributes": {
            "POSITION": 108,
            "NORMAL": 109,
            "TEXCOORD_0": 110
          },
          "indices": 111,
          "material": 27,
          "mode": 4
        }
      ]
    }
  ],
  "materials": [
    {
      "name": "Sandstone plate 1",
      "pbrMetallicRoughness": {
        "baseColorFactor": [
          0.89,
          0.8811,
          0.8633,
          1
        ],
        "baseColorTexture": {
          "index": 0
        },
        "metallicFactor": 0,
        "roughnessFactor": 1
      }
    },
    {
      "name": "Sandstone plate 2",
      "pbrMetallicRoughness": {
        "baseColorFactor": [
          0.95,
          0.9405,
          0.9215,
          1
        ],
        "baseColorTexture": {
          "index": 0
        },
        "metallicFactor": 0,
        "roughnessFactor": 1
      }
    },
    {
      "name": "Sandstone plate 3",
      "pbrMetallicRoughness": {
        "baseColorFactor": [
          0.87,
          0.8613,
          0.8439,
          1
        ],
        "baseColorTexture": {
          "index": 0
        },
        "metallicFactor": 0,
        "roughnessFactor": 1
      }
    },
    {
      "name": "Sandstone plate 4",
      "pbrMetallicRoughness": {
        "baseColorFactor": [
          0.91,
          0.9009,
          0.8827,
          1
        ],
        "baseColorTexture": {
          "index": 0
        },
        "metallicFactor": 0,
        "roughnessFactor": 1
      }
    },
    {
      "name": "Sandstone plate 5",
      "pbrMetallicRoughness": {
        "baseColorFactor": [
          0.93,
          0.9207000000000001,
          0.9021,
          1
        ],
        "baseColorTexture": {
          "index": 0
        },
        "metallicFactor": 0,
        "roughnessFactor": 1
      }
    },
    {
      "name": "Sandstone plate 6",
      "pbrMetallicRoughness": {
        "baseColorFactor": [
          0.85,
          0.8415,
          0.8245,
          1
        ],
        "baseColorTexture": {
          "index": 0
        },
        "metallicFactor": 0,
        "roughnessFactor": 1
      }
    },
    {
      "name": "Sandstone plate 7",
      "pbrMetallicRoughness": {
        "baseColorFactor": [
          0.95,
          0.9405,
          0.9215,
          1
        ],
        "baseColorTexture": {
          "index": 0
        },
        "metallicFactor": 0,
        "roughnessFactor": 1
      }
    },
    {
      "name": "Sandstone plate 8",
      "pbrMetallicRoughness": {
        "baseColorFactor": [
          0.87,
          0.8613,
          0.8439,
          1
        ],
        "baseColorTexture": {
          "index": 0
        },
        "metallicFactor": 0,
        "roughnessFactor": 1
      }
    },
    {
      "name": "Sandstone plate 9",
      "pbrMetallicRoughness": {
        "baseColorFactor": [
          0.91,
          0.9009,
          0.8827,
          1
        ],
        "baseColorTexture": {
          "index": 0
        },
        "metallicFactor": 0,
        "roughnessFactor": 1
      }
    },
    {
      "name": "Sandstone plate 10",
      "pbrMetallicRoughness": {
        "baseColorFactor": [
          0.93,
          0.9207000000000001,
          0.9021,
          1
        ],
        "baseColorTexture": {
          "index": 0
        },
        "metallicFactor": 0,
        "roughnessFactor": 1
      }
    },
    {
      "name": "Sandstone plate 11",
      "pbrMetallicRoughness": {
        "baseColorFactor": [
          0.85,
          0.8415,
          0.8245,
          1
        ],
        "baseColorTexture": {
          "index": 0
        },
        "metallicFactor": 0,
        "roughnessFactor": 1
      }
    },
    {
      "name": "Sandstone plate 12",
      "pbrMetallicRoughness": {
        "baseColorFactor": [
          0.97,
          0.9602999999999999,
          0.9409,
          1
        ],
        "baseColorTexture": {
          "index": 0
        },
        "metallicFactor": 0,
        "roughnessFactor": 1
      }
    },
    {
      "name": "Sandstone plate 13",
      "pbrMetallicRoughness": {
        "baseColorFactor": [
          0.89,
          0.8811,
          0.8633,
          1
        ],
        "baseColorTexture": {
          "index": 0
        },
        "metallicFactor": 0,
        "roughnessFactor": 1
      }
    },
    {
      "name": "Sandstone plate 14",
      "pbrMetallicRoughness": {
        "baseColorFactor": [
          0.87,
          0.8613,
          0.8439,
          1
        ],
        "baseColorTexture": {
          "index": 0
        },
        "metallicFactor": 0,
        "roughnessFactor": 1
      }
    },
    {
      "name": "Sandstone plate 15",
      "pbrMetallicRoughness": {
        "baseColorFactor": [
          0.91,
          0.9009,
          0.8827,
          1
        ],
        "baseColorTexture": {
          "index": 0
        },
        "metallicFactor": 0,
        "roughnessFactor": 1
      }
    },
    {
      "name": "Sandstone plate 16",
      "pbrMetallicRoughness": {
        "baseColorFactor": [
          0.93,
          0.9207000000000001,
          0.9021,
          1
        ],
        "baseColorTexture": {
          "index": 0
        },
        "metallicFactor": 0,
        "roughnessFactor": 1
      }
    },
    {
      "name": "Sandstone plate 17",
      "pbrMetallicRoughness": {
        "baseColorFactor": [
          0.85,
          0.8415,
          0.8245,
          1
        ],
        "baseColorTexture": {
          "index": 0
        },
        "metallicFactor": 0,
        "roughnessFactor": 1
      }
    },
    {
      "name": "Sandstone plate 18",
      "pbrMetallicRoughness": {
        "baseColorFactor": [
          0.97,
          0.9602999999999999,
          0.9409,
          1
        ],
        "baseColorTexture": {
          "index": 0
        },
        "metallicFactor": 0,
        "roughnessFactor": 1
      }
    },
    {
      "name": "Sandstone plate 19",
      "pbrMetallicRoughness": {
        "baseColorFactor": [
          0.89,
          0.8811,
          0.8633,
          1
        ],
        "baseColorTexture": {
          "index": 0
        },
        "metallicFactor": 0,
        "roughnessFactor": 1
      }
    },
    {
      "name": "Sandstone plate 20",
      "pbrMetallicRoughness": {
        "baseColorFactor": [
          0.95,
          0.9405,
          0.9215,
          1
        ],
        "baseColorTexture": {
          "index": 0
        },
        "metallicFactor": 0,
        "roughnessFactor": 1
      }
    },
    {
      "name": "Sandstone plate 21",
      "pbrMetallicRoughness": {
        "baseColorFactor": [
          0.91,
          0.9009,
          0.8827,
          1
        ],
        "baseColorTexture": {
          "index": 0
        },
        "metallicFactor": 0,
        "roughnessFactor": 1
      }
    },
    {
      "name": "Sandstone plate 22",
      "pbrMetallicRoughness": {
        "baseColorFactor": [
          0.93,
          0.9207000000000001,
          0.9021,
          1
        ],
        "baseColorTexture": {
          "index": 0
        },
        "metallicFactor": 0,
        "roughnessFactor": 1
      }
    },
    {
      "name": "Sandstone plate 23",
      "pbrMetallicRoughness": {
        "baseColorFactor": [
          0.85,
          0.8415,
          0.8245,
          1
        ],
        "baseColorTexture": {
          "index": 0
        },
        "metallicFactor": 0,
        "roughnessFactor": 1
      }
    },
    {
      "name": "Sandstone plate 24",
      "pbrMetallicRoughness": {
        "baseColorFactor": [
          0.97,
          0.9602999999999999,
          0.9409,
          1
        ],
        "baseColorTexture": {
          "index": 0
        },
        "metallicFactor": 0,
        "roughnessFactor": 1
      }
    },
    {
      "name": "Sandstone plate 25",
      "pbrMetallicRoughness": {
        "baseColorFactor": [
          0.89,
          0.8811,
          0.8633,
          1
        ],
        "baseColorTexture": {
          "index": 0
        },
        "metallicFactor": 0,
        "roughnessFactor": 1
      }
    },
    {
      "name": "Sandstone plate 26",
      "pbrMetallicRoughness": {
        "baseColorFactor": [
          0.95,
          0.9405,
          0.9215,
          1
        ],
        "baseColorTexture": {
          "index": 0
        },
        "metallicFactor": 0,
        "roughnessFactor": 1
      }
    },
    {
      "name": "Sandstone plate 27",
      "pbrMetallicRoughness": {
        "baseColorFactor": [
          0.87,
          0.8613,
          0.8439,
          1
        ],
        "baseColorTexture": {
          "index": 0
        },
        "metallicFactor": 0,
        "roughnessFactor": 1
      }
    },
    {
      "name": "Sandstone plate 28",
      "pbrMetallicRoughness": {
        "baseColorFactor": [
          0.9,
          0.891,
          0.873,
          1
        ],
        "baseColorTexture": {
          "index": 0
        },
        "metallicFactor": 0,
        "roughnessFactor": 1
      }
    }
  ],
  "images": [
    {
      "uri": "../textures/ground_rock_side.png"
    }
  ],
  "samplers": [
    {
      "magFilter": 9729,
      "minFilter": 9987,
      "wrapS": 10497,
      "wrapT": 10497
    }
  ],
  "textures": [
    {
      "sampler": 0,
      "source": 0
    }
  ],
  "buffers": [
    {
      "uri": "ground_rock_04.bin",
      "byteLength": 36504
    }
  ],
  "bufferViews": [
    {
      "buffer": 0,
      "byteOffset": 0,
      "byteLength": 360,
      "target": 34962
    },
    {
      "buffer": 0,
      "byteOffset": 360,
      "byteLength": 360,
      "target": 34962
    },
    {
      "buffer": 0,
      "byteOffset": 720,
      "byteLength": 240,
      "target": 34962
    },
    {
      "buffer": 0,
      "byteOffset": 960,
      "byteLength": 120,
      "target": 34963
    },
    {
      "buffer": 0,
      "byteOffset": 1080,
      "byteLength": 468,
      "target": 34962
    },
    {
      "buffer": 0,
      "byteOffset": 1548,
      "byteLength": 468,
      "target": 34962
    },
    {
      "buffer": 0,
      "byteOffset": 2016,
      "byteLength": 312,
      "target": 34962
    },
    {
      "buffer": 0,
      "byteOffset": 2328,
      "byteLength": 156,
      "target": 34963
    },
    {
      "buffer": 0,
      "byteOffset": 2484,
      "byteLength": 468,
      "target": 34962
    },
    {
      "buffer": 0,
      "byteOffset": 2952,
      "byteLength": 468,
      "target": 34962
    },
    {
      "buffer": 0,
      "byteOffset": 3420,
      "byteLength": 312,
      "target": 34962
    },
    {
      "buffer": 0,
      "byteOffset": 3732,
      "byteLength": 156,
      "target": 34963
    },
    {
      "buffer": 0,
      "byteOffset": 3888,
      "byteLength": 468,
      "target": 34962
    },
    {
      "buffer": 0,
      "byteOffset": 4356,
      "byteLength": 468,
      "target": 34962
    },
    {
      "buffer": 0,
      "byteOffset": 4824,
      "byteLength": 312,
      "target": 34962
    },
    {
      "buffer": 0,
      "byteOffset": 5136,
      "byteLength": 156,
      "target": 34963
    },
    {
      "buffer": 0,
      "byteOffset": 5292,
      "byteLength": 468,
      "target": 34962
    },
    {
      "buffer": 0,
      "byteOffset": 5760,
      "byteLength": 468,
      "target": 34962
    },
    {
      "buffer": 0,
      "byteOffset": 6228,
      "byteLength": 312,
      "target": 34962
    },
    {
      "buffer": 0,
      "byteOffset": 6540,
      "byteLength": 156,
      "target": 34963
    },
    {
      "buffer": 0,
      "byteOffset": 6696,
      "byteLength": 360,
      "target": 34962
    },
    {
      "buffer": 0,
      "byteOffset": 7056,
      "byteLength": 360,
      "target": 34962
    },
    {
      "buffer": 0,
      "byteOffset": 7416,
      "byteLength": 240,
      "target": 34962
    },
    {
      "buffer": 0,
      "byteOffset": 7656,
      "byteLength": 120,
      "target": 34963
    },
    {
      "buffer": 0,
      "byteOffset": 7776,
      "byteLength": 360,
      "target": 34962
    },
    {
      "buffer": 0,
      "byteOffset": 8136,
      "byteLength": 360,
      "target": 34962
    },
    {
      "buffer": 0,
      "byteOffset": 8496,
      "byteLength": 240,
      "target": 34962
    },
    {
      "buffer": 0,
      "byteOffset": 8736,
      "byteLength": 120,
      "target": 34963
    },
    {
      "buffer": 0,
      "byteOffset": 8856,
      "byteLength": 468,
      "target": 34962
    },
    {
      "buffer": 0,
      "byteOffset": 9324,
      "byteLength": 468,
      "target": 34962
    },
    {
      "buffer": 0,
      "byteOffset": 9792,
      "byteLength": 312,
      "target": 34962
    },
    {
      "buffer": 0,
      "byteOffset": 10104,
      "byteLength": 156,
      "target": 34963
    },
    {
      "buffer": 0,
      "byteOffset": 10260,
      "byteLength": 468,
      "target": 34962
    },
    {
      "buffer": 0,
      "byteOffset": 10728,
      "byteLength": 468,
      "target": 34962
    },
    {
      "buffer": 0,
      "byteOffset": 11196,
      "byteLength": 312,
      "target": 34962
    },
    {
      "buffer": 0,
      "byteOffset": 11508,
      "byteLength": 156,
      "target": 34963
    },
    {
      "buffer": 0,
      "byteOffset": 11664,
      "byteLength": 468,
      "target": 34962
    },
    {
      "buffer": 0,
      "byteOffset": 12132,
      "byteLength": 468,
      "target": 34962
    },
    {
      "buffer": 0,
      "byteOffset": 12600,
      "byteLength": 312,
      "target": 34962
    },
    {
      "buffer": 0,
      "byteOffset": 12912,
      "byteLength": 156,
      "target": 34963
    },
    {
      "buffer": 0,
      "byteOffset": 13068,
      "byteLength": 468,
      "target": 34962
    },
    {
      "buffer": 0,
      "byteOffset": 13536,
      "byteLength": 468,
      "target": 34962
    },
    {
      "buffer": 0,
      "byteOffset": 14004,
      "byteLength": 312,
      "target": 34962
    },
    {
      "buffer": 0,
      "byteOffset": 14316,
      "byteLength": 156,
      "target": 34963
    },
    {
      "buffer": 0,
      "byteOffset": 14472,
      "byteLength": 576,
      "target": 34962
    },
    {
      "buffer": 0,
      "byteOffset": 15048,
      "byteLength": 576,
      "target": 34962
    },
    {
      "buffer": 0,
      "byteOffset": 15624,
      "byteLength": 384,
      "target": 34962
    },
    {
      "buffer": 0,
      "byteOffset": 16008,
      "byteLength": 192,
      "target": 34963
    },
    {
      "buffer": 0,
      "byteOffset": 16200,
      "byteLength": 360,
      "target": 34962
    },
    {
      "buffer": 0,
      "byteOffset": 16560,
      "byteLength": 360,
      "target": 34962
    },
    {
      "buffer": 0,
      "byteOffset": 16920,
      "byteLength": 240,
      "target": 34962
    },
    {
      "buffer": 0,
      "byteOffset": 17160,
      "byteLength": 120,
      "target": 34963
    },
    {
      "buffer": 0,
      "byteOffset": 17280,
      "byteLength": 468,
      "target": 34962
    },
    {
      "buffer": 0,
      "byteOffset": 17748,
      "byteLength": 468,
      "target": 34962
    },
    {
      "buffer": 0,
      "byteOffset": 18216,
      "byteLength": 312,
      "target": 34962
    },
    {
      "buffer": 0,
      "byteOffset": 18528,
      "byteLength": 156,
      "target": 34963
    },
    {
      "buffer": 0,
      "byteOffset": 18684,
      "byteLength": 468,
      "target": 34962
    },
    {
      "buffer": 0,
      "byteOffset": 19152,
      "byteLength": 468,
      "target": 34962
    },
    {
      "buffer": 0,
      "byteOffset": 19620,
      "byteLength": 312,
      "target": 34962
    },
    {
      "buffer": 0,
      "byteOffset": 19932,
      "byteLength": 156,
      "target": 34963
    },
    {
      "buffer": 0,
      "byteOffset": 20088,
      "byteLength": 468,
      "target": 34962
    },
    {
      "buffer": 0,
      "byteOffset": 20556,
      "byteLength": 468,
      "target": 34962
    },
    {
      "buffer": 0,
      "byteOffset": 21024,
      "byteLength": 312,
      "target": 34962
    },
    {
      "buffer": 0,
      "byteOffset": 21336,
      "byteLength": 156,
      "target": 34963
    },
    {
      "buffer": 0,
      "byteOffset": 21492,
      "byteLength": 468,
      "target": 34962
    },
    {
      "buffer": 0,
      "byteOffset": 21960,
      "byteLength": 468,
      "target": 34962
    },
    {
      "buffer": 0,
      "byteOffset": 22428,
      "byteLength": 312,
      "target": 34962
    },
    {
      "buffer": 0,
      "byteOffset": 22740,
      "byteLength": 156,
      "target": 34963
    },
    {
      "buffer": 0,
      "byteOffset": 22896,
      "byteLength": 360,
      "target": 34962
    },
    {
      "buffer": 0,
      "byteOffset": 23256,
      "byteLength": 360,
      "target": 34962
    },
    {
      "buffer": 0,
      "byteOffset": 23616,
      "byteLength": 240,
      "target": 34962
    },
    {
      "buffer": 0,
      "byteOffset": 23856,
      "byteLength": 120,
      "target": 34963
    },
    {
      "buffer": 0,
      "byteOffset": 23976,
      "byteLength": 468,
      "target": 34962
    },
    {
      "buffer": 0,
      "byteOffset": 24444,
      "byteLength": 468,
      "target": 34962
    },
    {
      "buffer": 0,
      "byteOffset": 24912,
      "byteLength": 312,
      "target": 34962
    },
    {
      "buffer": 0,
      "byteOffset": 25224,
      "byteLength": 156,
      "target": 34963
    },
    {
      "buffer": 0,
      "byteOffset": 25380,
      "byteLength": 468,
      "target": 34962
    },
    {
      "buffer": 0,
      "byteOffset": 25848,
      "byteLength": 468,
      "target": 34962
    },
    {
      "buffer": 0,
      "byteOffset": 26316,
      "byteLength": 312,
      "target": 34962
    },
    {
      "buffer": 0,
      "byteOffset": 26628,
      "byteLength": 156,
      "target": 34963
    },
    {
      "buffer": 0,
      "byteOffset": 26784,
      "byteLength": 468,
      "target": 34962
    },
    {
      "buffer": 0,
      "byteOffset": 27252,
      "byteLength": 468,
      "target": 34962
    },
    {
      "buffer": 0,
      "byteOffset": 27720,
      "byteLength": 312,
      "target": 34962
    },
    {
      "buffer": 0,
      "byteOffset": 28032,
      "byteLength": 156,
      "target": 34963
    },
    {
      "buffer": 0,
      "byteOffset": 28188,
      "byteLength": 468,
      "target": 34962
    },
    {
      "buffer": 0,
      "byteOffset": 28656,
      "byteLength": 468,
      "target": 34962
    },
    {
      "buffer": 0,
      "byteOffset": 29124,
      "byteLength": 312,
      "target": 34962
    },
    {
      "buffer": 0,
      "byteOffset": 29436,
      "byteLength": 156,
      "target": 34963
    },
    {
      "buffer": 0,
      "byteOffset": 29592,
      "byteLength": 360,
      "target": 34962
    },
    {
      "buffer": 0,
      "byteOffset": 29952,
      "byteLength": 360,
      "target": 34962
    },
    {
      "buffer": 0,
      "byteOffset": 30312,
      "byteLength": 240,
      "target": 34962
    },
    {
      "buffer": 0,
      "byteOffset": 30552,
      "byteLength": 120,
      "target": 34963
    },
    {
      "buffer": 0,
      "byteOffset": 30672,
      "byteLength": 468,
      "target": 34962
    },
    {
      "buffer": 0,
      "byteOffset": 31140,
      "byteLength": 468,
      "target": 34962
    },
    {
      "buffer": 0,
      "byteOffset": 31608,
      "byteLength": 312,
      "target": 34962
    },
    {
      "buffer": 0,
      "byteOffset": 31920,
      "byteLength": 156,
      "target": 34963
    },
    {
      "buffer": 0,
      "byteOffset": 32076,
      "byteLength": 468,
      "target": 34962
    },
    {
      "buffer": 0,
      "byteOffset": 32544,
      "byteLength": 468,
      "target": 34962
    },
    {
      "buffer": 0,
      "byteOffset": 33012,
      "byteLength": 312,
      "target": 34962
    },
    {
      "buffer": 0,
      "byteOffset": 33324,
      "byteLength": 156,
      "target": 34963
    },
    {
      "buffer": 0,
      "byteOffset": 33480,
      "byteLength": 576,
      "target": 34962
    },
    {
      "buffer": 0,
      "byteOffset": 34056,
      "byteLength": 576,
      "target": 34962
    },
    {
      "buffer": 0,
      "byteOffset": 34632,
      "byteLength": 384,
      "target": 34962
    },
    {
      "buffer": 0,
      "byteOffset": 35016,
      "byteLength": 192,
      "target": 34963
    },
    {
      "buffer": 0,
      "byteOffset": 35208,
      "byteLength": 360,
      "target": 34962
    },
    {
      "buffer": 0,
      "byteOffset": 35568,
      "byteLength": 360,
      "target": 34962
    },
    {
      "buffer": 0,
      "byteOffset": 35928,
      "byteLength": 240,
      "target": 34962
    },
    {
      "buffer": 0,
      "byteOffset": 36168,
      "byteLength": 120,
      "target": 34963
    },
    {
      "buffer": 0,
      "byteOffset": 36288,
      "byteLength": 72,
      "target": 34962
    },
    {
      "buffer": 0,
      "byteOffset": 36360,
      "byteLength": 72,
      "target": 34962
    },
    {
      "buffer": 0,
      "byteOffset": 36432,
      "byteLength": 48,
      "target": 34962
    },
    {
      "buffer": 0,
      "byteOffset": 36480,
      "byteLength": 24,
      "target": 34963
    }
  ],
  "accessors": [
    {
      "bufferView": 0,
      "componentType": 5126,
      "count": 30,
      "type": "VEC3",
      "min": [
        0.622037037037037,
        0.0,
        -0.0671812258420762
      ],
      "max": [
        1.0,
        0.5249632352941175,
        -0.0
      ]
    },
    {
      "bufferView": 1,
      "componentType": 5126,
      "count": 30,
      "type": "VEC3",
      "min": [
        -0.8783266229629151,
        -0.6618508262183773,
        0.3579807147182581
      ],
      "max": [
        0.8155974562882057,
        0.9054861608594376,
        0.9995642849369534
      ]
    },
    {
      "bufferView": 2,
      "componentType": 5126,
      "count": 30,
      "type": "VEC2"
    },
    {
      "bufferView": 3,
      "componentType": 5125,
      "count": 30,
      "type": "SCALAR"
    },
    {
      "bufferView": 4,
      "componentType": 5126,
      "count": 39,
      "type": "VEC3",
      "min": [
        0.3798526315789474,
        0.0,
        -0.06994157894736842
      ],
      "max": [
        0.8139342904472666,
        0.794157894736842,
        0.01135139359755235
      ]
    },
    {
      "bufferView": 5,
      "componentType": 5126,
      "count": 39,
      "type": "VEC3",
      "min": [
        -0.9595371185533456,
        -0.6607692737037161,
        0.18174476081337623
      ],
      "max": [
        0.9277529391076141,
        0.6157938481583293,
        0.9997790732345259
      ]
    },
    {
      "bufferView": 6,
      "componentType": 5126,
      "count": 39,
      "type": "VEC2"
    },
    {
      "bufferView": 7,
      "componentType": 5125,
      "count": 39,
      "type": "SCALAR"
    },
    {
      "bufferView": 8,
      "componentType": 5126,
      "count": 39,
      "type": "VEC3",
      "min": [
        0.0,
        0.0,
        -0.06744163063619518
      ],
      "max": [
        0.4887837837837837,
        0.5441630636195183,
        -0.0
      ]
    },
    {
      "bufferView": 9,
      "componentType": 5126,
      "count": 39,
      "type": "VEC3",
      "min": [
        -0.5733509654628831,
        -0.3718461365779052,
        0.375148765313636
      ],
      "max": [
        0.8873717944669013,
        0.7611511247879172,
        0.9998960162211884
      ]
    },
    {
      "bufferView": 10,
      "componentType": 5126,
      "count": 39,
      "type": "VEC2"
    },
    {
      "bufferView": 11,
      "componentType": 5125,
      "count": 39,
      "type": "SCALAR"
    },
    {
      "bufferView": 12,
      "componentType": 5126,
      "count": 39,
      "type": "VEC3",
      "min": [
        0.6259565217391303,
        0.5181225842076199,
        -0.06994157894736842
      ],
      "max": [
        1.0,
        1.0,
        0.014699654497612536
      ]
    },
    {
      "bufferView": 13,
      "componentType": 5126,
      "count": 39,
      "type": "VEC3",
      "min": [
        -0.9778352759118654,
        -0.9807163244645789,
        0.18617355108187633
      ],
      "max": [
        0.6020425829927941,
        0.6114585506798398,
        0.999783570283015
      ]
    },
    {
      "bufferView": 14,
      "componentType": 5126,
      "count": 39,
      "type": "VEC2"
    },
    {
      "bufferView": 15,
      "componentType": 5125,
      "count": 39,
      "type": "SCALAR"
    },
    {
      "bufferView": 16,
      "componentType": 5126,
      "count": 39,
      "type": "VEC3",
      "min": [
        0.19338709677419363,
        0.47981578947368425,
        -0.06994157894736842
      ],
      "max": [
        0.6313263157894735,
        1.0,
        -0.0
      ]
    },
    {
      "bufferView": 17,
      "componentType": 5126,
      "count": 39,
      "type": "VEC3",
      "min": [
        -0.9095211611771228,
        -0.7788419022481425,
        0.3336562044313114
      ],
      "max": [
        0.9421812195073932,
        0.018363804755838962,
        0.9995962446592683
      ]
    },
    {
      "bufferView": 18,
      "componentType": 5126,
      "count": 39,
      "type": "VEC2"
    },
    {
      "bufferView": 19,
      "componentType": 5125,
      "count": 39,
      "type": "SCALAR"
    },
    {
      "bufferView": 20,
      "componentType": 5126,
      "count": 30,
      "type": "VEC3",
      "min": [
        0.0,
        0.3205555555555556,
        -0.06744163063619518
      ],
      "max": [
        0.2874953675108091,
        1.0,
        -0.0
      ]
    },
    {
      "bufferView": 21,
      "componentType": 5126,
      "count": 30,
      "type": "VEC3",
      "min": [
        -0.8792594423452426,
        -0.9302978081226201,
        0.3210419177287157
      ],
      "max": [
        0.9313870471602109,
        0.6650802423943547,
        0.9995737726595664
      ]
    },
    {
      "bufferView": 22,
      "componentType": 5126,
      "count": 30,
      "type": "VEC2"
    },
    {
      "bufferView": 23,
      "componentType": 5125,
      "count": 30,
      "type": "SCALAR"
    },
    {
      "bufferView": 24,
      "componentType": 5126,
      "count": 30,
      "type": "VEC3",
      "min": [
        0.9334380281690141,
        0.0,
        -0.32180000000000003
      ],
      "max": [
        1.0093663826773491,
        0.5180078125,
        -0.0
      ]
    },
    {
      "bufferView": 25,
      "componentType": 5126,
      "count": 30,
      "type": "VEC3",
      "min": [
        0.19237510234777186,
        -0.5893276222546164,
        -0.9255710057869808
      ],
      "max": [
        0.9997790732345259,
        0.925636786871026,
        0.5845670441397353
      ]
    },
    {
      "bufferView": 26,
      "componentType": 5126,
      "count": 30,
      "type": "VEC2"
    },
    {
      "bufferView": 27,
      "componentType": 5125,
      "count": 30,
      "type": "SCALAR"
    },
    {
      "bufferView": 28,
      "componentType": 5126,
      "count": 39,
      "type": "VEC3",
      "min": [
        0.9315862068965517,
        0.0,
        -0.5732499999999999
      ],
      "max": [
        1.0,
        0.6413793103448275,
        -0.17581690140845072
      ]
    },
    {
      "bufferView": 29,
      "componentType": 5126,
      "count": 39,
      "type": "VEC3",
      "min": [
        0.37055880476119696,
        -0.2801498563065799,
        -0.9127724134256684
      ],
      "max": [
        0.9998960162211884,
        0.683697199958709,
        0.8701993849454086
      ]
    },
    {
      "bufferView": 30,
      "componentType": 5126,
      "count": 39,
      "type": "VEC2"
    },
    {
      "bufferView": 31,
      "componentType": 5125,
      "count": 39,
      "type": "SCALAR"
    },
    {
      "bufferView": 32,
      "componentType": 5126,
      "count": 39,
      "type": "VEC3",
      "min": [
        0.9328976804123711,
        0.0,
        -1.0
      ],
      "max": [
        1.0186635171903182,
        0.5102319587628866,
        -0.5162105263157893
      ]
    },
    {
      "bufferView": 33,
      "componentType": 5126,
      "count": 39,
      "type": "VEC3",
      "min": [
        0.1975167730932493,
        -0.7646172369889366,
        -0.5742837795116186
      ],
      "max": [
        0.999783570283015,
        0.842159012101965,
        0.9661442549274875
      ]
    },
    {
      "bufferView": 34,
      "componentType": 5126,
      "count": 39,
      "type": "VEC2"
    },
    {
      "bufferView": 35,
      "componentType": 5125,
      "count": 39,
      "type": "SCALAR"
    },
    {
      "bufferView": 36,
      "componentType": 5126,
      "count": 39,
      "type": "VEC3",
      "min": [
        0.929235294117647,
        0.34986842105263155,
        -1.0
      ],
      "max": [
        1.0,
        1.0,
        -0.7162941176470589
      ]
    },
    {
      "bufferView": 37,
      "componentType": 5126,
      "count": 39,
      "type": "VEC3",
      "min": [
        0.2919768952357168,
        -0.790132473773196,
        -0.17466869615175767
      ],
      "max": [
        0.9995962446592683,
        0.5015592830010902,
        0.9551453272672982
      ]
    },
    {
      "bufferView": 38,
      "componentType": 5126,
      "count": 39,
      "type": "VEC2"
    },
    {
      "bufferView": 39,
      "componentType": 5125,
      "count": 39,
      "type": "SCALAR"
    },
    {
      "bufferView": 40,
      "componentType": 5126,
      "count": 39,
      "type": "VEC3",
      "min": [
        0.929235294117647,
        0.33867187500000007,
        -0.7562474226804123
      ],
      "max": [
        0.9761440820183981,
        0.876470588235294,
        -0.3795172413793103
      ]
    },
    {
      "bufferView": 41,
      "componentType": 5126,
      "count": 39,
      "type": "VEC3",
      "min": [
        0.3304107945225208,
        -0.6865873330532645,
        -0.937346004668096
      ],
      "max": [
        0.9995737726595664,
        0.8483688207230212,
        0.9099366225358448
      ]
    },
    {
      "bufferView": 42,
      "componentType": 5126,
      "count": 39,
      "type": "VEC2"
    },
    {
      "bufferView": 43,
      "componentType": 5125,
      "count": 39,
      "type": "SCALAR"
    },
    {
      "bufferView": 44,
      "componentType": 5126,
      "count": 48,
      "type": "VEC3",
      "min": [
        0.9306851265822784,
        0.4561971830985916,
        -0.3915316455696202
      ],
      "max": [
        1.0139414922948187,
        1.0,
        -0.0
      ]
    },
    {
      "bufferView": 45,
      "componentType": 5126,
      "count": 48,
      "type": "VEC3",
      "min": [
        0.28991026009146104,
        -0.9282228443711643,
        -0.9469159383234969
      ],
      "max": [
        0.999883520354423,
        0.39804422870071055,
        0.5022974032352602
      ]
    },
    {
      "bufferView": 46,
      "componentType": 5126,
      "count": 48,
      "type": "VEC2"
    },
    {
      "bufferView": 47,
      "componentType": 5125,
      "count": 48,
      "type": "SCALAR"
    },
    {
      "bufferView": 48,
      "componentType": 5126,
      "count": 30,
      "type": "VEC3",
      "min": [
        0.929235294117647,
        0.731487341772152,
        -0.7410000000000001
      ],
      "max": [
        1.0,
        1.0,
        -0.3360967741935485
      ]
    },
    {
      "bufferView": 49,
      "componentType": 5126,
      "count": 30,
      "type": "VEC3",
      "min": [
        0.32956649863590304,
        -0.861574484839615,
        -0.9242918462227109
      ],
      "max": [
        0.9995642849369534,
        0.16275293387009224,
        0.8416617481486569
      ]
    },
    {
      "bufferView": 50,
      "componentType": 5126,
      "count": 30,
      "type": "VEC2"
    },
    {
      "bufferView": 51,
      "componentType": 5125,
      "count": 30,
      "type": "SCALAR"
    },
    {
      "bufferView": 52,
      "componentType": 5126,
      "count": 39,
      "type": "VEC3",
      "min": [
        0.0,
        0.0,
        -1.0
      ],
      "max": [
        0.449555905511811,
        0.5049136868064118,
        -0.9329508631319359
      ]
    },
    {
      "bufferView": 53,
      "componentType": 5126,
      "count": 39,
      "type": "VEC3",
      "min": [
        -0.4108371490317807,
        -0.4166810265311369,
        -0.9998960162211883
      ],
      "max": [
        0.8979815914013702,
        0.8145138617251031,
        -0.38343165336394025
      ]
    },
    {
      "bufferView": 54,
      "componentType": 5126,
      "count": 39,
      "type": "VEC2"
    },
    {
      "bufferView": 55,
      "componentType": 5125,
      "count": 39,
      "type": "SCALAR"
    },
    {
      "bufferView": 56,
      "componentType": 5126,
      "count": 39,
      "type": "VEC3",
      "min": [
        0.4465714285714286,
        0.0,
        -1.0189306191009895
      ],
      "max": [
        0.9587777777777778,
        0.44282159624413153,
        -0.9335717840375587
      ]
    },
    {
      "bufferView": 57,
      "componentType": 5126,
      "count": 39,
      "type": "VEC3",
      "min": [
        -0.9696343414016396,
        -0.7708833263568664,
        -0.999783570283015
      ],
      "max": [
        0.8780183864571321,
        0.9304255713876716,
        -0.2027784343962871
      ]
    },
    {
      "bufferView": 58,
      "componentType": 5126,
      "count": 39,
      "type": "VEC2"
    },
    {
      "bufferView": 59,
      "componentType": 5125,
      "count": 39,
      "type": "SCALAR"
    },
    {
      "bufferView": 60,
      "componentType": 5126,
      "count": 39,
      "type": "VEC3",
      "min": [
        0.7559500000000001,
        0.0,
        -1.0003756108909068
      ],
      "max": [
        1.0,
        1.0,
        -0.93385125
      ]
    },
    {
      "bufferView": 61,
      "componentType": 5126,
      "count": 39,
      "type": "VEC3",
      "min": [
        -0.9537499768499341,
        -0.4227189955706422,
        -0.9995962446592698
      ],
      "max": [
        0.8607384629168174,
        0.9570778016782568,
        -0.10724659529474828
      ]
    },
    {
      "bufferView": 62,
      "componentType": 5126,
      "count": 39,
      "type": "VEC2"
    },
    {
      "bufferView": 63,
      "componentType": 5125,
      "count": 39,
      "type": "SCALAR"
    },
    {
      "bufferView": 64,
      "componentType": 5126,
      "count": 39,
      "type": "VEC3",
      "min": [
        0.0,
        0.3247959183673468,
        -1.0
      ],
      "max": [
        0.3056183745583039,
        1.0,
        -0.9324081272084805
      ]
    },
    {
      "bufferView": 65,
      "componentType": 5126,
      "count": 39,
      "type": "VEC3",
      "min": [
        -0.9161180548500878,
        -0.9298545521847625,
        -0.9995737726595665
      ],
      "max": [
        0.9218365646832312,
        0.6614014546823549,
        -0.36083683013823453
      ]
    },
    {
      "bufferView": 66,
      "componentType": 5126,
      "count": 39,
      "type": "VEC2"
    },
    {
      "bufferView": 67,
      "componentType": 5125,
      "count": 39,
      "type": "SCALAR"
    },
    {
      "bufferView": 68,
      "componentType": 5126,
      "count": 30,
      "type": "VEC3",
      "min": [
        0.22333333333333338,
        0.5591872791519433,
        -1.0122823558147982
      ],
      "max": [
        0.6121612903225807,
        1.0,
        -0.9308659707724426
      ]
    },
    {
      "bufferView": 69,
      "componentType": 5126,
      "count": 30,
      "type": "VEC3",
      "min": [
        -0.9404859960419782,
        -0.827849550394366,
        -0.999883520354423
      ],
      "max": [
        0.932361210636362,
        0.4103479971547491,
        -0.2824915872502177
      ]
    },
    {
      "bufferView": 70,
      "componentType": 5126,
      "count": 30,
      "type": "VEC2"
    },
    {
      "bufferView": 71,
      "componentType": 5125,
      "count": 30,
      "type": "SCALAR"
    },
    {
      "bufferView": 72,
      "componentType": 5126,
      "count": 39,
      "type": "VEC3",
      "min": [
        0.5677849686847599,
        0.41487500000000005,
        -1.0
      ],
      "max": [
        0.99,
        1.0,
        -0.9308659707724426
      ]
    },
    {
      "bufferView": 73,
      "componentType": 5126,
      "count": 39,
      "type": "VEC3",
      "min": [
        -0.9294809918747641,
        -0.8681946568906935,
        -0.9995642849369534
      ],
      "max": [
        0.8163625938647416,
        0.30145422239503106,
        -0.34104209471750563
      ]
    },
    {
      "bufferView": 74,
      "componentType": 5126,
      "count": 39,
      "type": "VEC2"
    },
    {
      "bufferView": 75,
      "componentType": 5125,
      "count": 39,
      "type": "SCALAR"
    },
    {
      "bufferView": 76,
      "componentType": 5126,
      "count": 39,
      "type": "VEC3",
      "min": [
        0.29419235511713937,
        0.1566850393700788,
        -1.009525661832232
      ],
      "max": [
        0.6713117370892019,
        0.7134029227557412,
        -0.9308659707724426
      ]
    },
    {
      "bufferView": 77,
      "componentType": 5126,
      "count": 39,
      "type": "VEC3",
      "min": [
        -0.9611739970811664,
        -0.602058062855276,
        -0.9997790732345259
      ],
      "max": [
        0.9188627452042649,
        0.847841046472119,
        -0.17405405460321327
      ]
    },
    {
      "bufferView": 78,
      "componentType": 5126,
      "count": 39,
      "type": "VEC2"
    },
    {
      "bufferView": 79,
      "componentType": 5125,
      "count": 39,
      "type": "SCALAR"
    },
    {
      "bufferView": 80,
      "componentType": 5126,
      "count": 39,
      "type": "VEC3",
      "min": [
        -0.017521314792088266,
        0.0,
        -1.0
      ],
      "max": [
        0.06639677419354839,
        0.4396774193548387,
        -0.58335
      ]
    },
    {
      "bufferView": 81,
      "componentType": 5126,
      "count": 39,
      "type": "VEC3",
      "min": [
        -0.999783570283015,
        -0.7435366105903998,
        -0.7384376909748966
      ],
      "max": [
        -0.20689460710078586,
        0.9070322194341169,
        0.9658881325084178
      ]
    },
    {
      "bufferView": 82,
      "componentType": 5126,
      "count": 39,
      "type": "VEC2"
    },
    {
      "bufferView": 83,
      "componentType": 5125,
      "count": 39,
      "type": "SCALAR"
    },
    {
      "bufferView": 84,
      "componentType": 5126,
      "count": 39,
      "type": "VEC3",
      "min": [
        0.0,
        0.0,
        -0.6069230769230769
      ],
      "max": [
        0.06713185840707965,
        0.5131858407079646,
        -0.23670270270270266
      ]
    },
    {
      "bufferView": 85,
      "componentType": 5126,
      "count": 39,
      "type": "VEC3",
      "min": [
        -0.9995962446592683,
        -0.09124380476553604,
        -0.9423426159560054
      ],
      "max": [
        -0.30670597151719414,
        0.7753360566729469,
        0.9341359171475224
      ]
    },
    {
      "bufferView": 86,
      "componentType": 5126,
      "count": 39,
      "type": "VEC2"
    },
    {
      "bufferView": 87,
      "componentType": 5125,
      "count": 39,
      "type": "SCALAR"
    },
    {
      "bufferView": 88,
      "componentType": 5126,
      "count": 30,
      "type": "VEC3",
      "min": [
        0.0,
        0.0,
        -0.266
      ],
      "max": [
        0.06566216216216217,
        0.5881250000000001,
        -0.0
      ]
    },
    {
      "bufferView": 89,
      "componentType": 5126,
      "count": 30,
      "type": "VEC3",
      "min": [
        -0.9995737726595665,
        -0.671060486100082,
        -0.9204377890355422
      ],
      "max": [
        -0.3900468474157028,
        0.8775210878975445,
        0.8515531353868897
      ]
    },
    {
      "bufferView": 90,
      "componentType": 5126,
      "count": 30,
      "type": "VEC2"
    },
    {
      "bufferView": 91,
      "componentType": 5125,
      "count": 30,
      "type": "SCALAR"
    },
    {
      "bufferView": 92,
      "componentType": 5126,
      "count": 39,
      "type": "VEC3",
      "min": [
        -0.014013755392023507,
        0.35159090909090907,
        -1.0
      ],
      "max": [
        0.06978310234541578,
        1.0,
        -0.7345095948827292
      ]
    },
    {
      "bufferView": 93,
      "componentType": 5126,
      "count": 39,
      "type": "VEC3",
      "min": [
        -0.999883520354423,
        -0.843394197634419,
        -0.5042402640315506
      ],
      "max": [
        -0.29447797430938966,
        0.36147215013179257,
        0.9456830967402343
      ]
    },
    {
      "bufferView": 94,
      "componentType": 5126,
      "count": 39,
      "type": "VEC2"
    },
    {
      "bufferView": 95,
      "componentType": 5125,
      "count": 39,
      "type": "SCALAR"
    },
    {
      "bufferView": 96,
      "componentType": 5126,
      "count": 39,
      "type": "VEC3",
      "min": [
        0.01714383785648345,
        0.2619230769230769,
        -0.7846774193548387
      ],
      "max": [
        0.06978310234541578,
        0.778310234541578,
        -0.44246017699115037
      ]
    },
    {
      "bufferView": 97,
      "componentType": 5126,
      "count": 39,
      "type": "VEC3",
      "min": [
        -0.9995642849369535,
        -0.6371721767185266,
        -0.9249624619665383
      ],
      "max": [
        -0.32389595180702957,
        0.9371109086406368,
        0.9425778507152889
      ]
    },
    {
      "bufferView": 98,
      "componentType": 5126,
      "count": 39,
      "type": "VEC2"
    },
    {
      "bufferView": 99,
      "componentType": 5125,
      "count": 39,
      "type": "SCALAR"
    },
    {
      "bufferView": 100,
      "componentType": 5126,
      "count": 48,
      "type": "VEC3",
      "min": [
        -0.009941117702307517,
        0.36621621621621625,
        -0.4583076923076923
      ],
      "max": [
        0.06937692307692307,
        1.0,
        -0.0
      ]
    },
    {
      "bufferView": 101,
      "componentType": 5126,
      "count": 48,
      "type": "VEC3",
      "min": [
        -0.9997790732345258,
        -0.8017715126015746,
        -0.9834476434091163
      ],
      "max": [
        -0.1680539218902873,
        0.28420449722380364,
        0.6765102465393074
      ]
    },
    {
      "bufferView": 102,
      "componentType": 5126,
      "count": 48,
      "type": "VEC2"
    },
    {
      "bufferView": 103,
      "componentType": 5125,
      "count": 48,
      "type": "SCALAR"
    },
    {
      "bufferView": 104,
      "componentType": 5126,
      "count": 30,
      "type": "VEC3",
      "min": [
        0.0,
        0.7376923076923078,
        -0.8078965517241379
      ],
      "max": [
        0.06978310234541578,
        1.0,
        -0.36650000000000005
      ]
    },
    {
      "bufferView": 105,
      "componentType": 5126,
      "count": 30,
      "type": "VEC3",
      "min": [
        -0.9998960162211884,
        -0.915887972469627,
        -0.8158159739893054
      ],
      "max": [
        -0.37796553693205504,
        0.19156784750815534,
        0.8718423909911422
      ]
    },
    {
      "bufferView": 106,
      "componentType": 5126,
      "count": 30,
      "type": "VEC2"
    },
    {
      "bufferView": 107,
      "componentType": 5125,
      "count": 30,
      "type": "SCALAR"
    },
    {
      "bufferView": 108,
      "componentType": 5126,
      "count": 6,
      "type": "VEC3",
      "min": [
        0,
        0,
        -1
      ],
      "max": [
        1,
        0,
        0
      ]
    },
    {
      "bufferView": 109,
      "componentType": 5126,
      "count": 6,
      "type": "VEC3",
      "min": [
        0.0,
        -1.0,
        -0.0
      ],
      "max": [
        0.0,
        -1.0,
        -0.0
      ]
    },
    {
      "bufferView": 110,
      "componentType": 5126,
      "count": 6,
      "type": "VEC2"
    },
    {
      "bufferView": 111,
      "componentType": 5125,
      "count": 6,
      "type": "SCALAR"
    }
  ]
}
