{
  "asset": {
    "version": "2.0",
    "generator": "Authored fracture layouts: tools/make_ground_rock_models.py"
  },
  "scene": 0,
  "scenes": [
    {
      "nodes": [
        0
      ]
    }
  ],
  "nodes": [
    {
      "mesh": 0,
      "name": "ground_rock_05"
    }
  ],
  "meshes": [
    {
      "name": "ground_rock_05",
      "primitives": [
        {
          "attributes": {
            "POSITION": 0,
            "NORMAL": 1,
            "TEXCOORD_0": 2
          },
          "indices": 3,
          "material": 0,
          "mode": 4
        },
        {
          "attributes": {
            "POSITION": 4,
            "NORMAL": 5,
            "TEXCOORD_0": 6
          },
          "indices": 7,
          "material": 1,
          "mode": 4
        },
        {
          "attributes": {
            "POSITION": 8,
            "NORMAL": 9,
            "TEXCOORD_0": 10
          },
          "indices": 11,
          "material": 2,
          "mode": 4
        },
        {
          "attributes": {
            "POSITION": 12,
            "NORMAL": 13,
            "TEXCOORD_0": 14
          },
          "indices": 15,
          "material": 3,
          "mode": 4
        },
        {
          "attributes": {
            "POSITION": 16,
            "NORMAL": 17,
            "TEXCOORD_0": 18
          },
          "indices": 19,
          "material": 4,
          "mode": 4
        },
        {
          "attributes": {
            "POSITION": 20,
            "NORMAL": 21,
            "TEXCOORD_0": 22
          },
          "indices": 23,
          "material": 5,
          "mode": 4
        },
        {
          "attributes": {
            "POSITION": 24,
            "NORMAL": 25,
            "TEXCOORD_0": 26
          },
          "indices": 27,
          "material": 6,
          "mode": 4
        },
        {
          "attributes": {
            "POSITION": 28,
            "NORMAL": 29,
            "TEXCOORD_0": 30
          },
          "indices": 31,
          "material": 7,
          "mode": 4
        },
        {
          "attributes": {
            "POSITION": 32,
            "NORMAL": 33,
            "TEXCOORD_0": 34
          },
          "indices": 35,
          "material": 8,
          "mode": 4
        },
        {
          "attributes": {
            "POSITION": 36,
            "NORMAL": 37,
            "TEXCOORD_0": 38
          },
          "indices": 39,
          "material": 9,
          "mode": 4
        },
        {
          "attributes": {
            "POSITION": 40,
            "NORMAL": 41,
            "TEXCOORD_0": 42
          },
          "indices": 43,
          "material": 10,
          "mode": 4
        },
        {
          "attributes": {
            "POSITION": 44,
            "NORMAL": 45,
            "TEXCOORD_0": 46
          },
          "indices": 47,
          "material": 11,
          "mode": 4
        },
        {
          "attributes": {
            "POSITION": 48,
            "NORMAL": 49,
            "TEXCOORD_0": 50
          },
          "indices": 51,
          "material": 12,
          "mode": 4
        },
        {
          "attributes": {
            "POSITION": 52,
            "NORMAL": 53,
            "TEXCOORD_0": 54
          },
          "indices": 55,
          "material": 13,
          "mode": 4
        },
        {
          "attributes": {
            "POSITION": 56,
            "NORMAL": 57,
            "TEXCOORD_0": 58
          },
          "indices": 59,
          "material": 14,
          "mode": 4
        },
        {
          "attributes": {
            "POSITION": 60,
            "NORMAL": 61,
            "TEXCOORD_0": 62
          },
          "indices": 63,
          "material": 15,
          "mode": 4
        },
        {
          "attributes": {
            "POSITION": 64,
            "NORMAL": 65,
            "TEXCOORD_0": 66
          },
          "indices": 67,
          "material": 16,
          "mode": 4
        },
        {
          "attributes": {
            "POSITION": 68,
            "NORMAL": 69,
            "TEXCOORD_0": 70
          },
          "indices": 71,
          "material": 17,
          "mode": 4
        },
        {
          "attributes": {
            "POSITION": 72,
            "NORMAL": 73,
            "TEXCOORD_0": 74
          },
          "indices": 75,
          "material": 18,
          "mode": 4
        },
        {
          "attributes": {
            "POSITION": 76,
            "NORMAL": 77,
            "TEXCOORD_0": 78
          },
          "indices": 79,
          "material": 19,
          "mode": 4
        },
        {
          "attributes": {
            "POSITION": 80,
            "NORMAL": 81,
            "TEXCOORD_0": 82
          },
          "indices": 83,
          "material": 20,
          "mode": 4
        },
        {
          "attributes": {
            "POSITION": 84,
            "NORMAL": 85,
            "TEXCOORD_0": 86
          },
          "indices": 87,
          "material": 21,
          "mode": 4
        },
        {
          "attributes": {
            "POSITION": 88,
            "NORMAL": 89,
            "TEXCOORD_0": 90
          },
          "indices": 91,
          "material": 22,
          "mode": 4
        },
        {
          "attributes": {
            "POSITION": 92,
            "NORMAL": 93,
            "TEXCOORD_0": 94
          },
          "indices": 95,
          "material": 23,
          "mode": 4
        },
        {
          "attributes": {
            "POSITION": 96,
            "NORMAL": 97,
            "TEXCOORD_0": 98
          },
          "indices": 99,
          "material": 24,
          "mode": 4
        },
        {
          "attributes": {
            "POSITION": 100,
            "NORMAL": 101,
            "TEXCOORD_0": 102
          },
          "indices": 103,
          "material": 25,
          "mode": 4
        },
        {
          "attributes": {
            "POSITION": 104,
            "NORMAL": 105,
            "TEXCOORD_0": 106
          },
          "indices": 107,
          "material": 26,
          "mode": 4
        }
      ]
    }
  ],
  "materials": [
    {
      "name": "Sandstone plate 1",
      "pbrMetallicRoughness": {
        "baseColorFactor": [
          0.95,
          0.9405,
          0.9215,
          1
        ],
        "baseColorTexture": {
          "index": 0
        },
        "metallicFactor": 0,
        "roughnessFactor": 1
      }
    },
    {
      "name": "Sandstone plate 2",
      "pbrMetallicRoughness": {
        "baseColorFactor": [
          0.87,
          0.8613,
          0.8439,
          1
        ],
        "baseColorTexture": {
          "index": 0
        },
        "metallicFactor": 0,
        "roughnessFactor": 1
      }
    },
    {
      "name": "Sandstone plate 3",
      "pbrMetallicRoughness": {
        "baseColorFactor": [
          0.91,
          0.9009,
          0.8827,
          1
        ],
        "baseColorTexture": {
          "index": 0
        },
        "metallicFactor": 0,
        "roughnessFactor": 1
      }
    },
    {
      "name": "Sandstone plate 4",
      "pbrMetallicRoughness": {
        "baseColorFactor": [
          0.93,
          0.9207000000000001,
          0.9021,
          1
        ],
        "baseColorTexture": {
          "index": 0
        },
        "metallicFactor": 0,
        "roughnessFactor": 1
      }
    },
    {
      "name": "Sandstone plate 5",
      "pbrMetallicRoughness": {
        "baseColorFactor": [
          0.85,
          0.8415,
          0.8245,
          1
        ],
        "baseColorTexture": {
          "index": 0
        },
        "metallicFactor": 0,
        "roughnessFactor": 1
      }
    },
    {
      "name": "Sandstone plate 6",
      "pbrMetallicRoughness": {
        "baseColorFactor": [
          0.97,
          0.9602999999999999,
          0.9409,
          1
        ],
        "baseColorTexture": {
          "index": 0
        },
        "metallicFactor": 0,
        "roughnessFactor": 1
      }
    },
    {
      "name": "Sandstone plate 7",
      "pbrMetallicRoughness": {
        "baseColorFactor": [
          0.89,
          0.8811,
          0.8633,
          1
        ],
        "baseColorTexture": {
          "index": 0
        },
        "metallicFactor": 0,
        "roughnessFactor": 1
      }
    },
    {
      "name": "Sandstone plate 8",
      "pbrMetallicRoughness": {
        "baseColorFactor": [
          0.87,
          0.8613,
          0.8439,
          1
        ],
        "baseColorTexture": {
          "index": 0
        },
        "metallicFactor": 0,
        "roughnessFactor": 1
      }
    },
    {
      "name": "Sandstone plate 9",
      "pbrMetallicRoughness": {
        "baseColorFactor": [
          0.91,
          0.9009,
          0.8827,
          1
        ],
        "baseColorTexture": {
          "index": 0
        },
        "metallicFactor": 0,
        "roughnessFactor": 1
      }
    },
    {
      "name": "Sandstone plate 10",
      "pbrMetallicRoughness": {
        "baseColorFactor": [
          0.93,
          0.9207000000000001,
          0.9021,
          1
        ],
        "baseColorTexture": {
          "index": 0
        },
        "metallicFactor": 0,
        "roughnessFactor": 1
      }
    },
    {
      "name": "Sandstone plate 11",
      "pbrMetallicRoughness": {
        "baseColorFactor": [
          0.85,
          0.8415,
          0.8245,
          1
        ],
        "baseColorTexture": {
          "index": 0
        },
        "metallicFactor": 0,
        "roughnessFactor": 1
      }
    },
    {
      "name": "Sandstone plate 12",
      "pbrMetallicRoughness": {
        "baseColorFactor": [
          0.97,
          0.9602999999999999,
          0.9409,
          1
        ],
        "baseColorTexture": {
          "index": 0
        },
        "metallicFactor": 0,
        "roughnessFactor": 1
      }
    },
    {
      "name": "Sandstone plate 13",
      "pbrMetallicRoughness": {
        "baseColorFactor": [
          0.89,
          0.8811,
          0.8633,
          1
        ],
        "baseColorTexture": {
          "index": 0
        },
        "metallicFactor": 0,
        "roughnessFactor": 1
      }
    },
    {
      "name": "Sandstone plate 14",
      "pbrMetallicRoughness": {
        "baseColorFactor": [
          0.91,
          0.9009,
          0.8827,
          1
        ],
        "baseColorTexture": {
          "index": 0
        },
        "metallicFactor": 0,
        "roughnessFactor": 1
      }
    },
    {
      "name": "Sandstone plate 15",
      "pbrMetallicRoughness": {
        "baseColorFactor": [
          0.93,
          0.9207000000000001,
          0.9021,
          1
        ],
        "baseColorTexture": {
          "index": 0
        },
        "metallicFactor": 0,
        "roughnessFactor": 1
      }
    },
    {
      "name": "Sandstone plate 16",
      "pbrMetallicRoughness": {
        "baseColorFactor": [
          0.85,
          0.8415,
          0.8245,
          1
        ],
        "baseColorTexture": {
          "index": 0
        },
        "metallicFactor": 0,
        "roughnessFactor": 1
      }
    },
    {
      "name": "Sandstone plate 17",
      "pbrMetallicRoughness": {
        "baseColorFactor": [
          0.97,
          0.9602999999999999,
          0.9409,
          1
        ],
        "baseColorTexture": {
          "index": 0
        },
        "metallicFactor": 0,
        "roughnessFactor": 1
      }
    },
    {
      "name": "Sandstone plate 18",
      "pbrMetallicRoughness": {
        "baseColorFactor": [
          0.89,
          0.8811,
          0.8633,
          1
        ],
        "baseColorTexture": {
          "index": 0
        },
        "metallicFactor": 0,
        "roughnessFactor": 1
      }
    },
    {
      "name": "Sandstone plate 19",
      "pbrMetallicRoughness": {
        "baseColorFactor": [
          0.95,
          0.9405,
          0.9215,
          1
        ],
        "baseColorTexture": {
          "index": 0
        },
        "metallicFactor": 0,
        "roughnessFactor": 1
      }
    },
    {
      "name": "Sandstone plate 20",
      "pbrMetallicRoughness": {
        "baseColorFactor": [
          0.87,
          0.8613,
          0.8439,
          1
        ],
        "baseColorTexture": {
          "index": 0
        },
        "metallicFactor": 0,
        "roughnessFactor": 1
      }
    },
    {
      "name": "Sandstone plate 21",
      "pbrMetallicRoughness": {
        "baseColorFactor": [
          0.93,
          0.9207000000000001,
          0.9021,
          1
        ],
        "baseColorTexture": {
          "index": 0
        },
        "metallicFactor": 0,
        "roughnessFactor": 1
      }
    },
    {
      "name": "Sandstone plate 22",
      "pbrMetallicRoughness": {
        "baseColorFactor": [
          0.85,
          0.8415,
          0.8245,
          1
        ],
        "baseColorTexture": {
          "index": 0
        },
        "metallicFactor": 0,
        "roughnessFactor": 1
      }
    },
    {
      "name": "Sandstone plate 23",
      "pbrMetallicRoughness": {
        "baseColorFactor": [
          0.97,
          0.9602999999999999,
          0.9409,
          1
        ],
        "baseColorTexture": {
          "index": 0
        },
        "metallicFactor": 0,
        "roughnessFactor": 1
      }
    },
    {
      "name": "Sandstone plate 24",
      "pbrMetallicRoughness": {
        "baseColorFactor": [
          0.89,
          0.8811,
          0.8633,
          1
        ],
        "baseColorTexture": {
          "index": 0
        },
        "metallicFactor": 0,
        "roughnessFactor": 1
      }
    },
    {
      "name": "Sandstone plate 25",
      "pbrMetallicRoughness": {
        "baseColorFactor": [
          0.95,
          0.9405,
          0.9215,
          1
        ],
        "baseColorTexture": {
          "index": 0
        },
        "metallicFactor": 0,
        "roughnessFactor": 1
      }
    },
    {
      "name": "Sandstone plate 26",
      "pbrMetallicRoughness": {
        "baseColorFactor": [
          0.87,
          0.8613,
          0.8439,
          1
        ],
        "baseColorTexture": {
          "index": 0
        },
        "metallicFactor": 0,
        "roughnessFactor": 1
      }
    },
    {
      "name": "Sandstone plate 27",
      "pbrMetallicRoughness": {
        "baseColorFactor": [
          0.9,
          0.891,
          0.873,
          1
        ],
        "baseColorTexture": {
          "index": 0
        },
        "metallicFactor": 0,
        "roughnessFactor": 1
      }
    }
  ],
  "images": [
    {
      "uri": "../textures/ground_rock_side.png"
    }
  ],
  "samplers": [
    {
      "magFilter": 9729,
      "minFilter": 9987,
      "wrapS": 10497,
      "wrapT": 10497
    }
  ],
  "textures": [
    {
      "sampler": 0,
      "source": 0
    }
  ],
  "buffers": [
    {
      "uri": "ground_rock_05.bin",
      "byteLength": 34128
    }
  ],
  "bufferViews": [
    {
      "buffer": 0,
      "byteOffset": 0,
      "byteLength": 360,
      "target": 34962
    },
    {
      "buffer": 0,
      "byteOffset": 360,
      "byteLength": 360,
      "target": 34962
    },
    {
      "buffer": 0,
      "byteOffset": 720,
      "byteLength": 240,
      "target": 34962
    },
    {
      "buffer": 0,
      "byteOffset": 960,
      "byteLength": 120,
      "target": 34963
    },
    {
      "buffer": 0,
      "byteOffset": 1080,
      "byteLength": 360,
      "target": 34962
    },
    {
      "buffer": 0,
      "byteOffset": 1440,
      "byteLength": 360,
      "target": 34962
    },
    {
      "buffer": 0,
      "byteOffset": 1800,
      "byteLength": 240,
      "target": 34962
    },
    {
      "buffer": 0,
      "byteOffset": 2040,
      "byteLength": 120,
      "target": 34963
    },
    {
      "buffer": 0,
      "byteOffset": 2160,
      "byteLength": 576,
      "target": 34962
    },
    {
      "buffer": 0,
      "byteOffset": 2736,
      "byteLength": 576,
      "target": 34962
    },
    {
      "buffer": 0,
      "byteOffset": 3312,
      "byteLength": 384,
      "target": 34962
    },
    {
      "buffer": 0,
      "byteOffset": 3696,
      "byteLength": 192,
      "target": 34963
    },
    {
      "buffer": 0,
      "byteOffset": 3888,
      "byteLength": 360,
      "target": 34962
    },
    {
      "buffer": 0,
      "byteOffset": 4248,
      "byteLength": 360,
      "target": 34962
    },
    {
      "buffer": 0,
      "byteOffset": 4608,
      "byteLength": 240,
      "target": 34962
    },
    {
      "buffer": 0,
      "byteOffset": 4848,
      "byteLength": 120,
      "target": 34963
    },
    {
      "buffer": 0,
      "byteOffset": 4968,
      "byteLength": 576,
      "target": 34962
    },
    {
      "buffer": 0,
      "byteOffset": 5544,
      "byteLength": 576,
      "target": 34962
    },
    {
      "buffer": 0,
      "byteOffset": 6120,
      "byteLength": 384,
      "target": 34962
    },
    {
      "buffer": 0,
      "byteOffset": 6504,
      "byteLength": 192,
      "target": 34963
    },
    {
      "buffer": 0,
      "byteOffset": 6696,
      "byteLength": 360,
      "target": 34962
    },
    {
      "buffer": 0,
      "byteOffset": 7056,
      "byteLength": 360,
      "target": 34962
    },
    {
      "buffer": 0,
      "byteOffset": 7416,
      "byteLength": 240,
      "target": 34962
    },
    {
      "buffer": 0,
      "byteOffset": 7656,
      "byteLength": 120,
      "target": 34963
    },
    {
      "buffer": 0,
      "byteOffset": 7776,
      "byteLength": 468,
      "target": 34962
    },
    {
      "buffer": 0,
      "byteOffset": 8244,
      "byteLength": 468,
      "target": 34962
    },
    {
      "buffer": 0,
      "byteOffset": 8712,
      "byteLength": 312,
      "target": 34962
    },
    {
      "buffer": 0,
      "byteOffset": 9024,
      "byteLength": 156,
      "target": 34963
    },
    {
      "buffer": 0,
      "byteOffset": 9180,
      "byteLength": 468,
      "target": 34962
    },
    {
      "buffer": 0,
      "byteOffset": 9648,
      "byteLength": 468,
      "target": 34962
    },
    {
      "buffer": 0,
      "byteOffset": 10116,
      "byteLength": 312,
      "target": 34962
    },
    {
      "buffer": 0,
      "byteOffset": 10428,
      "byteLength": 156,
      "target": 34963
    },
    {
      "buffer": 0,
      "byteOffset": 10584,
      "byteLength": 360,
      "target": 34962
    },
    {
      "buffer": 0,
      "byteOffset": 10944,
      "byteLength": 360,
      "target": 34962
    },
    {
      "buffer": 0,
      "byteOffset": 11304,
      "byteLength": 240,
      "target": 34962
    },
    {
      "buffer": 0,
      "byteOffset": 11544,
      "byteLength": 120,
      "target": 34963
    },
    {
      "buffer": 0,
      "byteOffset": 11664,
      "byteLength": 468,
      "target": 34962
    },
    {
      "buffer": 0,
      "byteOffset": 12132,
      "byteLength": 468,
      "target": 34962
    },
    {
      "buffer": 0,
      "byteOffset": 12600,
      "byteLength": 312,
      "target": 34962
    },
    {
      "buffer": 0,
      "byteOffset": 12912,
      "byteLength": 156,
      "target": 34963
    },
    {
      "buffer": 0,
      "byteOffset": 13068,
      "byteLength": 360,
      "target": 34962
    },
    {
      "buffer": 0,
      "byteOffset": 13428,
      "byteLength": 360,
      "target": 34962
    },
    {
      "buffer": 0,
      "byteOffset": 13788,
      "byteLength": 240,
      "target": 34962
    },
    {
      "buffer": 0,
      "byteOffset": 14028,
      "byteLength": 120,
      "target": 34963
    },
    {
      "buffer": 0,
      "byteOffset": 14148,
      "byteLength": 576,
      "target": 34962
    },
    {
      "buffer": 0,
      "byteOffset": 14724,
      "byteLength": 576,
      "target": 34962
    },
    {
      "buffer": 0,
      "byteOffset": 15300,
      "byteLength": 384,
      "target": 34962
    },
    {
      "buffer": 0,
      "byteOffset": 15684,
      "byteLength": 192,
      "target": 34963
    },
    {
      "buffer": 0,
      "byteOffset": 15876,
      "byteLength": 360,
      "target": 34962
    },
    {
      "buffer": 0,
      "byteOffset": 16236,
      "byteLength": 360,
      "target": 34962
    },
    {
      "buffer": 0,
      "byteOffset": 16596,
      "byteLength": 240,
      "target": 34962
    },
    {
      "buffer": 0,
      "byteOffset": 16836,
      "byteLength": 120,
      "target": 34963
    },
    {
      "buffer": 0,
      "byteOffset": 16956,
      "byteLength": 468,
      "target": 34962
    },
    {
      "buffer": 0,
      "byteOffset": 17424,
      "byteLength": 468,
      "target": 34962
    },
    {
      "buffer": 0,
      "byteOffset": 17892,
      "byteLength": 312,
      "target": 34962
    },
    {
      "buffer": 0,
      "byteOffset": 18204,
      "byteLength": 156,
      "target": 34963
    },
    {
      "buffer": 0,
      "byteOffset": 18360,
      "byteLength": 360,
      "target": 34962
    },
    {
      "buffer": 0,
      "byteOffset": 18720,
      "byteLength": 360,
      "target": 34962
    },
    {
      "buffer": 0,
      "byteOffset": 19080,
      "byteLength": 240,
      "target": 34962
    },
    {
      "buffer": 0,
      "byteOffset": 19320,
      "byteLength": 120,
      "target": 34963
    },
    {
      "buffer": 0,
      "byteOffset": 19440,
      "byteLength": 468,
      "target": 34962
    },
    {
      "buffer": 0,
      "byteOffset": 19908,
      "byteLength": 468,
      "target": 34962
    },
    {
      "buffer": 0,
      "byteOffset": 20376,
      "byteLength": 312,
      "target": 34962
    },
    {
      "buffer": 0,
      "byteOffset": 20688,
      "byteLength": 156,
      "target": 34963
    },
    {
      "buffer": 0,
      "byteOffset": 20844,
      "byteLength": 360,
      "target": 34962
    },
    {
      "buffer": 0,
      "byteOffset": 21204,
      "byteLength": 360,
      "target": 34962
    },
    {
      "buffer": 0,
      "byteOffset": 21564,
      "byteLength": 240,
      "target": 34962
    },
    {
      "buffer": 0,
      "byteOffset": 21804,
      "byteLength": 120,
      "target": 34963
    },
    {
      "buffer": 0,
      "byteOffset": 21924,
      "byteLength": 684,
      "target": 34962
    },
    {
      "buffer": 0,
      "byteOffset": 22608,
      "byteLength": 684,
      "target": 34962
    },
    {
      "buffer": 0,
      "byteOffset": 23292,
      "byteLength": 456,
      "target": 34962
    },
    {
      "buffer": 0,
      "byteOffset": 23748,
      "byteLength": 228,
      "target": 34963
    },
    {
      "buffer": 0,
      "byteOffset": 23976,
      "byteLength": 468,
      "target": 34962
    },
    {
      "buffer": 0,
      "byteOffset": 24444,
      "byteLength": 468,
      "target": 34962
    },
    {
      "buffer": 0,
      "byteOffset": 24912,
      "byteLength": 312,
      "target": 34962
    },
    {
      "buffer": 0,
      "byteOffset": 25224,
      "byteLength": 156,
      "target": 34963
    },
    {
      "buffer": 0,
      "byteOffset": 25380,
      "byteLength": 252,
      "target": 34962
    },
    {
      "buffer": 0,
      "byteOffset": 25632,
      "byteLength": 252,
      "target": 34962
    },
    {
      "buffer": 0,
      "byteOffset": 25884,
      "byteLength": 168,
      "target": 34962
    },
    {
      "buffer": 0,
      "byteOffset": 26052,
      "byteLength": 84,
      "target": 34963
    },
    {
      "buffer": 0,
      "byteOffset": 26136,
      "byteLength": 360,
      "target": 34962
    },
    {
      "buffer": 0,
      "byteOffset": 26496,
      "byteLength": 360,
      "target": 34962
    },
    {
      "buffer": 0,
      "byteOffset": 26856,
      "byteLength": 240,
      "target": 34962
    },
    {
      "buffer": 0,
      "byteOffset": 27096,
      "byteLength": 120,
      "target": 34963
    },
    {
      "buffer": 0,
      "byteOffset": 27216,
      "byteLength": 468,
      "target": 34962
    },
    {
      "buffer": 0,
      "byteOffset": 27684,
      "byteLength": 468,
      "target": 34962
    },
    {
      "buffer": 0,
      "byteOffset": 28152,
      "byteLength": 312,
      "target": 34962
    },
    {
      "buffer": 0,
      "byteOffset": 28464,
      "byteLength": 156,
      "target": 34963
    },
    {
      "buffer": 0,
      "byteOffset": 28620,
      "byteLength": 468,
      "target": 34962
    },
    {
      "buffer": 0,
      "byteOffset": 29088,
      "byteLength": 468,
      "target": 34962
    },
    {
      "buffer": 0,
      "byteOffset": 29556,
      "byteLength": 312,
      "target": 34962
    },
    {
      "buffer": 0,
      "byteOffset": 29868,
      "byteLength": 156,
      "target": 34963
    },
    {
      "buffer": 0,
      "byteOffset": 30024,
      "byteLength": 468,
      "target": 34962
    },
    {
      "buffer": 0,
      "byteOffset": 30492,
      "byteLength": 468,
      "target": 34962
    },
    {
      "buffer": 0,
      "byteOffset": 30960,
      "byteLength": 312,
      "target": 34962
    },
    {
      "buffer": 0,
      "byteOffset": 31272,
      "byteLength": 156,
      "target": 34963
    },
    {
      "buffer": 0,
      "byteOffset": 31428,
      "byteLength": 468,
      "target": 34962
    },
    {
      "buffer": 0,
      "byteOffset": 31896,
      "byteLength": 468,
      "target": 34962
    },
    {
      "buffer": 0,
      "byteOffset": 32364,
      "byteLength": 312,
      "target": 34962
    },
    {
      "buffer": 0,
      "byteOffset": 32676,
      "byteLength": 156,
      "target": 34963
    },
    {
      "buffer": 0,
      "byteOffset": 32832,
      "byteLength": 360,
      "target": 34962
    },
    {
      "buffer": 0,
      "byteOffset": 33192,
      "byteLength": 360,
      "target": 34962
    },
    {
      "buffer": 0,
      "byteOffset": 33552,
      "byteLength": 240,
      "target": 34962
    },
    {
      "buffer": 0,
      "byteOffset": 33792,
      "byteLength": 120,
      "target": 34963
    },
    {
      "buffer": 0,
      "byteOffset": 33912,
      "byteLength": 72,
      "target": 34962
    },
    {
      "buffer": 0,
      "byteOffset": 33984,
      "byteLength": 72,
      "target": 34962
    },
    {
      "buffer": 0,
      "byteOffset": 34056,
      "byteLength": 48,
      "target": 34962
    },
    {
      "buffer": 0,
      "byteOffset": 34104,
      "byteLength": 24,
      "target": 34963
    }
  ],
  "accessors": [
    {
      "bufferView": 0,
      "componentType": 5126,
      "count": 30,
      "type": "VEC3",
      "min": [
        0.0,
        0.0,
        -0.06600691389063482
      ],
      "max": [
        0.3012539283469516,
        0.635,
        0.009721889289367049
      ]
    },
    {
      "bufferView": 1,
      "componentType": 5126,
      "count": 30,
      "type": "VEC3",
      "min": [
        -0.5988911454583747,
        -0.6034681381179547,
        0.19315728168081805
      ],
      "max": [
        0.9699844876357069,
        0.7750275119122265,
        0.9997790732345259
      ]
    },
    {
      "bufferView": 2,
      "componentType": 5126,
      "count": 30,
      "type": "VEC2"
    },
    {
      "bufferView": 3,
      "componentType": 5125,
      "count": 30,
      "type": "SCALAR"
    },
    {
      "bufferView": 4,
      "componentType": 5126,
      "count": 30,
      "type": "VEC3",
      "min": [
        0.22887096774193544,
        0.0,
        -0.0670239658738366
      ],
      "max": [
        0.6594800000000001,
        0.5023965873836609,
        -0.0
      ]
    },
    {
      "bufferView": 5,
      "componentType": 5126,
      "count": 30,
      "type": "VEC3",
      "min": [
        -0.902449030985657,
        -0.22644093639065918,
        0.3793636337000249
      ],
      "max": [
        0.8194266658741428,
        0.7475406739851566,
        0.9998960162211884
      ]
    },
    {
      "bufferView": 6,
      "componentType": 5126,
      "count": 30,
      "type": "VEC2"
    },
    {
      "bufferView": 7,
      "componentType": 5125,
      "count": 30,
      "type": "SCALAR"
    },
    {
      "bufferView": 8,
      "componentType": 5126,
      "count": 48,
      "type": "VEC3",
      "min": [
        0.4424446742502586,
        0.0,
        -0.06893410931174089
      ],
      "max": [
        0.8377064220183486,
        0.6934109311740891,
        0.015914844638086695
      ]
    },
    {
      "bufferView": 9,
      "componentType": 5126,
      "count": 48,
      "type": "VEC3",
      "min": [
        -0.9377669904845868,
        -0.709115885314087,
        0.19441926871110835
      ],
      "max": [
        0.9590719311447665,
        0.8976053188996683,
        0.9997835702830151
      ]
    },
    {
      "bufferView": 10,
      "componentType": 5126,
      "count": 48,
      "type": "VEC2"
    },
    {
      "bufferView": 11,
      "componentType": 5125,
      "count": 48,
      "type": "SCALAR"
    },
    {
      "bufferView": 12,
      "componentType": 5126,
      "count": 30,
      "type": "VEC3",
      "min": [
        0.7210799999999999,
        0.0,
        -0.0672065366972477
      ],
      "max": [
        1.0,
        0.5431944444444445,
        -0.0
      ]
    },
    {
      "bufferView": 13,
      "componentType": 5126,
      "count": 30,
      "type": "VEC3",
      "min": [
        -0.9301515929128484,
        -0.35902469025758155,
        0.3050448895800568
      ],
      "max": [
        0.38953768385517074,
        0.9066160193488662,
        0.9995962446592683
      ]
    },
    {
      "bufferView": 14,
      "componentType": 5126,
      "count": 30,
      "type": "VEC2"
    },
    {
      "bufferView": 15,
      "componentType": 5125,
      "count": 30,
      "type": "SCALAR"
    },
    {
      "bufferView": 16,
      "componentType": 5126,
      "count": 48,
      "type": "VEC3",
      "min": [
        0.0,
        0.4006913890634821,
        -0.06785655339805825
      ],
      "max": [
        0.4678187702265373,
        1.0,
        -0.0
      ]
    },
    {
      "bufferView": 17,
      "componentType": 5126,
      "count": 48,
      "type": "VEC3",
      "min": [
        -0.871198230302821,
        -0.939864610202282,
        0.32147623751587906
      ],
      "max": [
        0.9407423446328069,
        0.7278401935658421,
        0.9995737726595664
      ]
    },
    {
      "bufferView": 18,
      "componentType": 5126,
      "count": 48,
      "type": "VEC2"
    },
    {
      "bufferView": 19,
      "componentType": 5125,
      "count": 48,
      "type": "SCALAR"
    },
    {
      "bufferView": 20,
      "componentType": 5126,
      "count": 30,
      "type": "VEC3",
      "min": [
        0.3723939393939394,
        0.5856553398058252,
        -0.06893410931174089
      ],
      "max": [
        0.7555806451612903,
        1.0,
        0.012799390356584776
      ]
    },
    {
      "bufferView": 21,
      "componentType": 5126,
      "count": 30,
      "type": "VEC3",
      "min": [
        -0.9174421176171358,
        -0.8755639820407423,
        0.2837798447925264
      ],
      "max": [
        0.9471773914656262,
        0.4170891598674727,
        0.999883520354423
      ]
    },
    {
      "bufferView": 22,
      "componentType": 5126,
      "count": 30,
      "type": "VEC2"
    },
    {
      "bufferView": 23,
      "componentType": 5125,
      "count": 30,
      "type": "SCALAR"
    },
    {
      "bufferView": 24,
      "componentType": 5126,
      "count": 39,
      "type": "VEC3",
      "min": [
        0.7120647773279352,
        0.5206536697247708,
        -0.06893410931174089
      ],
      "max": [
        1.0,
        1.0,
        -0.0
      ]
    },
    {
      "bufferView": 25,
      "componentType": 5126,
      "count": 39,
      "type": "VEC3",
      "min": [
        -0.9124060013062513,
        -0.9066419957321012,
        0.39607634178088824
      ],
      "max": [
        0.7629842387538153,
        0.5929265995146612,
        0.9995642849369535
      ]
    },
    {
      "bufferView": 26,
      "componentType": 5126,
      "count": 39,
      "type": "VEC2"
    },
    {
      "bufferView": 27,
      "componentType": 5125,
      "count": 39,
      "type": "SCALAR"
    },
    {
      "bufferView": 28,
      "componentType": 5126,
      "count": 39,
      "type": "VEC3",
      "min": [
        0.9321764056224899,
        0.0,
        -1.0
      ],
      "max": [
        1.0,
        0.8726162790697674,
        -0.6016167664670659
      ]
    },
    {
      "bufferView": 29,
      "componentType": 5126,
      "count": 39,
      "type": "VEC3",
      "min": [
        0.3943311689532859,
        -0.33315697271843514,
        -0.5336672349058951
      ],
      "max": [
        0.9998960162211883,
        0.6950434297354999,
        0.8967753287817962
      ]
    },
    {
      "bufferView": 30,
      "componentType": 5126,
      "count": 39,
      "type": "VEC2"
    },
    {
      "bufferView": 31,
      "componentType": 5125,
      "count": 39,
      "type": "SCALAR"
    },
    {
      "bufferView": 32,
      "componentType": 5126,
      "count": 30,
      "type": "VEC3",
      "min": [
        0.9328042664670658,
        0.0,
        -0.802741935483871
      ],
      "max": [
        1.018094051438089,
        0.5195733532934131,
        -0.2960909090909091
      ]
    },
    {
      "bufferView": 33,
      "componentType": 5126,
      "count": 30,
      "type": "VEC3",
      "min": [
        0.200421349535064,
        -0.7551192609947565,
        -0.9010870748940107
      ],
      "max": [
        0.999783570283015,
        0.8734341677860397,
        0.9564561021064818
      ]
    },
    {
      "bufferView": 34,
      "componentType": 5126,
      "count": 30,
      "type": "VEC2"
    },
    {
      "bufferView": 35,
      "componentType": 5125,
      "count": 30,
      "type": "SCALAR"
    },
    {
      "bufferView": 36,
      "componentType": 5126,
      "count": 39,
      "type": "VEC3",
      "min": [
        0.9313264084507042,
        0.0,
        -0.3854318181818182
      ],
      "max": [
        1.0,
        0.6673591549295776,
        -0.0
      ]
    },
    {
      "bufferView": 37,
      "componentType": 5126,
      "count": 39,
      "type": "VEC3",
      "min": [
        0.3003417702289544,
        -0.14360000690993205,
        -0.922751925548937
      ],
      "max": [
        0.9995962446592683,
        0.8481355089636564,
        0.6544172100958262
      ]
    },
    {
      "bufferView": 38,
      "componentType": 5126,
      "count": 39,
      "type": "VEC2"
    },
    {
      "bufferView": 39,
      "componentType": 5125,
      "count": 39,
      "type": "SCALAR"
    },
    {
      "bufferView": 40,
      "componentType": 5126,
      "count": 30,
      "type": "VEC3",
      "min": [
        0.9321764056224899,
        0.5823594377510041,
        -1.0
      ],
      "max": [
        1.0,
        1.0,
        -0.5065172413793103
      ]
    },
    {
      "bufferView": 41,
      "componentType": 5126,
      "count": 30,
      "type": "VEC3",
      "min": [
        0.34418593238932527,
        -0.9279554724140238,
        -0.8968043401590524
      ],
      "max": [
        0.9995737726595665,
        0.6439023070123548,
        0.8887675699324722
      ]
    },
    {
      "bufferView": 42,
      "componentType": 5126,
      "count": 30,
      "type": "VEC2"
    },
    {
      "bufferView": 43,
      "componentType": 5125,
      "count": 30,
      "type": "SCALAR"
    },
    {
      "bufferView": 44,
      "componentType": 5126,
      "count": 48,
      "type": "VEC3",
      "min": [
        0.9313264084507042,
        0.4094791666666666,
        -0.6159678714859439
      ],
      "max": [
        1.0126859297263529,
        1.0,
        -0.21663764404609476
      ]
    },
    {
      "bufferView": 45,
      "componentType": 5126,
      "count": 48,
      "type": "VEC3",
      "min": [
        0.2829201664298369,
        -0.8506007045621232,
        -0.9310722535894215
      ],
      "max": [
        0.999883520354423,
        0.3660995248682383,
        0.9476782031271895
      ]
    },
    {
      "bufferView": 46,
      "componentType": 5126,
      "count": 48,
      "type": "VEC2"
    },
    {
      "bufferView": 47,
      "componentType": 5125,
      "count": 48,
      "type": "SCALAR"
    },
    {
      "bufferView": 48,
      "componentType": 5126,
      "count": 30,
      "type": "VEC3",
      "min": [
        0.9313264084507042,
        0.5549528301886795,
        -0.2851818181818182
      ],
      "max": [
        1.0,
        1.0,
        -0.0
      ]
    },
    {
      "bufferView": 49,
      "componentType": 5126,
      "count": 30,
      "type": "VEC3",
      "min": [
        0.3664975544948681,
        -0.7917498101703715,
        -0.9098455952189979
      ],
      "max": [
        0.9995642849369533,
        0.7524478926564137,
        0.5839478311717876
      ]
    },
    {
      "bufferView": 50,
      "componentType": 5126,
      "count": 30,
      "type": "VEC2"
    },
    {
      "bufferView": 51,
      "componentType": 5125,
      "count": 30,
      "type": "SCALAR"
    },
    {
      "bufferView": 52,
      "componentType": 5126,
      "count": 39,
      "type": "VEC3",
      "min": [
        0.695050904219692,
        0.0,
        -1.01809193234629
      ],
      "max": [
        1.0,
        0.5109134615384615,
        -0.9333243753470294
      ]
    },
    {
      "bufferView": 53,
      "componentType": 5126,
      "count": 39,
      "type": "VEC3",
      "min": [
        -0.9886981530119512,
        -0.8690160924270357,
        -0.9997835702830151
      ],
      "max": [
        0.8669655433321811,
        0.9799519998611262,
        -0.13819858132831214
      ]
    },
    {
      "bufferView": 54,
      "componentType": 5126,
      "count": 39,
      "type": "VEC2"
    },
    {
      "bufferView": 55,
      "componentType": 5125,
      "count": 39,
      "type": "SCALAR"
    },
    {
      "bufferView": 56,
      "componentType": 5126,
      "count": 30,
      "type": "VEC3",
      "min": [
        0.35405882352941176,
        0.0,
        -1.0
      ],
      "max": [
        0.7304838709677419,
        0.45767582049564637,
        -0.9334232417950435
      ]
    },
    {
      "bufferView": 57,
      "componentType": 5126,
      "count": 30,
      "type": "VEC3",
      "min": [
        -0.9147099441447711,
        -0.115486711329565,
        -0.9995962446592682
      ],
      "max": [
        0.9518451547180122,
        0.9088023820866833,
        -0.29875452222292503
      ]
    },
    {
      "bufferView": 58,
      "componentType": 5126,
      "count": 30,
      "type": "VEC2"
    },
    {
      "bufferView": 59,
      "componentType": 5125,
      "count": 30,
      "type": "SCALAR"
    },
    {
      "bufferView": 60,
      "componentType": 5126,
      "count": 39,
      "type": "VEC3",
      "min": [
        0.0,
        0.0,
        -1.0
      ],
      "max": [
        0.4101499999999999,
        0.5846790123456788,
        -0.9321532098765433
      ]
    },
    {
      "bufferView": 61,
      "componentType": 5126,
      "count": 39,
      "type": "VEC3",
      "min": [
        -0.8161263209407595,
        -0.8839404614191336,
        -0.9995737726595664
      ],
      "max": [
        0.9028334600913264,
        0.8777701962398401,
        -0.42999039912482173
      ]
    },
    {
      "bufferView": 62,
      "componentType": 5126,
      "count": 39,
      "type": "VEC2"
    },
    {
      "bufferView": 63,
      "componentType": 5125,
      "count": 39,
      "type": "SCALAR"
    },
    {
      "bufferView": 64,
      "componentType": 5126,
      "count": 30,
      "type": "VEC3",
      "min": [
        0.6305294117647058,
        0.46756246529705714,
        -1.0135690639882828
      ],
      "max": [
        1.0,
        1.0,
        -0.9333243753470294
      ]
    },
    {
      "bufferView": 65,
      "componentType": 5126,
      "count": 30,
      "type": "VEC3",
      "min": [
        -0.9476490142882186,
        -0.946434847475713,
        -0.9998835203544231
      ],
      "max": [
        0.4921629922331864,
        0.38509586619893044,
        -0.2960004478813952
      ]
    },
    {
      "bufferView": 66,
      "componentType": 5126,
      "count": 30,
      "type": "VEC2"
    },
    {
      "bufferView": 67,
      "componentType": 5125,
      "count": 30,
      "type": "SCALAR"
    },
    {
      "bufferView": 68,
      "componentType": 5126,
      "count": 57,
      "type": "VEC3",
      "min": [
        0.3042987654320988,
        0.3667500000000001,
        -1.0
      ],
      "max": [
        0.6994330927262632,
        1.0,
        -0.931419456681351
      ]
    },
    {
      "bufferView": 69,
      "componentType": 5126,
      "count": 57,
      "type": "VEC3",
      "min": [
        -0.986502810415478,
        -0.9949695236113967,
        -0.9995642849369543
      ],
      "max": [
        0.9910061437296399,
        0.6654396100177431,
        -0.040916731233078193
      ]
    },
    {
      "bufferView": 70,
      "componentType": 5126,
      "count": 57,
      "type": "VEC2"
    },
    {
      "bufferView": 71,
      "componentType": 5125,
      "count": 57,
      "type": "SCALAR"
    },
    {
      "bufferView": 72,
      "componentType": 5126,
      "count": 39,
      "type": "VEC3",
      "min": [
        0.0,
        0.5272641509433962,
        -1.008089579463698
      ],
      "max": [
        0.3217254038179149,
        1.0,
        -0.931419456681351
      ]
    },
    {
      "bufferView": 73,
      "componentType": 5126,
      "count": 39,
      "type": "VEC3",
      "min": [
        -0.46706273515928587,
        -0.9687529701945131,
        -0.99991572560776
      ],
      "max": [
        0.9705472530729701,
        0.1701130516377634,
        -0.16856386827979847
      ]
    },
    {
      "bufferView": 74,
      "componentType": 5126,
      "count": 39,
      "type": "VEC2"
    },
    {
      "bufferView": 75,
      "componentType": 5125,
      "count": 39,
      "type": "SCALAR"
    },
    {
      "bufferView": 76,
      "componentType": 5126,
      "count": 21,
      "type": "VEC3",
      "min": [
        0.24973684210526337,
        0.6580543318649049,
        -1.0
      ],
      "max": [
        0.6268461538461537,
        1.0,
        -0.931419456681351
      ]
    },
    {
      "bufferView": 77,
      "componentType": 5126,
      "count": 21,
      "type": "VEC3",
      "min": [
        -0.8988254700767908,
        -0.6463906149068315,
        -0.9998960162211884
      ],
      "max": [
        0.6265202527532412,
        0.41635588071208274,
        -0.39334719000153795
      ]
    },
    {
      "bufferView": 78,
      "componentType": 5126,
      "count": 21,
      "type": "VEC2"
    },
    {
      "bufferView": 79,
      "componentType": 5125,
      "count": 21,
      "type": "SCALAR"
    },
    {
      "bufferView": 80,
      "componentType": 5126,
      "count": 30,
      "type": "VEC3",
      "min": [
        0.0,
        0.0,
        -0.37796296296296295
      ],
      "max": [
        0.0671812258420762,
        0.5249632352941175,
        -0.0
      ]
    },
    {
      "bufferView": 81,
      "componentType": 5126,
      "count": 30,
      "type": "VEC3",
      "min": [
        -0.9995962446592684,
        -0.3980572583859727,
        -0.8938238288459126
      ],
      "max": [
        -0.305733172714088,
        0.9326305949709845,
        0.3175762084868941
      ]
    },
    {
      "bufferView": 82,
      "componentType": 5126,
      "count": 30,
      "type": "VEC2"
    },
    {
      "bufferView": 83,
      "componentType": 5125,
      "count": 30,
      "type": "SCALAR"
    },
    {
      "bufferView": 84,
      "componentType": 5126,
      "count": 39,
      "type": "VEC3",
      "min": [
        0.0,
        0.0,
        -0.6201473684210526
      ],
      "max": [
        0.06994157894736842,
        0.794157894736842,
        -0.18606570955273338
      ]
    },
    {
      "bufferView": 85,
      "componentType": 5126,
      "count": 39,
      "type": "VEC3",
      "min": [
        -0.9995737726595665,
        -0.2773835636540899,
        -0.8773608003738775
      ],
      "max": [
        -0.3709431667473648,
        0.8467353861848316,
        0.8821697972599871
      ]
    },
    {
      "bufferView": 86,
      "componentType": 5126,
      "count": 39,
      "type": "VEC2"
    },
    {
      "bufferView": 87,
      "componentType": 5125,
      "count": 39,
      "type": "SCALAR"
    },
    {
      "bufferView": 88,
      "componentType": 5126,
      "count": 39,
      "type": "VEC3",
      "min": [
        -0.014633717927378127,
        0.0,
        -1.0
      ],
      "max": [
        0.06744163063619518,
        0.5441630636195183,
        -0.5112162162162164
      ]
    },
    {
      "bufferView": 89,
      "componentType": 5126,
      "count": 39,
      "type": "VEC3",
      "min": [
        -0.999883520354423,
        -0.5285854435160184,
        -0.5806474555251822
      ],
      "max": [
        -0.30619793094850384,
        0.7820829985323664,
        0.9152043684293707
      ]
    },
    {
      "bufferView": 90,
      "componentType": 5126,
      "count": 39,
      "type": "VEC2"
    },
    {
      "bufferView": 91,
      "componentType": 5125,
      "count": 39,
      "type": "SCALAR"
    },
    {
      "bufferView": 92,
      "componentType": 5126,
      "count": 39,
      "type": "VEC3",
      "min": [
        0.0,
        0.5181225842076199,
        -0.3740434782608697
      ],
      "max": [
        0.06994157894736842,
        1.0,
        -0.0
      ]
    },
    {
      "bufferView": 93,
      "componentType": 5126,
      "count": 39,
      "type": "VEC3",
      "min": [
        -0.9995642849369534,
        -0.9148281493939525,
        -0.9045128424501989
      ],
      "max": [
        -0.38596021210223547,
        0.6216645398280007,
        0.8026563789942055
      ]
    },
    {
      "bufferView": 94,
      "componentType": 5126,
      "count": 39,
      "type": "VEC2"
    },
    {
      "bufferView": 95,
      "componentType": 5125,
      "count": 39,
      "type": "SCALAR"
    },
    {
      "bufferView": 96,
      "componentType": 5126,
      "count": 39,
      "type": "VEC3",
      "min": [
        -0.009487277535095432,
        0.47981578947368425,
        -0.8066129032258064
      ],
      "max": [
        0.06994157894736842,
        1.0,
        -0.3686736842105265
      ]
    },
    {
      "bufferView": 97,
      "componentType": 5126,
      "count": 39,
      "type": "VEC3",
      "min": [
        -0.9997790732345258,
        -0.8085881596898152,
        -0.960034242528487
      ],
      "max": [
        -0.16736309431106178,
        0.12945479312761538,
        0.9834987762875358
      ]
    },
    {
      "bufferView": 98,
      "componentType": 5126,
      "count": 39,
      "type": "VEC2"
    },
    {
      "bufferView": 99,
      "componentType": 5125,
      "count": 39,
      "type": "SCALAR"
    },
    {
      "bufferView": 100,
      "componentType": 5126,
      "count": 30,
      "type": "VEC3",
      "min": [
        0.0,
        0.3205555555555556,
        -1.0
      ],
      "max": [
        0.06744163063619518,
        1.0,
        -0.7125046324891908
      ]
    },
    {
      "bufferView": 101,
      "componentType": 5126,
      "count": 30,
      "type": "VEC3",
      "min": [
        -0.9998960162211883,
        -0.6725717082495297,
        -0.42848815294142295
      ],
      "max": [
        -0.3912115899924504,
        0.5338342663932726,
        0.901719013920237
      ]
    },
    {
      "bufferView": 102,
      "componentType": 5126,
      "count": 30,
      "type": "VEC2"
    },
    {
      "bufferView": 103,
      "componentType": 5125,
      "count": 30,
      "type": "SCALAR"
    },
    {
      "bufferView": 104,
      "componentType": 5126,
      "count": 6,
      "type": "VEC3",
      "min": [
        0,
        0,
        -1
      ],
      "max": [
        1,
        0,
        0
      ]
    },
    {
      "bufferView": 105,
      "componentType": 5126,
      "count": 6,
      "type": "VEC3",
      "min": [
        0.0,
        -1.0,
        -0.0
      ],
      "max": [
        0.0,
        -1.0,
        -0.0
      ]
    },
    {
      "bufferView": 106,
      "componentType": 5126,
      "count": 6,
      "type": "VEC2"
    },
    {
      "bufferView": 107,
      "componentType": 5125,
      "count": 6,
      "type": "SCALAR"
    }
  ]
}
