{
  "asset": {
    "version": "2.0",
    "generator": "Authored fracture layouts: tools/make_ground_rock_models.py"
  },
  "scene": 0,
  "scenes": [
    {
      "nodes": [
        0
      ]
    }
  ],
  "nodes": [
    {
      "mesh": 0,
      "name": "ground_rock_01"
    }
  ],
  "meshes": [
    {
      "name": "ground_rock_01",
      "primitives": [
        {
          "attributes": {
            "POSITION": 0,
            "NORMAL": 1,
            "TEXCOORD_0": 2
          },
          "indices": 3,
          "material": 0,
          "mode": 4
        },
        {
          "attributes": {
            "POSITION": 4,
            "NORMAL": 5,
            "TEXCOORD_0": 6
          },
          "indices": 7,
          "material": 1,
          "mode": 4
        },
        {
          "attributes": {
            "POSITION": 8,
            "NORMAL": 9,
            "TEXCOORD_0": 10
          },
          "indices": 11,
          "material": 2,
          "mode": 4
        },
        {
          "attributes": {
            "POSITION": 12,
            "NORMAL": 13,
            "TEXCOORD_0": 14
          },
          "indices": 15,
          "material": 3,
          "mode": 4
        },
        {
          "attributes": {
            "POSITION": 16,
            "NORMAL": 17,
            "TEXCOORD_0": 18
          },
          "indices": 19,
          "material": 4,
          "mode": 4
        },
        {
          "attributes": {
            "POSITION": 20,
            "NORMAL": 21,
            "TEXCOORD_0": 22
          },
          "indices": 23,
          "material": 5,
          "mode": 4
        },
        {
          "attributes": {
            "POSITION": 24,
            "NORMAL": 25,
            "TEXCOORD_0": 26
          },
          "indices": 27,
          "material": 6,
          "mode": 4
        },
        {
          "attributes": {
            "POSITION": 28,
            "NORMAL": 29,
            "TEXCOORD_0": 30
          },
          "indices": 31,
          "material": 7,
          "mode": 4
        },
        {
          "attributes": {
            "POSITION": 32,
            "NORMAL": 33,
            "TEXCOORD_0": 34
          },
          "indices": 35,
          "material": 8,
          "mode": 4
        },
        {
          "attributes": {
            "POSITION": 36,
            "NORMAL": 37,
            "TEXCOORD_0": 38
          },
          "indices": 39,
          "material": 9,
          "mode": 4
        },
        {
          "attributes": {
            "POSITION": 40,
            "NORMAL": 41,
            "TEXCOORD_0": 42
          },
          "indices": 43,
          "material": 10,
          "mode": 4
        },
        {
          "attributes": {
            "POSITION": 44,
            "NORMAL": 45,
            "TEXCOORD_0": 46
          },
          "indices": 47,
          "material": 11,
          "mode": 4
        },
        {
          "attributes": {
            "POSITION": 48,
            "NORMAL": 49,
            "TEXCOORD_0": 50
          },
          "indices": 51,
          "material": 12,
          "mode": 4
        },
        {
          "attributes": {
            "POSITION": 52,
            "NORMAL": 53,
            "TEXCOORD_0": 54
          },
          "indices": 55,
          "material": 13,
          "mode": 4
        },
        {
          "attributes": {
            "POSITION": 56,
            "NORMAL": 57,
            "TEXCOORD_0": 58
          },
          "indices": 59,
          "material": 14,
          "mode": 4
        },
        {
          "attributes": {
            "POSITION": 60,
            "NORMAL": 61,
            "TEXCOORD_0": 62
          },
          "indices": 63,
          "material": 15,
          "mode": 4
        }
      ]
    }
  ],
  "materials": [
    {
      "name": "Sandstone plate 1",
      "pbrMetallicRoughness": {
        "baseColorFactor": [
          0.93,
          0.9207000000000001,
          0.9021,
          1
        ],
        "baseColorTexture": {
          "index": 0
        },
        "metallicFactor": 0,
        "roughnessFactor": 1
      }
    },
    {
      "name": "Sandstone plate 2",
      "pbrMetallicRoughness": {
        "baseColorFactor": [
          0.85,
          0.8415,
          0.8245,
          1
        ],
        "baseColorTexture": {
          "index": 0
        },
        "metallicFactor": 0,
        "roughnessFactor": 1
      }
    },
    {
      "name": "Sandstone plate 3",
      "pbrMetallicRoughness": {
        "baseColorFactor": [
          0.97,
          0.9602999999999999,
          0.9409,
          1
        ],
        "baseColorTexture": {
          "index": 0
        },
        "metallicFactor": 0,
        "roughnessFactor": 1
      }
    },
    {
      "name": "Sandstone plate 4",
      "pbrMetallicRoughness": {
        "baseColorFactor": [
          0.85,
          0.8415,
          0.8245,
          1
        ],
        "baseColorTexture": {
          "index": 0
        },
        "metallicFactor": 0,
        "roughnessFactor": 1
      }
    },
    {
      "name": "Sandstone plate 5",
      "pbrMetallicRoughness": {
        "baseColorFactor": [
          0.97,
          0.9602999999999999,
          0.9409,
          1
        ],
        "baseColorTexture": {
          "index": 0
        },
        "metallicFactor": 0,
        "roughnessFactor": 1
      }
    },
    {
      "name": "Sandstone plate 6",
      "pbrMetallicRoughness": {
        "baseColorFactor": [
          0.89,
          0.8811,
          0.8633,
          1
        ],
        "baseColorTexture": {
          "index": 0
        },
        "metallicFactor": 0,
        "roughnessFactor": 1
      }
    },
    {
      "name": "Sandstone plate 7",
      "pbrMetallicRoughness": {
        "baseColorFactor": [
          0.95,
          0.9405,
          0.9215,
          1
        ],
        "baseColorTexture": {
          "index": 0
        },
        "metallicFactor": 0,
        "roughnessFactor": 1
      }
    },
    {
      "name": "Sandstone plate 8",
      "pbrMetallicRoughness": {
        "baseColorFactor": [
          0.97,
          0.9602999999999999,
          0.9409,
          1
        ],
        "baseColorTexture": {
          "index": 0
        },
        "metallicFactor": 0,
        "roughnessFactor": 1
      }
    },
    {
      "name": "Sandstone plate 9",
      "pbrMetallicRoughness": {
        "baseColorFactor": [
          0.89,
          0.8811,
          0.8633,
          1
        ],
        "baseColorTexture": {
          "index": 0
        },
        "metallicFactor": 0,
        "roughnessFactor": 1
      }
    },
    {
      "name": "Sandstone plate 10",
      "pbrMetallicRoughness": {
        "baseColorFactor": [
          0.95,
          0.9405,
          0.9215,
          1
        ],
        "baseColorTexture": {
          "index": 0
        },
        "metallicFactor": 0,
        "roughnessFactor": 1
      }
    },
    {
      "name": "Sandstone plate 11",
      "pbrMetallicRoughness": {
        "baseColorFactor": [
          0.87,
          0.8613,
          0.8439,
          1
        ],
        "baseColorTexture": {
          "index": 0
        },
        "metallicFactor": 0,
        "roughnessFactor": 1
      }
    },
    {
      "name": "Sandstone plate 12",
      "pbrMetallicRoughness": {
        "baseColorFactor": [
          0.89,
          0.8811,
          0.8633,
          1
        ],
        "baseColorTexture": {
          "index": 0
        },
        "metallicFactor": 0,
        "roughnessFactor": 1
      }
    },
    {
      "name": "Sandstone plate 13",
      "pbrMetallicRoughness": {
        "baseColorFactor": [
          0.95,
          0.9405,
          0.9215,
          1
        ],
        "baseColorTexture": {
          "index": 0
        },
        "metallicFactor": 0,
        "roughnessFactor": 1
      }
    },
    {
      "name": "Sandstone plate 14",
      "pbrMetallicRoughness": {
        "baseColorFactor": [
          0.87,
          0.8613,
          0.8439,
          1
        ],
        "baseColorTexture": {
          "index": 0
        },
        "metallicFactor": 0,
        "roughnessFactor": 1
      }
    },
    {
      "name": "Sandstone plate 15",
      "pbrMetallicRoughness": {
        "baseColorFactor": [
          0.91,
          0.9009,
          0.8827,
          1
        ],
        "baseColorTexture": {
          "index": 0
        },
        "metallicFactor": 0,
        "roughnessFactor": 1
      }
    },
    {
      "name": "Sandstone plate 16",
      "pbrMetallicRoughness": {
        "baseColorFactor": [
          0.9,
          0.891,
          0.873,
          1
        ],
        "baseColorTexture": {
          "index": 0
        },
        "metallicFactor": 0,
        "roughnessFactor": 1
      }
    }
  ],
  "images": [
    {
      "uri": "../textures/ground_rock_side.png"
    }
  ],
  "samplers": [
    {
      "magFilter": 9729,
      "minFilter": 9987,
      "wrapS": 10497,
      "wrapT": 10497
    }
  ],
  "textures": [
    {
      "sampler": 0,
      "source": 0
    }
  ],
  "buffers": [
    {
      "uri": "ground_rock_01.bin",
      "byteLength": 281988
    }
  ],
  "bufferViews": [
    {
      "buffer": 0,
      "byteOffset": 0,
      "byteLength": 6408,
      "target": 34962
    },
    {
      "buffer": 0,
      "byteOffset": 6408,
      "byteLength": 6408,
      "target": 34962
    },
    {
      "buffer": 0,
      "byteOffset": 12816,
      "byteLength": 4272,
      "target": 34962
    },
    {
      "buffer": 0,
      "byteOffset": 17088,
      "byteLength": 2136,
      "target": 34963
    },
    {
      "buffer": 0,
      "byteOffset": 19224,
      "byteLength": 7560,
      "target": 34962
    },
    {
      "buffer": 0,
      "byteOffset": 26784,
      "byteLength": 7560,
      "target": 34962
    },
    {
      "buffer": 0,
      "byteOffset": 34344,
      "byteLength": 5040,
      "target": 34962
    },
    {
      "buffer": 0,
      "byteOffset": 39384,
      "byteLength": 2520,
      "target": 34963
    },
    {
      "buffer": 0,
      "byteOffset": 41904,
      "byteLength": 6588,
      "target": 34962
    },
    {
      "buffer": 0,
      "byteOffset": 48492,
      "byteLength": 6588,
      "target": 34962
    },
    {
      "buffer": 0,
      "byteOffset": 55080,
      "byteLength": 4392,
      "target": 34962
    },
    {
      "buffer": 0,
      "byteOffset": 59472,
      "byteLength": 2196,
      "target": 34963
    },
    {
      "buffer": 0,
      "byteOffset": 61668,
      "byteLength": 5868,
      "target": 34962
    },
    {
      "buffer": 0,
      "byteOffset": 67536,
      "byteLength": 5868,
      "target": 34962
    },
    {
      "buffer": 0,
      "byteOffset": 73404,
      "byteLength": 3912,
      "target": 34962
    },
    {
      "buffer": 0,
      "byteOffset": 77316,
      "byteLength": 1956,
      "target": 34963
    },
    {
      "buffer": 0,
      "byteOffset": 79272,
      "byteLength": 6840,
      "target": 34962
    },
    {
      "buffer": 0,
      "byteOffset": 86112,
      "byteLength": 6840,
      "target": 34962
    },
    {
      "buffer": 0,
      "byteOffset": 92952,
      "byteLength": 4560,
      "target": 34962
    },
    {
      "buffer": 0,
      "byteOffset": 97512,
      "byteLength": 2280,
      "target": 34963
    },
    {
      "buffer": 0,
      "byteOffset": 99792,
      "byteLength": 6480,
      "target": 34962
    },
    {
      "buffer": 0,
      "byteOffset": 106272,
      "byteLength": 6480,
      "target": 34962
    },
    {
      "buffer": 0,
      "byteOffset": 112752,
      "byteLength": 4320,
      "target": 34962
    },
    {
      "buffer": 0,
      "byteOffset": 117072,
      "byteLength": 2160,
      "target": 34963
    },
    {
      "buffer": 0,
      "byteOffset": 119232,
      "byteLength": 5508,
      "target": 34962
    },
    {
      "buffer": 0,
      "byteOffset": 124740,
      "byteLength": 5508,
      "target": 34962
    },
    {
      "buffer": 0,
      "byteOffset": 130248,
      "byteLength": 3672,
      "target": 34962
    },
    {
      "buffer": 0,
      "byteOffset": 133920,
      "byteLength": 1836,
      "target": 34963
    },
    {
      "buffer": 0,
      "byteOffset": 135756,
      "byteLength": 5508,
      "target": 34962
    },
    {
      "buffer": 0,
      "byteOffset": 141264,
      "byteLength": 5508,
      "target": 34962
    },
    {
      "buffer": 0,
      "byteOffset": 146772,
      "byteLength": 3672,
      "target": 34962
    },
    {
      "buffer": 0,
      "byteOffset": 150444,
      "byteLength": 1836,
      "target": 34963
    },
    {
      "buffer": 0,
      "byteOffset": 152280,
      "byteLength": 6660,
      "target": 34962
    },
    {
      "buffer": 0,
      "byteOffset": 158940,
      "byteLength": 6660,
      "target": 34962
    },
    {
      "buffer": 0,
      "byteOffset": 165600,
      "byteLength": 4440,
      "target": 34962
    },
    {
      "buffer": 0,
      "byteOffset": 170040,
      "byteLength": 2220,
      "target": 34963
    },
    {
      "buffer": 0,
      "byteOffset": 172260,
      "byteLength": 6120,
      "target": 34962
    },
    {
      "buffer": 0,
      "byteOffset": 178380,
      "byteLength": 6120,
      "target": 34962
    },
    {
      "buffer": 0,
      "byteOffset": 184500,
      "byteLength": 4080,
      "target": 34962
    },
    {
      "buffer": 0,
      "byteOffset": 188580,
      "byteLength": 2040,
      "target": 34963
    },
    {
      "buffer": 0,
      "byteOffset": 190620,
      "byteLength": 6408,
      "target": 34962
    },
    {
      "buffer": 0,
      "byteOffset": 197028,
      "byteLength": 6408,
      "target": 34962
    },
    {
      "buffer": 0,
      "byteOffset": 203436,
      "byteLength": 4272,
      "target": 34962
    },
    {
      "buffer": 0,
      "byteOffset": 207708,
      "byteLength": 2136,
      "target": 34963
    },
    {
      "buffer": 0,
      "byteOffset": 209844,
      "byteLength": 6300,
      "target": 34962
    },
    {
      "buffer": 0,
      "byteOffset": 216144,
      "byteLength": 6300,
      "target": 34962
    },
    {
      "buffer": 0,
      "byteOffset": 222444,
      "byteLength": 4200,
      "target": 34962
    },
    {
      "buffer": 0,
      "byteOffset": 226644,
      "byteLength": 2100,
      "target": 34963
    },
    {
      "buffer": 0,
      "byteOffset": 228744,
      "byteLength": 5688,
      "target": 34962
    },
    {
      "buffer": 0,
      "byteOffset": 234432,
      "byteLength": 5688,
      "target": 34962
    },
    {
      "buffer": 0,
      "byteOffset": 240120,
      "byteLength": 3792,
      "target": 34962
    },
    {
      "buffer": 0,
      "byteOffset": 243912,
      "byteLength": 1896,
      "target": 34963
    },
    {
      "buffer": 0,
      "byteOffset": 245808,
      "byteLength": 5508,
      "target": 34962
    },
    {
      "buffer": 0,
      "byteOffset": 251316,
      "byteLength": 5508,
      "target": 34962
    },
    {
      "buffer": 0,
      "byteOffset": 256824,
      "byteLength": 3672,
      "target": 34962
    },
    {
      "buffer": 0,
      "byteOffset": 260496,
      "byteLength": 1836,
      "target": 34963
    },
    {
      "buffer": 0,
      "byteOffset": 262332,
      "byteLength": 6480,
      "target": 34962
    },
    {
      "buffer": 0,
      "byteOffset": 268812,
      "byteLength": 6480,
      "target": 34962
    },
    {
      "buffer": 0,
      "byteOffset": 275292,
      "byteLength": 4320,
      "target": 34962
    },
    {
      "buffer": 0,
      "byteOffset": 279612,
      "byteLength": 2160,
      "target": 34963
    },
    {
      "buffer": 0,
      "byteOffset": 281772,
      "byteLength": 72,
      "target": 34962
    },
    {
      "buffer": 0,
      "byteOffset": 281844,
      "byteLength": 72,
      "target": 34962
    },
    {
      "buffer": 0,
      "byteOffset": 281916,
      "byteLength": 48,
      "target": 34962
    },
    {
      "buffer": 0,
      "byteOffset": 281964,
      "byteLength": 24,
      "target": 34963
    }
  ],
  "accessors": [
    {
      "bufferView": 0,
      "componentType": 5126,
      "count": 534,
      "type": "VEC3",
      "min": [
        0.0,
        0.0,
        -0.06942056502655483
      ],
      "max": [
        0.5016644459803716,
        0.8715624999999999,
        0.0025920655601072333
      ]
    },
    {
      "bufferView": 1,
      "componentType": 5126,
      "count": 534,
      "type": "VEC3",
      "min": [
        -0.42271933683734864,
        -0.09034347337942178,
        0.19672264550073773
      ],
      "max": [
        0.9673295998420738,
        0.8121482569966084,
        0.999945666587053
      ]
    },
    {
      "bufferView": 2,
      "componentType": 5126,
      "count": 534,
      "type": "VEC2"
    },
    {
      "bufferView": 3,
      "componentType": 5125,
      "count": 534,
      "type": "SCALAR"
    },
    {
      "bufferView": 4,
      "componentType": 5126,
      "count": 630,
      "type": "VEC3",
      "min": [
        0.482298245614035,
        0.0,
        -0.07114682227569288
      ],
      "max": [
        1.0,
        1.0,
        -0.0
      ]
    },
    {
      "bufferView": 5,
      "componentType": 5126,
      "count": 630,
      "type": "VEC3",
      "min": [
        -0.9643730717040456,
        -0.9691885037626422,
        0.24631999927861226
      ],
      "max": [
        0.6208359431663187,
        0.9247118445556329,
        0.9999733369311814
      ]
    },
    {
      "bufferView": 6,
      "componentType": 5126,
      "count": 630,
      "type": "VEC2"
    },
    {
      "bufferView": 7,
      "componentType": 5125,
      "count": 630,
      "type": "SCALAR"
    },
    {
      "bufferView": 8,
      "componentType": 5126,
      "count": 549,
      "type": "VEC3",
      "min": [
        0.0,
        0.355572902148667,
        -0.07114682227569288
      ],
      "max": [
        0.8989999999999999,
        1.0,
        0.014020232000890342
      ]
    },
    {
      "bufferView": 9,
      "componentType": 5126,
      "count": 549,
      "type": "VEC3",
      "min": [
        -0.7242038630999132,
        -0.8777717650198836,
        0.1636671057546346
      ],
      "max": [
        0.8748759026725667,
        0.6175875498147138,
        0.9999987083951938
      ]
    },
    {
      "bufferView": 10,
      "componentType": 5126,
      "count": 549,
      "type": "VEC2"
    },
    {
      "bufferView": 11,
      "componentType": 5125,
      "count": 549,
      "type": "SCALAR"
    },
    {
      "bufferView": 12,
      "componentType": 5126,
      "count": 489,
      "type": "VEC3",
      "min": [
        0.9330581351874903,
        0.0,
        -1.0
      ],
      "max": [
        1.0,
        0.4941864812509758,
        -0.44267857142857137
      ]
    },
    {
      "bufferView": 13,
      "componentType": 5126,
      "count": 489,
      "type": "VEC3",
      "min": [
        0.25511805611991617,
        -0.6052440790326884,
        -0.5425185612093374
      ],
      "max": [
        0.9997403469808074,
        0.9665014477965176,
        0.9467969183777393
      ]
    },
    {
      "bufferView": 14,
      "componentType": 5126,
      "count": 489,
      "type": "VEC2"
    },
    {
      "bufferView": 15,
      "componentType": 5125,
      "count": 489,
      "type": "SCALAR"
    },
    {
      "bufferView": 16,
      "componentType": 5126,
      "count": 570,
      "type": "VEC3",
      "min": [
        0.9313571298484754,
        0.0,
        -0.47862897495211376
      ],
      "max": [
        1.01569359941164,
        0.6886363636363637,
        -0.0
      ]
    },
    {
      "bufferView": 17,
      "componentType": 5126,
      "count": 570,
      "type": "VEC3",
      "min": [
        0.036849328246999956,
        -0.9790576002869321,
        -0.9989965777280229
      ],
      "max": [
        0.9999968938424594,
        0.9426955851094707,
        0.9827534429915825
      ]
    },
    {
      "bufferView": 18,
      "componentType": 5126,
      "count": 570,
      "type": "VEC2"
    },
    {
      "bufferView": 19,
      "componentType": 5125,
      "count": 570,
      "type": "SCALAR"
    },
    {
      "bufferView": 20,
      "componentType": 5126,
      "count": 540,
      "type": "VEC3",
      "min": [
        0.9290376653764452,
        0.46935129955282356,
        -1.0
      ],
      "max": [
        1.0,
        1.0,
        -0.47795807222834125
      ]
    },
    {
      "bufferView": 21,
      "componentType": 5126,
      "count": 540,
      "type": "VEC3",
      "min": [
        0.04202918239893598,
        -0.9985559075616434,
        -0.8614800359918948
      ],
      "max": [
        0.9998786959998954,
        0.6586342149296005,
        0.9976330771877111
      ]
    },
    {
      "bufferView": 22,
      "componentType": 5126,
      "count": 540,
      "type": "VEC2"
    },
    {
      "bufferView": 23,
      "componentType": 5125,
      "count": 540,
      "type": "SCALAR"
    },
    {
      "bufferView": 24,
      "componentType": 5126,
      "count": 459,
      "type": "VEC3",
      "min": [
        0.9290376653764452,
        0.47260484693896004,
        -0.5351067601944743
      ],
      "max": [
        1.0079137119391146,
        1.0,
        -0.0
      ]
    },
    {
      "bufferView": 25,
      "componentType": 5126,
      "count": 459,
      "type": "VEC3",
      "min": [
        0.10953222975998964,
        -0.9466474241797722,
        -0.9926514788256211
      ],
      "max": [
        0.9999696346416278,
        0.21604218497509253,
        0.6079399979142669
      ]
    },
    {
      "bufferView": 26,
      "componentType": 5126,
      "count": 459,
      "type": "VEC2"
    },
    {
      "bufferView": 27,
      "componentType": 5125,
      "count": 459,
      "type": "SCALAR"
    },
    {
      "bufferView": 28,
      "componentType": 5126,
      "count": 459,
      "type": "VEC3",
      "min": [
        0.5974249201900566,
        0.0,
        -1.013936900930683
      ],
      "max": [
        1.0,
        0.647198275862069,
        -0.9318973331930582
      ]
    },
    {
      "bufferView": 29,
      "componentType": 5126,
      "count": 459,
      "type": "VEC3",
      "min": [
        -0.9789771904398391,
        -0.6351526793952416,
        -0.9999932369398262
      ],
      "max": [
        0.6524437056030727,
        0.8762435012222397,
        -0.1927585017437764
      ]
    },
    {
      "bufferView": 30,
      "componentType": 5126,
      "count": 459,
      "type": "VEC2"
    },
    {
      "bufferView": 31,
      "componentType": 5125,
      "count": 459,
      "type": "SCALAR"
    },
    {
      "bufferView": 32,
      "componentType": 5126,
      "count": 555,
      "type": "VEC3",
      "min": [
        0.0,
        0.0,
        -1.0
      ],
      "max": [
        0.649943499347792,
        0.6728446632409599,
        -0.9312715533675904
      ]
    },
    {
      "bufferView": 33,
      "componentType": 5126,
      "count": 555,
      "type": "VEC3",
      "min": [
        -0.8066541821949372,
        -0.26026945365588755,
        -0.9999999551122692
      ],
      "max": [
        0.9407550367316465,
        0.9337906641406069,
        -0.244015333592409
      ]
    },
    {
      "bufferView": 34,
      "componentType": 5126,
      "count": 555,
      "type": "VEC2"
    },
    {
      "bufferView": 35,
      "componentType": 5125,
      "count": 555,
      "type": "SCALAR"
    },
    {
      "bufferView": 36,
      "componentType": 5126,
      "count": 510,
      "type": "VEC3",
      "min": [
        0.43368965517241387,
        0.4538251770631515,
        -1.0087293501354753
      ],
      "max": [
        1.0,
        1.0,
        -0.9288408876923275
      ]
    },
    {
      "bufferView": 37,
      "componentType": 5126,
      "count": 510,
      "type": "VEC3",
      "min": [
        -0.9913786009512308,
        -0.9244684357116238,
        -0.9999500270496402
      ],
      "max": [
        0.6205613308799915,
        0.18556368274775814,
        -0.10303807370770234
      ]
    },
    {
      "bufferView": 38,
      "componentType": 5126,
      "count": 510,
      "type": "VEC2"
    },
    {
      "bufferView": 39,
      "componentType": 5125,
      "count": 510,
      "type": "SCALAR"
    },
    {
      "bufferView": 40,
      "componentType": 5126,
      "count": 534,
      "type": "VEC3",
      "min": [
        0.0,
        0.13013888888888872,
        -1.0
      ],
      "max": [
        0.45428131681857853,
        1.0,
        -0.9288408876923275
      ]
    },
    {
      "bufferView": 41,
      "componentType": 5126,
      "count": 534,
      "type": "VEC3",
      "min": [
        -0.3052233847370974,
        -0.7356820717591545,
        -0.9999717463346548
      ],
      "max": [
        0.9678172443453196,
        0.22163471326975345,
        -0.24991585143835768
      ]
    },
    {
      "bufferView": 42,
      "componentType": 5126,
      "count": 534,
      "type": "VEC2"
    },
    {
      "bufferView": 43,
      "componentType": 5125,
      "count": 534,
      "type": "SCALAR"
    },
    {
      "bufferView": 44,
      "componentType": 5126,
      "count": 525,
      "type": "VEC3",
      "min": [
        0.0,
        0.0,
        -0.512962962962963
      ],
      "max": [
        0.06777909128536999,
        0.5779091285369996,
        -0.0
      ]
    },
    {
      "bufferView": 45,
      "componentType": 5126,
      "count": 525,
      "type": "VEC3",
      "min": [
        -0.999958432555533,
        -0.30136495877672226,
        -0.9503920386428841
      ],
      "max": [
        -0.20396575810651818,
        0.9722232874612465,
        0.5570991063407089
      ]
    },
    {
      "bufferView": 46,
      "componentType": 5126,
      "count": 525,
      "type": "VEC2"
    },
    {
      "bufferView": 47,
      "componentType": 5125,
      "count": 525,
      "type": "SCALAR"
    },
    {
      "bufferView": 48,
      "componentType": 5126,
      "count": 474,
      "type": "VEC3",
      "min": [
        -0.010379258256159766,
        0.0,
        -1.0
      ],
      "max": [
        0.06733441630420266,
        0.6264285714285713,
        -0.4830136017841983
      ]
    },
    {
      "bufferView": 49,
      "componentType": 5126,
      "count": 474,
      "type": "VEC3",
      "min": [
        -0.999957018039292,
        -0.7400854233952151,
        -0.7183762886894529
      ],
      "max": [
        -0.11495561399607616,
        0.9210731968994772,
        0.9919414560995966
      ]
    },
    {
      "bufferView": 50,
      "componentType": 5126,
      "count": 474,
      "type": "VEC2"
    },
    {
      "bufferView": 51,
      "componentType": 5125,
      "count": 474,
      "type": "SCALAR"
    },
    {
      "bufferView": 52,
      "componentType": 5126,
      "count": 459,
      "type": "VEC3",
      "min": [
        0.0,
        0.4722727272727273,
        -0.448125
      ],
      "max": [
        0.07118810347660244,
        1.0,
        -0.0
      ]
    },
    {
      "bufferView": 53,
      "componentType": 5126,
      "count": 459,
      "type": "VEC3",
      "min": [
        -0.9999287367255538,
        -0.940403362287989,
        -0.9684293396210752
      ],
      "max": [
        -0.2296602505492411,
        0.26174442626004246,
        0.31101475024577313
      ]
    },
    {
      "bufferView": 54,
      "componentType": 5126,
      "count": 459,
      "type": "VEC2"
    },
    {
      "bufferView": 55,
      "componentType": 5125,
      "count": 459,
      "type": "SCALAR"
    },
    {
      "bufferView": 56,
      "componentType": 5126,
      "count": 540,
      "type": "VEC3",
      "min": [
        -0.018167236527349636,
        0.3550314102755693,
        -1.0
      ],
      "max": [
        0.07118810347660244,
        1.0,
        -0.41774331238727824
      ]
    },
    {
      "bufferView": 57,
      "componentType": 5126,
      "count": 540,
      "type": "VEC3",
      "min": [
        -0.9999983537177832,
        -0.9202684291466128,
        -0.8730937510381667
      ],
      "max": [
        -0.11441506461054815,
        0.7617330240409987,
        0.991026419772335
      ]
    },
    {
      "bufferView": 58,
      "componentType": 5126,
      "count": 540,
      "type": "VEC2"
    },
    {
      "bufferView": 59,
      "componentType": 5125,
      "count": 540,
      "type": "SCALAR"
    },
    {
      "bufferView": 60,
      "componentType": 5126,
      "count": 6,
      "type": "VEC3",
      "min": [
        0,
        0,
        -1
      ],
      "max": [
        1,
        0,
        0
      ]
    },
    {
      "bufferView": 61,
      "componentType": 5126,
      "count": 6,
      "type": "VEC3",
      "min": [
        0.0,
        -1.0,
        -0.0
      ],
      "max": [
        0.0,
        -1.0,
        -0.0
      ]
    },
    {
      "bufferView": 62,
      "componentType": 5126,
      "count": 6,
      "type": "VEC2"
    },
    {
      "bufferView": 63,
      "componentType": 5125,
      "count": 6,
      "type": "SCALAR"
    }
  ]
}
